<?xml version="1.0" encoding="UTF-8" standalone="no"?>
<svg xmlns="http://www.w3.org/2000/svg" xmlns:xlink="http://www.w3.org/1999/xlink"  version="1.2" baseProfile="tiny" viewBox ="0 0 2256.000000 1475.000000">
<title>pyqtgraph SVG export</title>
<desc>Generated with Qt and pyqtgraph</desc>
<style>
    image {
        image-rendering: crisp-edges;
        image-rendering: -moz-crisp-edges;
        image-rendering: pixelated;
    }
</style>
<rect width="100%" height="100%" style="fill:rgba(0, 0, 0, 1.000000)" />
<defs>
</defs>
<g fill="none" stroke="black" stroke-width="1" fill-rule="evenodd" stroke-linecap="square" stroke-linejoin="bevel" id="PlotItem_1">
    <g fill="none" stroke="black" stroke-width="1" fill-rule="evenodd" stroke-linecap="square" stroke-linejoin="bevel" id="ViewBox_1">
        <g fill="none" stroke="none" font-family="MS Shell Dlg 2" font-size="13" font-weight="400" font-style="normal">
            <path vector-effect="non-scaling-stroke" fill-rule="evenodd" d="M32.0,1.0 L2255.0,1.0 L2255.0,1454.0 L32.0,1454.0 L32.0,1.0 "/>
        </g>
        <clipPath id="ViewBox_1_clip">
            <path vector-effect="none" fill-rule="evenodd" d="M32.0,1.0 L2255.0,1.0 L2255.0,1454.0 L32.0,1454.0 L32.0,1.0 " stroke-width="1.0"/>
        </clipPath>
        <g clip-path="url(#ViewBox_1_clip)">
            <g fill="none" stroke="black" stroke-width="1" fill-rule="evenodd" stroke-linecap="square" stroke-linejoin="bevel" id="ChildGroup_1">
                <g id="PlotDataItem_1">
                    <g fill="none" stroke="black" stroke-width="1" fill-rule="evenodd" stroke-linecap="square" stroke-linejoin="bevel" id="PlotCurveItem_1">
                        <g fill="none" stroke="#8c2a00" stroke-opacity="1" stroke-width="1" stroke-linecap="square" stroke-linejoin="bevel" font-family="MS Shell Dlg 2" font-size="13" font-weight="400" font-style="normal">
                            <path vector-effect="non-scaling-stroke" fill-rule="evenodd" d="M77.9081,879.05024362272 L91.3966,879.6658867152 L104.8851,880.927447608 L118.37360000000001,883.435639788 L131.8621,886.427799504 L145.3506,888.789922488 L158.83909999999997,890.1649336319999 L172.32760000000002,890.745645504 L185.8161,890.8846770719999 L199.3046,890.898383544 L212.7931,891.021618864 L226.2816,891.418737768 L239.77009999999999,892.202956944 L253.25859999999997,893.450368824 L266.7471,895.20479724 L280.2356,897.477797424 L293.7241,900.2455213439999 L307.21259999999995,903.447488424 L320.7011,906.987015792 L334.1896,910.734537336 L347.6781,914.533012536 L361.1666,918.2065928879999 L374.65509999999995,921.571193712 L388.1436,924.448323552 L401.6321,926.6798355359999 L415.12059999999997,928.142248488 L428.6091,928.7592855839999 L442.09759999999994,928.50968028 L455.5861,927.42945048 L469.0746,925.60857948 L482.56309999999996,923.182226616 L496.0516,920.318557392 L509.54009999999994,917.205282864 L523.0286,914.036629272 L536.5171,911.002151592 L550.0056,908.278312968 L563.4941,906.02307588 L576.9826,904.373259192 L590.4711,903.443800584 L603.9595999999999,903.330092184 L617.4480999999998,904.1104391279999 L630.9366,905.847719088 L644.4250999999999,908.58766128 L657.9136000000001,912.354666912 L671.4021,917.148121344 L684.8906,922.941533592 L698.3790999999999,929.684134392 L711.8676,937.3046869679999 L725.3561,945.71437584 L738.8445999999999,954.8098185599999 L752.3330999999998,964.4750325599999 L765.8216,974.58401664 L779.3100999999999,985.00093536 L792.7986000000001,995.5825775999999 L806.2871,1006.17835656 L819.7755999999999,1016.63461224 L833.2640999999999,1026.79215288 L846.7526,1036.49240136 L860.2411,1045.57800984 L873.7295999999999,1053.89470368 L887.2180999999998,1061.29742784 L900.7066,1067.65034688 L914.1950999999999,1072.83114744 L927.6836000000001,1076.73472608 L941.1721,1079.27872104 L954.6605999999999,1080.40105368 L968.1490999999999,1080.0679188 L981.6376,1078.27255536 L995.1261,1075.03647576 L1008.6145999999999,1070.41130976 L1022.1030999999998,1064.4775752 L1035.5916,1057.34099016 L1049.0801,1049.13247296 L1062.5686,1040.00629824 L1076.0571,1030.131492 L1089.5456,1019.69121696 L1103.0340999999999,1008.87908472 L1116.5225999999998,997.89239472 L1130.0111,986.92721712 L1143.4995999999999,976.17900744 L1156.9880999999998,965.83461624 L1170.4765999999997,956.07105984 L1183.9651,947.0536764 L1197.4535999999998,938.934958104 L1210.9421,931.852338456 L1224.4306,925.928315208 L1237.9190999999998,921.269712792 L1251.4076,917.968481352 L1264.8961,916.1031104159999 L1278.3845999999999,915.743177232 L1291.8730999999998,916.953649248 L1305.3615999999997,919.795191432 L1318.8500999999999,924.317958408 L1332.3385999999998,930.5518831439999 L1345.8270999999997,938.49911688 L1359.3156,948.13298424 L1372.8040999999998,959.3999500799999 L1386.2926,972.22564296 L1399.7811,986.51848152 L1413.2695999999999,1002.1727476799999 L1426.7580999999998,1019.07288912 L1440.2465999999997,1037.09290464 L1453.7350999999999,1056.10064664 L1467.2235999999998,1075.95474792 L1480.7121,1096.51076808 L1494.2006,1117.61812032 L1507.6890999999998,1139.12253 L1521.1776,1160.8666492799998 L1534.6661,1182.68882784 L1548.1545999999998,1204.42803 L1561.6430999999998,1225.92137616 L1575.1315999999997,1247.00475744 L1588.6200999999999,1267.5171381599998 L1602.1085999999998,1287.296868 L1615.5970999999997,1306.1878284 L1629.0855999999999,1324.03635936 L1642.5740999999998,1340.6943326399999 L1656.0626,1356.02161032 L1669.5511,1369.8848155199998 L1683.0395999999998,1382.16102024 L1696.5280999999998,1392.73713072 L1710.0165999999997,1401.51296064 L1723.5050999999999,1408.4024604 L1736.9935999999998,1413.3324878399999 L1750.4821,1416.24834 L1763.9705999999999,1417.1112945599998 L1777.4590999999998,1415.89983912 L1790.9476,1412.6127443999999 L1804.4361,1407.2666056799999 L1817.9245999999998,1399.89830136 L1831.4130999999998,1390.56376368 L1844.9015999999997,1379.33674944 L1858.3900999999998,1366.3119132 L1871.8785999999998,1351.6005048 L1885.3670999999997,1335.32914008 L1898.8555999999999,1317.64225944 L1912.3440999999998,1298.6953668 L1925.8326,1278.65748816 L1939.3211,1257.70748376 L1952.8095999999998,1236.03220416 L1966.2980999999997,1213.82403168 L1979.7865999999997,1191.27965112 L1993.2750999999998,1168.59636192 L2006.7635999999998,1145.97330744 L2020.2521,1123.60471392 L2033.7405999999999,1101.6817344 L2047.2290999999998,1080.3906048 L2060.7176,1059.90711216 L2074.2061,1040.4021264 L2087.6946,1022.03483928 L2101.1830999999997,1004.95337904 L2114.6716,989.2960396799999 L2128.1601,975.18943704 L2141.6486,962.74912344 L2155.1371,952.0789730399999 L2168.6256,943.2717964799999 L2182.1141,936.407988672 L2195.6026,931.558356144 L2209.0911,928.785715104 "/>
                        </g>
                    </g>
                </g>
                <g id="PlotDataItem_2">
                    <g fill="none" stroke="black" stroke-width="1" fill-rule="evenodd" stroke-linecap="square" stroke-linejoin="bevel" id="PlotCurveItem_2">
                        <g fill="none" stroke="#995c00" stroke-opacity="1" stroke-width="1" stroke-linecap="square" stroke-linejoin="bevel" font-family="MS Shell Dlg 2" font-size="13" font-weight="400" font-style="normal">
                            <path vector-effect="non-scaling-stroke" fill-rule="evenodd" d="M77.9081,875.8648361736 L91.3966,876.8831409936 L104.8851,876.9393682607999 L118.37360000000001,876.45781626 L131.8621,876.14158398 L145.3506,876.2564540495999 L158.83909999999997,876.7057866215999 L172.32760000000002,877.3160503848 L185.8161,877.9639362624 L199.3046,878.5935954640728 L212.7931,879.19845668304 L226.2816,879.8013841032 L239.77009999999999,880.4400565272 L253.25859999999997,881.1565669608 L266.7471,881.9896254312 L280.2356,882.9684150456 L293.7241,884.1081358512 L307.21259999999995,885.407558568 L320.7011,886.848213264 L334.1896,888.395385072 L347.6781,889.999779864 L361.1666,891.6008555999999 L374.65509999999995,893.1306945599999 L388.1436,894.519350712 L401.6321,895.7008117199999 L415.12059999999997,896.61877656 L428.6091,897.232617528 L442.09759999999994,897.521191008 L455.5861,897.484988712 L469.0746,897.146445 L482.56309999999996,896.5472939279999 L496.0516,895.745311656 L509.54009999999994,894.809768112 L523.0286,893.816509872 L536.5171,892.844641104 L550.0056,891.972897192 L563.4941,891.27786228 L576.9826,890.832739992 L590.4711,890.706615864 L603.9595999999999,890.964272952 L617.4480999999998,891.6656386559999 L630.9366,892.864432512 L644.4250999999999,894.6050315279999 L657.9136000000001,896.918290632 L671.4021,899.818346544 L684.8906,903.30175728 L698.3790999999999,907.348178256 L711.8676,911.922943776 L725.3561,916.978849488 L738.8445999999999,922.458733872 L752.3330999999998,928.296523128 L765.8216,934.418952168 L779.3100999999999,940.74624072 L792.7986000000001,947.19381432 L806.2871,953.6708906399999 L819.7755999999999,960.08588832 L833.2640999999999,966.34230888 L846.7526,972.34365384 L860.2411,977.99342472 L873.7295999999999,983.19819624 L887.2180999999998,987.86761632 L900.7066,991.9180939199999 L914.1950999999999,995.2715697599999 L927.6836000000001,997.86412128 L941.1721,999.6404308799999 L954.6605999999999,1000.56177624 L968.1490999999999,1000.60234248 L981.6376,999.75536856 L995.1261,998.03068872 L1008.6145999999999,995.45596176 L1022.1030999999998,992.0760564 L1035.5916,987.95305128 L1049.0801,983.1637764 L1062.5686,977.7979692 L1076.0571,971.95704528 L1089.5456,965.7516398399999 L1103.0340999999999,959.2973052 L1116.5225999999998,952.71389616 L1130.0111,946.12188216 L1143.4995999999999,939.640318968 L1156.9880999999998,933.38500476 L1170.4765999999997,927.466759128 L1183.9651,921.9901937999999 L1197.4535999999998,917.053343856 L1210.9421,912.746991624 L1224.4306,909.154543752 L1237.9190999999998,906.352645848 L1251.4076,904.41118248 L1264.8961,903.394690848 L1278.3845999999999,903.364389096 L1291.8730999999998,904.3800816959999 L1305.3615999999997,906.499360416 L1318.8500999999999,909.77145792 L1332.3385999999998,914.23005648 L1345.8270999999997,919.88720304 L1359.3156,926.732387256 L1372.8040999999998,934.734631272 L1386.2926,943.84587024 L1399.7811,954.0052548 L1413.2695999999999,965.1406876799999 L1426.7580999999998,977.17226568 L1440.2465999999997,990.010866 L1453.7350999999999,1003.5649072799999 L1467.2235999999998,1017.7335885599999 L1480.7121,1032.41549424 L1494.2006,1047.50367696 L1507.6890999999998,1062.8875015200001 L1521.1776,1078.45510344 L1534.6661,1094.09215968 L1548.1545999999998,1109.6831179199999 L1561.6430999999998,1125.10996728 L1575.1315999999997,1140.25777008 L1588.6200999999999,1155.00913008 L1602.1085999999998,1169.2491095999999 L1615.5970999999997,1182.8646148799999 L1629.0855999999999,1195.74624 L1642.5740999999998,1207.78642296 L1656.0626,1218.88497744 L1669.5511,1228.94479032 L1683.0395999999998,1237.87735344 L1696.5280999999998,1245.60091968 L1710.0165999999997,1252.04234688 L1723.5050999999999,1257.1389417599999 L1736.9935999999998,1260.83784528 L1750.4821,1263.09726192 L1763.9705999999999,1263.88953288 L1777.4590999999998,1263.19744824 L1790.9476,1261.0179348 L1804.4361,1257.36328536 L1817.9245999999998,1252.25685624 L1831.4130999999998,1245.7379844 L1844.9015999999997,1237.85891424 L1858.3900999999998,1228.6847976 L1871.8785999999998,1218.29492304 L1885.3670999999997,1206.77964264 L1898.8555999999999,1194.23975736 L1912.3440999999998,1180.78651704 L1925.8326,1166.54100576 L1939.3211,1151.62922472 L1952.8095999999998,1136.18516544 L1966.2980999999997,1120.34650728 L1979.7865999999997,1104.25338816 L1993.2750999999998,1088.04778992 L2006.7635999999998,1071.8716944 L2020.2521,1055.86462488 L2033.7405999999999,1040.16426072 L2047.2290999999998,1024.90459344 L2060.7176,1010.21285352 L2074.2061,996.2119689599999 L2087.6946,983.01749208 L2101.1830999999997,970.73821416 L2114.6716,959.4755508 L2128.1601,949.32231264 L2141.6486,940.3663932 L2155.1371,932.6859132239999 L2168.6256,926.3543221919999 L2182.1141,921.437448048 L2195.6026,917.995894296 L2209.0911,916.08688392 "/>
                        </g>
                    </g>
                </g>
                <g id="PlotDataItem_3">
                    <g fill="none" stroke="black" stroke-width="1" fill-rule="evenodd" stroke-linecap="square" stroke-linejoin="bevel" id="PlotCurveItem_3">
                        <g fill="none" stroke="#a69500" stroke-opacity="1" stroke-width="1" stroke-linecap="square" stroke-linejoin="bevel" font-family="MS Shell Dlg 2" font-size="13" font-weight="400" font-style="normal">
                            <path vector-effect="non-scaling-stroke" fill-rule="evenodd" d="M77.9081,872.6794213488 L91.3966,874.1003891256 L104.8851,872.9512889136 L118.37360000000001,869.4800234639999 L131.8621,865.855368456 L145.3506,863.72293644 L158.83909999999997,863.246651904 L172.32760000000002,863.88643068 L185.8161,865.04318316 L199.3046,866.288812584 L212.7931,867.375311712 L226.2816,868.184055024 L239.77009999999999,868.677119232 L253.25859999999997,868.862801976 L266.7471,868.774478208 L280.2356,868.45904496 L293.7241,867.970774944 L307.21259999999995,867.367567248 L320.7011,866.709410736 L334.1896,866.056232808 L347.6781,865.466547192 L361.1666,864.9951183119999 L374.65509999999995,864.690195408 L388.1436,864.590439336 L401.6321,864.7217879039999 L415.12059999999997,865.095366096 L428.6091,865.706010936 L442.09759999999994,866.532701736 L455.5861,867.540588408 L469.0746,868.684249056 L482.56309999999996,869.91236124 L496.0516,871.172127384 L509.54009999999994,872.414191896 L523.0286,873.596421204 L536.5171,874.6871490551999 L550.0056,875.667481416 L563.4941,876.5326240944 L576.9826,877.2922330847999 L590.4711,877.9694249976 L603.9595999999999,878.598429994896 L617.4480999999998,879.2208504768 L630.9366,879.8812196928 L644.4250999999999,880.6224570936 L657.9136000000001,881.4819020592 L671.4021,882.488571744 L684.8906,883.6619686752 L698.3790999999999,885.0122221199999 L711.8676,886.54113912 L725.3561,888.243446064 L738.8445999999999,890.107772112 L752.3330999999998,892.1180136959999 L765.8216,894.254010624 L779.3100999999999,896.4918534 L792.7986000000001,898.804928112 L806.2871,901.163854968 L819.7755999999999,903.5372873279999 L833.2640999999999,905.8922190239999 L846.7526,908.194537536 L860.2411,910.409331312 L873.7295999999999,912.501934656 L887.2180999999998,914.438173584 L900.7066,916.185287784 L914.1950999999999,917.7128525759999 L927.6836000000001,918.9932706239999 L941.1721,920.002693896 L954.6605999999999,920.72188416 L968.1490999999999,921.136643232 L981.6376,921.23848908 L995.1261,921.025209 L1008.6145999999999,920.500675224 L1022.1030999999998,919.675275168 L1035.5916,918.565665576 L1049.0801,917.194342272 L1062.5686,915.589086984 L1076.0571,913.78259856 L1089.5456,911.8113866159999 L1103.0340999999999,909.715033968 L1116.5225999999998,907.535520528 L1130.0111,905.31623988 L1143.4995999999999,903.1014461039999 L1156.9880999999998,900.935454744 L1170.4765999999997,898.862581344 L1183.9651,896.9267726639999 L1197.4535999999998,895.171791072 L1210.9421,893.641583328 L1224.4306,892.38083376 L1237.9190999999998,891.435578904 L1251.4076,890.853945072 L1264.8961,890.68627128 L1278.3845999999999,890.985539496 L1291.8730999999998,891.806514144 L1305.3615999999997,893.203467936 L1318.8500999999999,895.224957432 L1332.3385999999998,897.908229816 L1345.8270999999997,901.2752892 L1359.3156,905.331974664 L1372.8040999999998,910.069435392 L1386.2926,915.466650696 L1399.7811,921.4927656479999 L1413.2695999999999,928.10924232 L1426.7580999999998,935.271273456 L1440.2465999999997,942.929442 L1453.7350999999999,951.02916792 L1467.2235999999998,959.51304384 L1480.7121,968.3202203999999 L1494.2006,977.38861896 L1507.6890999999998,986.65247304 L1521.1776,996.04417224 L1534.6661,1005.49549152 L1548.1545999999998,1014.9375912 L1561.6430999999998,1024.29917304 L1575.1315999999997,1033.51078272 L1588.6200999999999,1042.501122 L1602.1085999999998,1051.20073656 L1615.5970999999997,1059.54140136 L1629.0855999999999,1067.455506 L1642.5740999999998,1074.8785132799999 L1656.0626,1081.74772992 L1669.5511,1088.00476512 L1683.0395999999998,1093.59368664 L1696.5280999999998,1098.464094 L1710.0165999999997,1102.57173312 L1723.5050999999999,1105.87542312 L1736.9935999999998,1108.34258808 L1750.4821,1109.94618384 L1763.9705999999999,1110.6677712 L1777.4590999999998,1110.49444272 L1790.9476,1109.4231252 L1804.4361,1107.4593504 L1817.9245999999998,1104.61479648 L1831.4130999999998,1100.91220512 L1844.9015999999997,1096.3804644 L1858.3900999999998,1091.057682 L1871.8785999999998,1084.98995592 L1885.3670999999997,1078.22953056 L1898.8555999999999,1070.83725528 L1912.3440999999998,1062.87828192 L1925.8326,1054.4239087199999 L1939.3211,1045.55096568 L1952.8095999999998,1036.3387413599999 L1966.2980999999997,1026.86898288 L1979.7865999999997,1017.2277398399999 L1993.2750999999998,1007.49921792 L2006.7635999999998,997.76946672 L2020.2521,988.12453584 L2033.7405999999999,978.6467870399999 L2047.2290999999998,969.41858208 L2060.7176,960.51859488 L2074.2061,952.02181152 L2087.6946,944.00075952 L2101.1830999999997,936.5236024559999 L2114.6716,929.654938992 L2128.1601,923.455557024 L2141.6486,917.983171248 L2155.1371,913.292669016 L2168.6256,909.4368479039999 L2182.1141,906.4669074239999 L2195.6026,904.433432448 L2209.0911,903.387991272 "/>
                        </g>
                    </g>
                </g>
                <g id="PlotDataItem_4">
                    <g fill="none" stroke="black" stroke-width="1" fill-rule="evenodd" stroke-linecap="square" stroke-linejoin="bevel" id="PlotCurveItem_4">
                        <g fill="none" stroke="#8fb300" stroke-opacity="1" stroke-width="1" stroke-linecap="square" stroke-linejoin="bevel" font-family="MS Shell Dlg 2" font-size="13" font-weight="400" font-style="normal">
                            <path vector-effect="non-scaling-stroke" fill-rule="evenodd" d="M77.9081,869.494037256 L91.3966,871.317612672 L104.8851,868.963234152 L118.37360000000001,862.502199936 L131.8621,855.569183664 L145.3506,851.189443416 L158.83909999999997,849.78751104 L172.32760000000002,850.456792536 L185.8161,852.122405472 L199.3046,853.984027104 L212.7931,855.552158136 L226.2816,856.566744384 L239.77009999999999,856.9142003759999 L253.25859999999997,856.569018552 L266.7471,855.55928796 L280.2356,853.949668728 L293.7241,851.83334028 L307.21259999999995,849.327637392 L320.7011,846.570608208 L334.1896,843.7170805439999 L347.6781,840.93331452 L361.1666,838.389442488 L374.65509999999995,836.2497577199999 L388.1436,834.661466496 L401.6321,833.742764088 L415.12059999999997,833.571894168 L428.6091,834.17934288 L442.09759999999994,835.544212464 L455.5861,837.59612664 L469.0746,840.222053112 L482.56309999999996,843.277428552 L496.0516,846.598943112 L509.54009999999994,850.018677144 L523.0286,853.376332536 L536.5171,856.529681592 L550.0056,859.36206564 L563.4941,861.787373616 L576.9826,863.751701592 L590.4711,865.232246424 L603.9595999999999,866.232573024 L617.4480999999998,866.776037712 L630.9366,866.897982288 L644.4250999999999,866.639894952 L657.9136000000001,866.045538072 L671.4021,865.158796944 L684.8906,864.022204656 L698.3790999999999,862.676265984 L711.8676,861.159395928 L725.3561,859.5079811759999 L738.8445999999999,857.756810352 L752.3330999999998,855.9395657279999 L765.8216,854.089007616 L779.3100999999999,852.237343152 L792.7986000000001,850.4161648319999 L806.2871,848.6565119759999 L819.7755999999999,846.9887477999999 L833.2640999999999,845.442375024 L846.7526,844.045667088 L860.2411,842.82517644 L873.7295999999999,841.805427216 L887.2180999999998,841.008362064 L900.7066,840.4527889679999 L914.1950999999999,840.153828072 L927.6836000000001,840.122358504 L941.1721,840.36477252 L954.6605999999999,840.882237936 L968.1490999999999,841.671005448 L981.6376,842.7216096 L995.1261,844.0195448879999 L1008.6145999999999,845.545204296 L1022.1030999999998,847.27424808 L1035.5916,849.178156944 L1049.0801,851.225092536 L1062.5686,853.380573552 L1076.0571,855.6083362319999 L1089.5456,857.871379248 L1103.0340999999999,860.132885664 L1116.5225999999998,862.35720636 L1130.0111,864.510659064 L1143.4995999999999,866.562511776 L1156.9880999999998,868.485904728 L1170.4765999999997,870.258465024 L1183.9651,871.863351528 L1197.4535999999998,873.2902198488 L1210.9421,874.5361873248 L1224.4306,875.6070745968 L1237.9190999999998,876.5185242528 L1251.4076,877.296676932 L1264.8961,877.9778394192 L1278.3845999999999,878.606668445064 L1291.8730999999998,879.2329711776 L1305.3615999999997,879.9076492128 L1318.8500999999999,880.678456944 L1332.3385999999998,881.5863847127999 L1345.8270999999997,882.6633384816 L1359.3156,883.9315497791999 L1372.8040999999998,885.404300976 L1386.2926,887.08724676 L1399.7811,888.98003064 L1413.2695999999999,891.077428176 L1426.7580999999998,893.370465624 L1440.2465999999997,895.847218968 L1453.7350999999999,898.4931212399999 L1467.2235999999998,901.29188448 L1480.7121,904.225315344 L1494.2006,907.2739297439999 L1507.6890999999998,910.417014312 L1521.1776,913.6328722559999 L1534.6661,916.8989462879999 L1548.1545999999998,920.191941552 L1561.6430999999998,923.48807148 L1575.1315999999997,926.763242184 L1588.6200999999999,929.992929528 L1602.1085999999998,933.152732304 L1615.5970999999997,936.2181878399999 L1629.0855999999999,939.165325176 L1642.5740999999998,941.9706036 L1656.0626,944.6104824 L1669.5511,947.06412528 L1683.0395999999998,949.31001984 L1696.5280999999998,951.32788296 L1710.0165999999997,953.10050472 L1723.5050999999999,954.61190448 L1736.9935999999998,955.84733088 L1750.4821,956.79510576 L1763.9705999999999,957.44539488 L1777.4590999999998,957.7914372 L1790.9476,957.82893024 L1804.4361,957.5554154399999 L1817.9245999999998,956.9733513599999 L1831.4130999999998,956.08642584 L1844.9015999999997,954.90201456 L1858.3900999999998,953.4305664 L1871.8785999999998,951.68437416 L1885.3670999999997,949.68003312 L1898.8555999999999,947.4347531999999 L1912.3440999999998,944.96943216 L1925.8326,942.30742632 L1939.3211,939.472768104 L1952.8095999999998,936.491641176 L1966.2980999999997,933.391704336 L1979.7865999999997,930.20147688 L1993.2750999999998,926.950277136 L2006.7635999999998,923.667915144 L2020.2521,920.384262408 L2033.7405999999999,917.12931336 L2047.2290999999998,913.9326936479999 L2060.7176,910.8237830639999 L2074.2061,907.83134676 L2087.6946,904.98371964 L2101.1830999999997,902.30880636 L2114.6716,899.834450112 L2128.1601,897.588617016 L2141.6486,895.600133688 L2155.1371,893.8994248079999 L2168.6256,892.5193736159999 L2182.1141,891.496305336 L2195.6026,890.871032064 L2209.0911,890.689160088 "/>
                        </g>
                    </g>
                </g>
                <g id="PlotDataItem_5">
                    <g fill="none" stroke="black" stroke-width="1" fill-rule="evenodd" stroke-linecap="square" stroke-linejoin="bevel" id="PlotCurveItem_5">
                        <g fill="none" stroke="#60bf00" stroke-opacity="1" stroke-width="1" stroke-linecap="square" stroke-linejoin="bevel" font-family="MS Shell Dlg 2" font-size="13" font-weight="400" font-style="normal">
                            <path vector-effect="non-scaling-stroke" fill-rule="evenodd" d="M77.9081,866.308603992 L91.3966,868.534891536 L104.8851,864.9751425119999 L118.37360000000001,855.524376408 L131.8621,845.282937408 L145.3506,838.655950392 L158.83909999999997,836.328370176 L172.32760000000002,837.0271543919999 L185.8161,839.201627784 L199.3046,841.679241624 L212.7931,843.72900456 L226.2816,844.94937228 L239.77009999999999,845.15128152 L253.25859999999997,844.275173664 L266.7471,842.344097712 L280.2356,839.440292496 L293.7241,835.69596708 L307.21259999999995,831.287707536 L320.7011,826.43180568 L334.1896,821.37792828 L347.6781,816.40026624 L361.1666,811.7837052 L374.65509999999995,807.80944296 L388.1436,804.73255512 L401.6321,802.7638632 L415.12059999999997,802.04842224 L428.6091,802.65261336 L442.09759999999994,804.5555388 L455.5861,807.65148048 L469.0746,811.75973424 L482.56309999999996,816.6424344 L496.0516,822.02575884 L509.54009999999994,827.623100928 L523.0286,833.156213136 L536.5171,838.372171104 L550.0056,843.056649864 L563.4941,847.042160016 L576.9826,850.211243856 L590.4711,852.495061704 L603.9595999999999,853.8667537919999 L617.4480999999998,854.33123724 L630.9366,853.914757176 L644.4250999999999,852.6572652 L657.9136000000001,850.609161792 L671.4021,847.829022144 L684.8906,844.382428344 L698.3790999999999,840.340309848 L711.8676,835.7776527359999 L725.3561,830.772516288 L738.8445999999999,825.405848592 L752.3330999999998,819.761056296 L765.8216,813.92388168 L779.3100999999999,807.98277144 L792.7986000000001,802.02752448 L806.2871,796.14910752 L819.7755999999999,790.4403312 L833.2640999999999,784.99277688 L846.7526,779.8967966399999 L860.2411,775.24089864 L873.7295999999999,771.10867392 L887.2180999999998,767.5787964 L900.7066,764.72010576 L914.1950999999999,762.59468064 L927.6836000000001,761.25169224 L941.1721,760.72678968 L954.6605999999999,761.04271464 L968.1490999999999,762.20561352 L981.6376,764.2044228 L995.1261,767.01394224 L1008.6145999999999,770.5899177599999 L1022.1030999999998,774.87334392 L1035.5916,779.79046392 L1049.0801,785.2558428 L1062.5686,791.1717527999999 L1076.0571,797.43431976 L1089.5456,803.9316792 L1103.0340999999999,810.55073736 L1116.5225999999998,817.178953656 L1130.0111,823.705078248 L1143.4995999999999,830.023638912 L1156.9880999999998,836.0363547119999 L1170.4765999999997,841.65428724 L1183.9651,846.799930392 L1197.4535999999998,851.40862404 L1210.9421,855.4308282 L1224.4306,858.833352312 L1237.9190999999998,861.601445016 L1251.4076,863.739408792 L1264.8961,865.269432144 L1278.3845999999999,866.227840296 L1291.8730999999998,866.65937904 L1305.3615999999997,866.611805904 L1318.8500999999999,866.131956456 L1332.3385999999998,865.264576488 L1345.8270999999997,864.051400056 L1359.3156,862.53114948 L1372.8040999999998,860.739105096 L1386.2926,858.707842824 L1399.7811,856.467295632 L1413.2695999999999,854.045675496 L1426.7580999999998,851.469719256 L1440.2465999999997,848.765241792 L1453.7350999999999,845.95738188 L1467.2235999999998,843.070909512 L1480.7121,840.130102968 L1494.2006,837.159056136 L1507.6890999999998,834.181739976 L1521.1776,831.221633736 L1534.6661,828.302216664 L1548.1545999999998,825.446476296 L1561.6430999999998,822.67696992 L1575.1315999999997,820.015947504 L1588.6200999999999,817.484859984 L1602.1085999999998,815.10460512 L1615.5970999999997,812.89497432 L1629.0855999999999,810.87526728 L1642.5740999999998,809.06269392 L1656.0626,807.4738495199999 L1669.5511,806.12410008 L1683.0395999999998,805.0257384 L1696.5280999999998,804.19167192 L1710.0165999999997,803.62989096 L1723.5050999999999,803.34900048 L1736.9935999999998,803.35268832 L1750.4821,803.64402768 L1763.9705999999999,804.2236332 L1777.4590999999998,805.08904632 L1790.9476,806.23412064 L1804.4361,807.65148048 L1817.9245999999998,809.3312916 L1831.4130999999998,811.2606465599999 L1844.9015999999997,813.42356472 L1858.3900999999998,815.80283616 L1871.8785999999998,818.379038256 L1885.3670999999997,821.129859576 L1898.8555999999999,824.032128192 L1912.3440999999998,827.061135576 L1925.8326,830.190820992 L1939.3211,833.394509064 L1952.8095999999998,836.644848312 L1966.2980999999997,839.914302864 L1979.7865999999997,843.17552124 L1993.2750999999998,846.401520744 L2006.7635999999998,849.566056248 L2020.2521,852.6441119039999 L2033.7405999999999,855.611716752 L2047.2290999999998,858.44686668 L2060.7176,861.129278568 L2074.2061,863.641004928 L2087.6946,865.966741224 L2101.1830999999997,868.094071728 L2114.6716,870.0139612319999 L2128.1601,871.721677008 L2141.6486,873.2171145672 L2155.1371,874.5061867464 L2168.6256,875.6019239136 L2182.1141,876.5257831512 L2195.6026,877.3085579231999 L2209.0911,877.99032460152 "/>
                        </g>
                    </g>
                </g>
                <g id="PlotDataItem_6">
                    <g fill="none" stroke="black" stroke-width="1" fill-rule="evenodd" stroke-linecap="square" stroke-linejoin="bevel" id="PlotCurveItem_6">
                        <g fill="none" stroke="#28cc00" stroke-opacity="1" stroke-width="1" stroke-linecap="square" stroke-linejoin="bevel" font-family="MS Shell Dlg 2" font-size="13" font-weight="400" font-style="normal">
                            <path vector-effect="non-scaling-stroke" fill-rule="evenodd" d="M77.9081,863.123170728 L91.3966,865.7521704 L104.8851,860.9870508719999 L118.37360000000001,848.54655288 L131.8621,834.996752616 L145.3506,826.122518832 L158.83909999999997,822.869229312 L172.32760000000002,823.597577712 L185.8161,826.280850096 L199.3046,829.374517608 L212.7931,831.9058509839999 L226.2816,833.33206164 L239.77009999999999,833.3883626639999 L253.25859999999997,831.98139024 L266.7471,829.128907464 L280.2356,824.930977728 L293.7241,819.55859388 L307.21259999999995,813.24777768 L320.7011,806.29312608 L334.1896,799.0385301599999 L347.6781,791.86691064 L361.1666,785.17778352 L374.65509999999995,779.3688208799999 L388.1436,774.80327496 L401.6321,771.78477792 L415.12059999999997,770.5247659199999 L428.6091,771.12588384 L442.09759999999994,773.56723392 L455.5861,777.70744896 L469.0746,783.29759976 L482.56309999999996,790.00762464 L496.0516,797.45275896 L509.54009999999994,805.2273403199999 L523.0286,812.9361552 L536.5171,820.214660616 L550.0056,826.751295552 L563.4941,832.296946416 L576.9826,836.670724656 L590.4711,839.75781552 L603.9595999999999,841.50093456 L617.4480999999998,841.886436768 L630.9366,840.9314706 L644.4250999999999,838.674696912 L657.9136000000001,835.172785512 L671.4021,830.499247344 L684.8906,824.742652032 L698.3790999999999,818.004353712 L711.8676,810.39584808 L725.3561,802.03674408 L738.8445999999999,793.05500976 L752.3330999999998,783.58279272 L765.8216,773.7590015999999 L779.3100999999999,763.7280768 L792.7986000000001,753.6387612 L806.2871,743.6416416 L819.7755999999999,733.89160728 L833.2640999999999,724.54293288 L846.7526,715.74804912 L860.2411,707.65692816 L873.7295999999999,700.41216648 L887.2180999999998,694.14898488 L900.7066,688.9878527999999 L914.1950999999999,685.0357176 L927.6836000000001,682.3804728 L941.1721,681.08911416 L954.6605999999999,681.20282256 L968.1490999999999,682.73942256 L981.6376,685.68785064 L995.1261,690.0081552 L1008.6145999999999,695.63456976 L1022.1030999999998,702.47243976 L1035.5916,710.40313968 L1049.0801,719.2865316 L1062.5686,728.96342376 L1076.0571,739.25987304 L1089.5456,749.99148744 L1103.0340999999999,760.96895784 L1116.5225999999998,772.00051656 L1130.0111,782.89931304 L1143.4995999999999,793.48464312 L1156.9880999999998,803.58686616 L1170.4765999999997,813.0498636 L1183.9651,821.736447792 L1197.4535999999998,829.527071256 L1210.9421,836.325419904 L1224.4306,842.059580856 L1237.9190999999998,846.684378072 L1251.4076,850.182171384 L1264.8961,852.5610125759999 L1278.3845999999999,853.848990696 L1291.8730999999998,854.085811488 L1305.3615999999997,853.315974888 L1318.8500999999999,851.585455968 L1332.3385999999998,848.942749824 L1345.8270999999997,845.439486216 L1359.3156,841.130736888 L1372.8040999999998,836.07397068 L1386.2926,830.3284388879999 L1399.7811,823.954560624 L1413.2695999999999,817.01367696 L1426.7580999999998,809.56915728 L1440.2465999999997,801.68332608 L1453.7350999999999,793.4213351999999 L1467.2235999999998,784.8501804 L1480.7121,776.03501352 L1494.2006,767.0440596 L1507.6890999999998,757.94615832 L1521.1776,748.8107640000001 L1534.6661,739.70548704 L1548.1545999999998,730.70101104 L1561.6430999999998,721.86617568 L1575.1315999999997,713.26859136 L1588.6200999999999,704.97709776 L1602.1085999999998,697.05623208 L1615.5970999999997,689.5717608 L1629.0855999999999,682.58453328 L1642.5740999999998,676.1541695999999 L1656.0626,670.336602 L1669.5511,665.1834602399999 L1683.0395999999998,660.7420715999999 L1696.5280999999998,657.05484624 L1710.0165999999997,654.1592772 L1723.5050999999999,652.08548184 L1736.9935999999998,650.85743112 L1750.4821,650.49356424 L1763.9705999999999,651.00187152 L1777.4590999999998,652.3860408 L1790.9476,654.6393110399999 L1804.4361,657.74816016 L1817.9245999999998,661.68984648 L1831.4130999999998,666.4348672799999 L1844.9015999999997,671.94511488 L1858.3900999999998,678.17572056 L1871.8785999999998,685.0738252799999 L1885.3670999999997,692.57980896 L1898.8555999999999,700.62974904 L1912.3440999999998,709.15234728 L1925.8326,718.07446152 L1939.3211,727.31618856 L1952.8095999999998,736.79823984 L1966.2980999999997,746.43702432 L1979.7865999999997,756.1495656 L1993.2750999999998,765.85288728 L2006.7635999999998,775.46401296 L2020.2521,784.90365408 L2033.7405999999999,794.094366 L2047.2290999999998,802.96116264 L2060.7176,811.43458968 L2074.2061,819.450663096 L2087.6946,826.949762808 L2101.1830999999997,833.879275632 L2114.6716,840.193533816 L2128.1601,845.854737 L2141.6486,850.8340585679999 L2155.1371,855.1129363919999 L2168.6256,858.684486504 L2182.1141,861.5552240879999 L2195.6026,863.746108368 L2209.0911,865.2914977199999 "/>
                        </g>
                    </g>
                </g>
                <g id="PlotDataItem_7">
                    <g fill="none" stroke="black" stroke-width="1" fill-rule="evenodd" stroke-linecap="square" stroke-linejoin="bevel" id="PlotCurveItem_7">
                        <g fill="none" stroke="#00d915" stroke-opacity="1" stroke-width="1" stroke-linecap="square" stroke-linejoin="bevel" font-family="MS Shell Dlg 2" font-size="13" font-weight="400" font-style="normal">
                            <path vector-effect="non-scaling-stroke" fill-rule="evenodd" d="M77.9081,859.937798928 L91.3966,862.9693877999999 L104.8851,856.998959232 L118.37360000000001,841.568729352 L131.8621,824.710567824 L145.3506,813.58890288 L158.83909999999997,809.40996552 L172.32760000000002,810.16781664 L185.8161,813.3602568 L199.3046,817.0696092 L212.7931,820.082697408 L226.2816,821.714751 L239.77009999999999,821.625443808 L253.25859999999997,819.687606816 L266.7471,815.91347136 L280.2356,810.4216629599999 L293.7241,803.42091336 L307.21259999999995,795.20809368 L320.7011,786.1544464799999 L334.1896,776.69943936 L347.6781,767.33355504 L361.1666,758.57247648 L374.65509999999995,750.9281988 L388.1436,744.87460944 L401.6321,740.80569264 L415.12059999999997,739.0017242399999 L428.6091,739.59915432 L442.09759999999994,742.57892904 L455.5861,747.7628028 L469.0746,754.83546528 L482.56309999999996,763.37281488 L496.0516,772.8794517599999 L509.54009999999994,782.83231728 L523.0286,792.7157284799999 L536.5171,802.0570272 L550.0056,810.44563392 L563.4941,817.551671352 L576.9826,823.130205456 L590.4711,827.0206307999999 L603.9595999999999,829.1350538639999 L617.4480999999998,829.441636296 L630.9366,827.948245488 L644.4250999999999,824.69206716 L657.9136000000001,819.736409232 L671.4021,813.1697184 L684.8906,805.10318304 L698.3790999999999,795.66845904 L711.8676,785.01428928 L725.3561,773.30170944 L738.8445999999999,760.704048 L752.3330999999998,747.40385304 L765.8216,733.59412152 L779.3100999999999,719.4739968 L792.7986000000001,705.2499979199999 L806.2871,691.13417568 L819.7755999999999,677.34288336 L833.2640999999999,664.09308888 L846.7526,651.5993016 L860.2411,640.0723430400001 L873.7295999999999,629.71565904 L887.2180999999998,620.71917336 L900.7066,613.25559984 L914.1950999999999,607.47675456 L927.6836000000001,603.509868 L941.1721,601.450824 L954.6605999999999,601.36354512 L968.1490999999999,603.27384624 L981.6376,607.17066384 L995.1261,613.0029827999999 L1008.6145999999999,620.67922176 L1022.1030999999998,630.07092096 L1035.5916,641.01581544 L1049.0801,653.3172204 L1062.5686,666.75509472 L1076.0571,681.08542632 L1089.5456,696.0512956800001 L1103.0340999999999,711.38656368 L1116.5225999999998,726.8226326399999 L1130.0111,742.0939780799999 L1143.4995999999999,756.9461390399999 L1156.9880999999998,771.13694736 L1170.4765999999997,784.44574728 L1183.9651,796.6727807999999 L1197.4535999999998,807.64533408 L1210.9421,817.2200116079999 L1224.4306,825.2858094 L1237.9190999999998,831.767311128 L1251.4076,836.624872512 L1264.8961,839.852593008 L1278.3845999999999,841.470141096 L1291.8730999999998,841.512243936 L1305.3615999999997,840.020143872 L1318.8500999999999,837.03895548 L1332.3385999999998,832.62092316 L1345.8270999999997,826.827572376 L1359.3156,819.7303242959999 L1372.8040999999998,811.4087748 L1386.2926,801.94885056 L1399.7811,791.44157976 L1413.2695999999999,779.9822316 L1426.7580999999998,767.6679192 L1440.2465999999997,754.60128744 L1453.7350999999999,740.88559584 L1467.2235999999998,726.62902104 L1480.7121,711.93973968 L1494.2006,696.92961624 L1507.6890999999998,681.71112984 L1521.1776,666.39921816 L1534.6661,651.10881888 L1548.1545999999998,635.95548432 L1561.6430999999998,621.0547667999999 L1575.1315999999997,606.521604 L1588.6200999999999,592.46908968 L1602.1085999999998,579.00847368 L1615.5970999999997,566.2485472799999 L1629.0855999999999,554.29441392 L1642.5740999999998,543.24625992 L1656.0626,533.19996912 L1669.5511,524.2434350399999 L1683.0395999999998,516.4584047999999 L1696.5280999999998,509.9186352 L1710.0165999999997,504.68866343999997 L1723.5050999999999,500.82196319999997 L1736.9935999999998,498.36278856 L1750.4821,497.34248615999996 L1763.9705999999999,497.78010984 L1777.4590999999998,499.68303528 L1790.9476,503.04450144 L1804.4361,507.8442252 L1817.9245999999998,514.04778672 L1831.4130999999998,521.6090879999999 L1844.9015999999997,530.46727968 L1858.3900999999998,540.5486049599999 L1871.8785999999998,551.7682435199999 L1885.3670999999997,564.0303115199999 L1898.8555999999999,577.22724696 L1912.3440999999998,591.24411216 L1925.8326,605.95736448 L1939.3211,621.23792952 L1952.8095999999998,636.95120112 L1966.2980999999997,652.95949992 L1979.7865999999997,669.12330264 L1993.2750999999998,685.30370064 L2006.7635999999998,701.3623999199999 L2020.2521,717.16356504 L2033.7405999999999,732.57627768 L2047.2290999999998,747.47515128 L2060.7176,761.74033104 L2074.2061,775.26056712 L2087.6946,787.9326 L2101.1830999999997,799.6642336799999 L2114.6716,810.3731064 L2128.1601,819.987796992 L2141.6486,828.451021008 L2155.1371,835.719692184 L2168.6256,841.767012216 L2182.1141,846.584683464 L2195.6026,850.18364652 L2209.0911,852.592605072 "/>
                        </g>
                    </g>
                </g>
                <g id="PlotDataItem_8">
                    <g fill="none" stroke="black" stroke-width="1" fill-rule="evenodd" stroke-linecap="square" stroke-linejoin="bevel" id="PlotCurveItem_8">
                        <g fill="none" stroke="#00e65c" stroke-opacity="1" stroke-width="1" stroke-linecap="square" stroke-linejoin="bevel" font-family="MS Shell Dlg 2" font-size="13" font-weight="400" font-style="normal">
                            <path vector-effect="non-scaling-stroke" fill-rule="evenodd" d="M77.9081,856.752365664 L91.3966,860.186666664 L104.8851,853.010867592 L118.37360000000001,834.590905824 L131.8621,814.42419864 L145.3506,801.05577864 L158.83909999999997,795.95119344 L172.32760000000002,796.73854728 L185.8161,800.43929472 L199.3046,804.76513104 L212.7931,808.25935944 L226.2816,810.09713304 L239.77009999999999,809.86234056 L253.25859999999997,807.3939463199999 L266.7471,802.69871136 L280.2356,795.91247112 L293.7241,787.28354016 L307.21259999999995,777.16779504 L320.7011,766.01515224 L334.1896,754.36034856 L347.6781,742.80019944 L361.1666,731.9665548 L374.65509999999995,722.48757672 L388.1436,714.94594392 L401.6321,709.82660736 L415.12059999999997,707.47806792 L428.6091,708.07303944 L442.09759999999994,711.59000952 L455.5861,717.81815664 L469.0746,726.3733308 L482.56309999999996,736.7373904799999 L496.0516,748.30614456 L509.54009999999994,760.4366795999999 L523.0286,772.4959163999999 L536.5171,783.89994696 L550.0056,794.140464 L563.4941,802.80627336 L576.9826,809.5894404 L590.4711,814.28344608 L603.9595999999999,816.76905024 L617.4480999999998,816.99708168 L630.9366,814.96508184 L644.4250999999999,810.70931448 L657.9136000000001,804.29984856 L671.4021,795.8399436 L684.8906,785.46297648 L698.3790999999999,773.33244144 L711.8676,759.63211584 L725.3561,744.56606016 L738.8445999999999,728.35308624 L752.3330999999998,711.2255279999999 L765.8216,693.4292414399999 L779.3100999999999,675.21930216 L792.7986000000001,656.86123464 L806.2871,638.6273244 L819.7755999999999,620.79477408 L833.2640999999999,603.64324488 L846.7526,587.44993944 L860.2411,572.48837256 L873.7295999999999,559.0191516 L887.2180999999998,547.2893618400001 L900.7066,537.52273224 L914.1950999999999,529.91779152 L927.6836000000001,524.63864856 L941.1721,521.81314848 L954.6605999999999,521.52365304 L968.1490999999999,523.8082699199999 L981.6376,528.65409168 L995.1261,535.9971957600001 L1008.6145999999999,545.72325912 L1022.1030999999998,557.6700168 L1035.5916,571.62787656 L1049.0801,587.3479092 L1062.5686,604.54615104 L1076.0571,622.9109796 L1089.5456,642.11171856 L1103.0340999999999,661.80416952 L1116.5225999999998,681.64413408 L1130.0111,701.28802848 L1143.4995999999999,720.40702032 L1156.9880999999998,738.6876432 L1170.4765999999997,755.84163096 L1183.9651,771.60960552 L1197.4535999999998,785.76415008 L1210.9421,798.11472624 L1224.4306,808.5119764799999 L1237.9190999999998,816.85018272 L1251.4076,823.067635104 L1264.8961,827.14417344 L1278.3845999999999,829.0912914959999 L1291.8730999999998,828.938676384 L1305.3615999999997,826.724251392 L1318.8500999999999,822.492454992 L1332.3385999999998,816.29885064 L1345.8270999999997,808.21572 L1359.3156,798.32985024 L1372.8040999999998,786.7438862399999 L1386.2926,773.56969248 L1399.7811,758.9289676799999 L1413.2695999999999,742.9501716 L1426.7580999999998,725.76729576 L1440.2465999999997,707.5192488 L1453.7350999999999,688.34985648 L1467.2235999999998,668.40786168 L1480.7121,647.84446584 L1494.2006,626.81455824 L1507.6890999999998,605.47610136 L1521.1776,583.98828696 L1534.6661,562.51215072 L1548.1545999999998,541.2099576 L1561.6430999999998,520.24397256 L1575.1315999999997,499.774002 L1588.6200999999999,479.9610816 L1602.1085999999998,460.96010064 L1615.5970999999997,442.92533375999994 L1629.0855999999999,426.00429455999995 L1642.5740999999998,410.33835023999995 L1656.0626,396.0627216 L1669.5511,383.30279520000005 L1683.0395999999998,372.174738 L1696.5280999999998,362.78242416 L1710.0165999999997,355.21743504000005 L1723.5050999999999,349.55844456 L1736.9935999999998,345.86753135999993 L1750.4821,344.19140808 L1763.9705999999999,344.55834816000004 L1777.4590999999998,346.98064439999996 L1790.9476,351.44969184 L1804.4361,357.94029023999997 L1817.9245999999998,366.4063416 L1831.4130999999998,376.78330872 L1844.9015999999997,388.98882984000005 L1858.3900999999998,402.92148935999995 L1871.8785999999998,418.4632763999999 L1885.3670999999997,435.48019944 L1898.8555999999999,453.82474487999997 L1912.3440999999998,473.33526240000003 L1925.8326,493.84088208 L1939.3211,515.1596704799999 L1952.8095999999998,537.1041624 L1966.2980999999997,559.48197552 L1979.7865999999997,582.09765432 L1993.2750999999998,604.7551286400001 L2006.7635999999998,627.2607868800001 L2020.2521,649.423476 L2033.7405999999999,671.058804 L2047.2290999999998,691.98913992 L2060.7176,712.04545776 L2074.2061,731.0697950399999 L2087.6946,748.91586744 L2101.1830999999997,765.44968344 L2114.6716,780.55261752 L2128.1601,794.12079552 L2141.6486,806.06816784 L2155.1371,816.32650944 L2168.6256,824.849537928 L2182.1141,831.61414284 L2195.6026,836.621246136 L2209.0911,839.8937738879999 "/>
                        </g>
                    </g>
                </g>
                <g id="PlotDataItem_9">
                    <g fill="none" stroke="black" stroke-width="1" fill-rule="evenodd" stroke-linecap="square" stroke-linejoin="bevel" id="PlotCurveItem_9">
                        <g fill="none" stroke="#00f3aa" stroke-opacity="1" stroke-width="1" stroke-linecap="square" stroke-linejoin="bevel" font-family="MS Shell Dlg 2" font-size="13" font-weight="400" font-style="normal">
                            <path vector-effect="non-scaling-stroke" fill-rule="evenodd" d="M77.9081,853.5669324 L91.3966,857.403884064 L104.8851,849.022775952 L118.37360000000001,827.613082296 L131.8621,804.13819824 L145.3506,788.52203976 L158.83909999999997,782.49180672 L172.32760000000002,783.30866328 L185.8161,787.51833264 L199.3046,792.46003824 L212.7931,796.4361444 L226.2816,798.4798224 L239.77009999999999,798.09936024 L253.25859999999997,795.09991704 L266.7471,789.48333672 L280.2356,781.40266464 L293.7241,771.14616696 L307.21259999999995,759.12811104 L320.7011,745.87647264 L334.1896,732.02125776 L347.6781,718.26745848 L361.1666,705.36063312 L374.65509999999995,694.0475692800001 L388.1436,685.01666376 L401.6321,678.84752208 L415.12059999999997,675.9550262399999 L428.6091,676.54630992 L442.09759999999994,680.60170464 L455.5861,687.87412512 L469.0746,697.91119632 L482.56309999999996,710.10258072 L496.0516,723.73283736 L509.54009999999994,738.04104192 L523.0286,752.27548968 L536.5171,765.74225208 L550.0056,777.83529408 L563.4941,788.06105976 L576.9826,796.0489212 L590.4711,801.54626136 L603.9595999999999,804.40310808 L617.4480999999998,804.55185096 L630.9366,801.98204112 L644.4250999999999,796.72686912 L657.9136000000001,788.8637796 L671.4021,778.5101688 L684.8906,765.82338456 L698.3790999999999,750.99642384 L711.8676,734.25055704 L725.3561,715.83041088 L738.8445999999999,696.00212448 L752.3330999999998,675.0472029599999 L765.8216,653.26436136 L779.3100999999999,630.96460752 L792.7986000000001,608.47247136 L806.2871,586.11985848 L819.7755999999999,564.2460501600001 L833.2640999999999,543.19340088 L846.7526,523.3011919200001 L860.2411,504.90440207999995 L873.7295999999999,488.32264416 L887.2180999999998,473.85955032000004 L900.7066,461.79047928000006 L914.1950999999999,452.35882848 L927.6836000000001,445.76804376 L941.1721,442.17485832 L954.6605999999999,441.6843756 L968.1490999999999,444.3426936 L981.6376,450.13690488000003 L995.1261,458.99140872 L1008.6145999999999,470.76791112 L1022.1030999999998,485.26911263999995 L1035.5916,502.24055232 L1049.0801,521.37921264 L1062.5686,542.337822 L1076.0571,564.73714752 L1089.5456,588.1715268 L1103.0340999999999,612.22239 L1116.5225999999998,636.46563552 L1130.0111,660.48269352 L1143.4995999999999,683.8679016 L1156.9880999999998,706.23833904 L1170.4765999999997,727.23751464 L1183.9651,746.54643024 L1197.4535999999998,763.88235144 L1210.9421,779.00925648 L1224.4306,791.73845088 L1237.9190999999998,801.93286992 L1251.4076,809.5101518399999 L1264.8961,814.4358768 L1278.3845999999999,816.71250336 L1291.8730999999998,816.36523176 L1305.3615999999997,813.42848184 L1318.8500999999999,807.94589304 L1332.3385999999998,799.97708544 L1345.8270999999997,789.60380616 L1359.3156,776.92931472 L1372.8040999999998,762.07838304 L1386.2926,745.1905343999999 L1399.7811,726.4163556 L1413.2695999999999,705.91872624 L1426.7580999999998,683.86667232 L1440.2465999999997,660.43721016 L1453.7350999999999,635.81411712 L1467.2235999999998,610.18670232 L1480.7121,583.749192 L1494.2006,556.69950024 L1507.6890999999998,529.24045824 L1521.1776,501.57674112 L1534.6661,473.91548256 L1548.1545999999998,446.46443087999995 L1561.6430999999998,419.43256368 L1575.1315999999997,393.02701464 L1588.6200999999999,367.45245888000005 L1602.1085999999998,342.91234223999993 L1615.5970999999997,319.60212024 L1629.0855999999999,297.71356056 L1642.5740999999998,277.43044055999997 L1656.0626,258.9242448 L1669.5511,242.35969679999994 L1683.0395999999998,227.89107119999994 L1696.5280999999998,215.64744240000005 L1710.0165999999997,205.745592 L1723.5050999999999,198.29615519999993 L1736.9935999999998,193.37288879999994 L1750.4821,191.03725680000002 L1763.9705999999999,191.3384304 L1777.4590999999998,194.27640959999997 L1790.9476,199.85734079999997 L1804.4361,208.0381992 L1817.9245999999998,218.7636672 L1831.4130999999998,231.95998799999995 L1844.9015999999997,247.51038000000005 L1858.3900999999998,265.29375912 L1871.8785999999998,285.15769464000005 L1885.3670999999997,306.93008736 L1898.8555999999999,330.42224279999994 L1912.3440999999998,355.42702727999995 L1925.8326,381.72439968 L1939.3211,409.08141144 L1952.8095999999998,437.25773831999993 L1966.2980999999997,466.00445112 L1979.7865999999997,495.07139136 L1993.2750999999998,524.2065566399999 L2006.7635999999998,553.1585591999999 L2020.2521,581.68338696 L2033.7405999999999,609.54133032 L2047.2290999999998,636.50312856 L2060.7176,662.35119912 L2074.2061,686.8796376 L2087.6946,709.89913488 L2101.1830999999997,731.2351332000001 L2114.6716,750.73212864 L2128.1601,768.25367112 L2141.6486,783.68482296 L2155.1371,796.9333881599999 L2168.6256,807.93237096 L2182.1141,816.64366368 L2195.6026,823.058784288 L2209.0911,827.194942704 "/>
                        </g>
                    </g>
                </g>
                <g id="PlotDataItem_10">
                    <g fill="none" stroke="black" stroke-width="1" fill-rule="evenodd" stroke-linecap="square" stroke-linejoin="bevel" id="PlotCurveItem_10">
                        <g fill="none" stroke="#00ffff" stroke-opacity="1" stroke-width="1" stroke-linecap="square" stroke-linejoin="bevel" font-family="MS Shell Dlg 2" font-size="13" font-weight="400" font-style="normal">
                            <path vector-effect="non-scaling-stroke" fill-rule="evenodd" d="M77.9081,850.3815606 L91.3966,854.621162928 L104.8851,845.034745776 L118.37360000000001,820.635258768 L131.8621,793.85219784 L145.3506,775.98830088 L158.83909999999997,769.03242 L172.32760000000002,769.87877928 L185.8161,774.5979852 L199.3046,780.15556008 L212.7931,784.613544 L226.2816,786.86251176 L239.77009999999999,786.33637992 L253.25859999999997,782.8065024 L266.7471,776.26796208 L280.2356,766.8934728 L293.7241,755.00879376 L307.21259999999995,741.0878124 L320.7011,725.73779304 L334.1896,709.68216696 L347.6781,693.73410288 L361.1666,678.75532608 L374.65509999999995,665.6069471999999 L388.1436,655.0879982399999 L401.6321,647.8684368 L415.12059999999997,644.43136992 L428.6091,645.0195804 L442.09759999999994,649.61339976 L455.5861,657.92947896 L469.0746,669.44906184 L482.56309999999996,683.46777096 L496.0516,699.15953016 L509.54009999999994,715.6454042400001 L523.0286,732.0556776 L536.5171,747.5845572000001 L550.0056,761.52950952 L563.4941,773.31584616 L576.9826,782.5084019999999 L590.4711,788.80907664 L603.9595999999999,792.03778056 L617.4480999999998,792.10723488 L630.9366,788.99838576 L644.4250999999999,782.74442376 L657.9136000000001,773.427096 L671.4021,761.180394 L684.8906,746.18379264 L698.3790999999999,728.6604062399999 L711.8676,708.86899824 L725.3561,687.09537624 L738.8445999999999,663.65116272 L752.3330999999998,638.8688779199999 L765.8216,613.09886664 L779.3100999999999,586.70991288 L792.7986000000001,560.08370808 L806.2871,533.61239256 L819.7755999999999,507.69732624 L833.2640999999999,482.74355687999997 L846.7526,459.1524444 L860.2411,437.31981696 L873.7295999999999,417.62613672000003 L887.2180999999998,400.4297388 L900.7066,386.05761168000004 L914.1950999999999,374.79986543999996 L927.6836000000001,366.89682432 L941.1721,362.5371828 L954.6605999999999,361.84448352000004 L968.1490999999999,364.87711728 L981.6376,371.62033272 L995.1261,381.98562168 L1008.6145999999999,395.81256312 L1022.1030999999998,412.86820848 L1035.5916,432.85322807999995 L1049.0801,455.40990144000006 L1062.5686,480.12949296000005 L1076.0571,506.5627008 L1089.5456,534.23133504 L1103.0340999999999,562.63999584 L1116.5225999999998,591.28713696 L1130.0111,619.6773585599999 L1143.4995999999999,647.3293975199999 L1156.9880999999998,673.7884202399999 L1170.4765999999997,698.63339832 L1183.9651,721.48264032 L1197.4535999999998,742.0005527999999 L1210.9421,759.90378672 L1224.4306,774.96431064 L1237.9190999999998,787.01617176 L1251.4076,795.9530373599999 L1264.8961,801.72758016 L1278.3845999999999,804.33365376 L1291.8730999999998,803.79154128 L1305.3615999999997,800.13258936 L1318.8500999999999,793.39920816 L1332.3385999999998,783.65532024 L1345.8270999999997,770.99189232 L1359.3156,755.5287792 L1372.8040999999998,737.41349448 L1386.2926,716.81076168 L1399.7811,693.90374352 L1413.2695999999999,668.88666624 L1426.7580999999998,641.96543424 L1440.2465999999997,613.35517152 L1453.7350999999999,583.27837776 L1467.2235999999998,551.9661576000001 L1480.7121,519.65391816 L1494.2006,486.58505687999997 L1507.6890999999998,453.00542975999997 L1521.1776,419.16580991999996 L1534.6661,385.31881439999995 L1548.1545999999998,351.71890415999997 L1561.6430999999998,318.62176944 L1575.1315999999997,286.27941264000003 L1588.6200999999999,254.94752399999993 L1602.1085999999998,224.86089600000003 L1615.5970999999997,196.28013599999997 L1629.0855999999999,169.42651439999997 L1642.5740999999998,144.52130160000002 L1656.0626,121.78576800000008 L1669.5511,101.42274480000003 L1683.0395999999998,83.60433119999993 L1696.5280999999998,68.50877279999997 L1710.0165999999997,56.27743679999992 L1723.5050999999999,47.033251199999995 L1736.9935999999998,40.88070479999999 L1750.4821,37.88740800000005 L1763.9705999999999,38.114824800000065 L1777.4590999999998,41.57524799999999 L1790.9476,48.2625311999999 L1804.4361,58.13364960000001 L1817.9245999999998,71.12099280000007 L1831.4130999999998,87.1323648 L1844.9015999999997,106.03254479999998 L1858.3900999999998,127.66787279999994 L1871.8785999999998,151.8539568 L1885.3670999999997,178.3818192 L1898.8555999999999,207.01789680000002 L1912.3440999999998,237.51633359999994 L1925.8326,269.60730264000006 L1939.3211,303.0031524 L1952.8095999999998,337.41069959999993 L1966.2980999999997,372.52692672 L1979.7865999999997,408.04574304 L1993.2750999999998,443.65736999999996 L2006.7635999999998,479.05694616 L2020.2521,513.9432979200001 L2033.7405999999999,548.02385664 L2047.2290999999998,581.01773184 L2060.7176,612.6563258399999 L2074.2061,642.68948016 L2087.6946,670.88178768 L2101.1830999999997,697.01996832 L2114.6716,720.91163976 L2128.1601,742.3871613599999 L2141.6486,761.30209272 L2155.1371,777.53965224 L2168.6256,791.01440496 L2182.1141,801.6728772 L2195.6026,809.49662976 L2209.0911,814.49611152 "/>
                        </g>
                    </g>
                </g>
                <g fill="none" stroke="black" stroke-width="1" fill-rule="evenodd" stroke-linecap="square" stroke-linejoin="bevel" id="InfiniteLine_1">
                    <g fill="none" stroke="#0000ff" stroke-opacity="1" stroke-dasharray="4,2" stroke-dashoffset="0" stroke-width="1" stroke-linecap="square" stroke-linejoin="miter" stroke-miterlimit="2" font-family="MS Shell Dlg 2" font-size="13" font-weight="400" font-style="normal">
                        <polyline fill="none" vector-effect="non-scaling-stroke" points="31.999990250000003,878.592 2254.9924655,878.592"/>
                    </g>
                </g>
            </g>
            <g fill="none" stroke="black" stroke-width="1" fill-rule="evenodd" stroke-linecap="square" stroke-linejoin="bevel" id="QGraphicsRectItem_1">
                <g fill="none" stroke="none" transform="matrix(1,0,0,1,32,1)" font-family="MS Shell Dlg 2" font-size="13" font-weight="400" font-style="normal">
                    <rect vector-effect="non-scaling-stroke" x="0" y="0" width="2223" height="1453"/>
                </g>
            </g>
        </g>
    </g>
    <g fill="none" stroke="black" stroke-width="1" fill-rule="evenodd" stroke-linecap="square" stroke-linejoin="bevel" id="AxisItem_1">
        <g fill="none" stroke="#969696" stroke-opacity="1" stroke-width="1" stroke-linecap="square" stroke-linejoin="bevel" font-family="MS Shell Dlg 2" font-size="13" font-weight="400" font-style="normal">
            <polyline fill="none" vector-effect="non-scaling-stroke" points="32.0,1454.0 2255.0,1454.0"/>
            <polyline fill="none" vector-effect="non-scaling-stroke" points="64.4196,1454.0 64.4196,1449.0"/>
        </g>
        <g fill="none" stroke="#969696" stroke-opacity="0.498039" stroke-width="1" stroke-linecap="square" stroke-linejoin="bevel" font-family="MS Shell Dlg 2" font-size="13" font-weight="400" font-style="normal">
            <polyline fill="none" vector-effect="non-scaling-stroke" points="1413.27,1454.0 1413.27,1450.66667"/>
        </g>
        <g fill="none" stroke="#969696" stroke-opacity="0.333333" stroke-width="1" stroke-linecap="square" stroke-linejoin="bevel" font-family="MS Shell Dlg 2" font-size="13" font-weight="400" font-style="normal">
            <polyline fill="none" vector-effect="non-scaling-stroke" points="334.19,1454.0 334.19,1451.5"/>
            <polyline fill="none" vector-effect="non-scaling-stroke" points="603.96,1454.0 603.96,1451.5"/>
            <polyline fill="none" vector-effect="non-scaling-stroke" points="873.73,1454.0 873.73,1451.5"/>
            <polyline fill="none" vector-effect="non-scaling-stroke" points="1143.5,1454.0 1143.5,1451.5"/>
            <polyline fill="none" vector-effect="non-scaling-stroke" points="1683.04,1454.0 1683.04,1451.5"/>
            <polyline fill="none" vector-effect="non-scaling-stroke" points="1952.81,1454.0 1952.81,1451.5"/>
            <polyline fill="none" vector-effect="non-scaling-stroke" points="2222.58,1454.0 2222.58,1451.5"/>
        </g>
        <g fill="none" stroke="#969696" stroke-opacity="1" stroke-width="1" stroke-linecap="square" stroke-linejoin="bevel" transform="matrix(1,0,0,1,32,1454)" font-family="MS Shell Dlg 2" font-size="13" font-weight="400" font-style="normal">
            <text fill="#969696" fill-opacity="1" stroke="none" xml:space="preserve" x="28.9063" y="15" font-family="&quot;MS Shell Dlg 2&quot;" font-size="13" font-weight="400" font-style="normal">0</text>
            <text fill="#969696" fill-opacity="1" stroke="none" xml:space="preserve" x="1374.27" y="15" font-family="&quot;MS Shell Dlg 2&quot;" font-size="13" font-weight="400" font-style="normal">10</text>
            <text fill="#969696" fill-opacity="1" stroke="none" xml:space="preserve" x="298.688" y="15" font-family="&quot;MS Shell Dlg 2&quot;" font-size="13" font-weight="400" font-style="normal">2</text>
            <text fill="#969696" fill-opacity="1" stroke="none" xml:space="preserve" x="568.453" y="15" font-family="&quot;MS Shell Dlg 2&quot;" font-size="13" font-weight="400" font-style="normal">4</text>
            <text fill="#969696" fill-opacity="1" stroke="none" xml:space="preserve" x="838.219" y="15" font-family="&quot;MS Shell Dlg 2&quot;" font-size="13" font-weight="400" font-style="normal">6</text>
            <text fill="#969696" fill-opacity="1" stroke="none" xml:space="preserve" x="1108" y="15" font-family="&quot;MS Shell Dlg 2&quot;" font-size="13" font-weight="400" font-style="normal">8</text>
            <text fill="#969696" fill-opacity="1" stroke="none" xml:space="preserve" x="1644.03" y="15" font-family="&quot;MS Shell Dlg 2&quot;" font-size="13" font-weight="400" font-style="normal">12</text>
            <text fill="#969696" fill-opacity="1" stroke="none" xml:space="preserve" x="1913.8" y="15" font-family="&quot;MS Shell Dlg 2&quot;" font-size="13" font-weight="400" font-style="normal">14</text>
            <text fill="#969696" fill-opacity="1" stroke="none" xml:space="preserve" x="2183.58" y="15" font-family="&quot;MS Shell Dlg 2&quot;" font-size="13" font-weight="400" font-style="normal">16</text>
        </g>
    </g>
    <g fill="none" stroke="black" stroke-width="1" fill-rule="evenodd" stroke-linecap="square" stroke-linejoin="bevel" id="AxisItem_2">
        <g fill="none" stroke="#969696" stroke-opacity="1" stroke-width="1" stroke-linecap="square" stroke-linejoin="bevel" font-family="MS Shell Dlg 2" font-size="13" font-weight="400" font-style="normal">
            <polyline fill="none" vector-effect="non-scaling-stroke" points="32.0,1.0 32.0,1454.0"/>
            <polyline fill="none" vector-effect="non-scaling-stroke" points="32.0,878.592 37.0,878.592"/>
        </g>
        <g fill="none" stroke="#969696" stroke-opacity="0.498039" stroke-width="1" stroke-linecap="square" stroke-linejoin="bevel" font-family="MS Shell Dlg 2" font-size="13" font-weight="400" font-style="normal">
            <polyline fill="none" vector-effect="non-scaling-stroke" points="32.0,263.952 35.3333,263.952"/>
        </g>
        <g fill="none" stroke="#969696" stroke-opacity="0.333333" stroke-width="1" stroke-linecap="square" stroke-linejoin="bevel" font-family="MS Shell Dlg 2" font-size="13" font-weight="400" font-style="normal">
            <polyline fill="none" vector-effect="non-scaling-stroke" points="32.0,1370.3 34.5,1370.3"/>
            <polyline fill="none" vector-effect="non-scaling-stroke" points="32.0,1247.38 34.5,1247.38"/>
            <polyline fill="none" vector-effect="non-scaling-stroke" points="32.0,1124.45 34.5,1124.45"/>
            <polyline fill="none" vector-effect="non-scaling-stroke" points="32.0,1001.52 34.5,1001.52"/>
            <polyline fill="none" vector-effect="non-scaling-stroke" points="32.0,755.664 34.5,755.664"/>
            <polyline fill="none" vector-effect="non-scaling-stroke" points="32.0,632.736 34.5,632.736"/>
            <polyline fill="none" vector-effect="non-scaling-stroke" points="32.0,509.808 34.5,509.808"/>
            <polyline fill="none" vector-effect="non-scaling-stroke" points="32.0,386.88 34.5,386.88"/>
            <polyline fill="none" vector-effect="non-scaling-stroke" points="32.0,141.024 34.5,141.024"/>
            <polyline fill="none" vector-effect="non-scaling-stroke" points="32.0,18.0961 34.5,18.0961"/>
        </g>
        <g fill="none" stroke="#969696" stroke-opacity="1" stroke-width="1" stroke-linecap="square" stroke-linejoin="bevel" transform="matrix(1,0,0,1,1,1)" font-family="MS Shell Dlg 2" font-size="13" font-weight="400" font-style="normal">
            <text fill="#969696" fill-opacity="1" stroke="none" xml:space="preserve" x="19" y="882.578" font-family="&quot;MS Shell Dlg 2&quot;" font-size="13" font-weight="400" font-style="normal">0</text>
            <text fill="#969696" fill-opacity="1" stroke="none" xml:space="preserve" x="5" y="267.938" font-family="&quot;MS Shell Dlg 2&quot;" font-size="13" font-weight="400" font-style="normal">100</text>
            <text fill="#969696" fill-opacity="1" stroke="none" xml:space="preserve" x="7" y="1374.3" font-family="&quot;MS Shell Dlg 2&quot;" font-size="13" font-weight="400" font-style="normal">-80</text>
            <text fill="#969696" fill-opacity="1" stroke="none" xml:space="preserve" x="7" y="1251.38" font-family="&quot;MS Shell Dlg 2&quot;" font-size="13" font-weight="400" font-style="normal">-60</text>
            <text fill="#969696" fill-opacity="1" stroke="none" xml:space="preserve" x="7" y="1128.44" font-family="&quot;MS Shell Dlg 2&quot;" font-size="13" font-weight="400" font-style="normal">-40</text>
            <text fill="#969696" fill-opacity="1" stroke="none" xml:space="preserve" x="7" y="1005.52" font-family="&quot;MS Shell Dlg 2&quot;" font-size="13" font-weight="400" font-style="normal">-20</text>
            <text fill="#969696" fill-opacity="1" stroke="none" xml:space="preserve" x="12" y="759.656" font-family="&quot;MS Shell Dlg 2&quot;" font-size="13" font-weight="400" font-style="normal">20</text>
            <text fill="#969696" fill-opacity="1" stroke="none" xml:space="preserve" x="12" y="636.734" font-family="&quot;MS Shell Dlg 2&quot;" font-size="13" font-weight="400" font-style="normal">40</text>
            <text fill="#969696" fill-opacity="1" stroke="none" xml:space="preserve" x="12" y="513.797" font-family="&quot;MS Shell Dlg 2&quot;" font-size="13" font-weight="400" font-style="normal">60</text>
            <text fill="#969696" fill-opacity="1" stroke="none" xml:space="preserve" x="12" y="390.875" font-family="&quot;MS Shell Dlg 2&quot;" font-size="13" font-weight="400" font-style="normal">80</text>
            <text fill="#969696" fill-opacity="1" stroke="none" xml:space="preserve" x="5" y="145.016" font-family="&quot;MS Shell Dlg 2&quot;" font-size="13" font-weight="400" font-style="normal">120</text>
            <text fill="#969696" fill-opacity="1" stroke="none" xml:space="preserve" x="5" y="22.0938" font-family="&quot;MS Shell Dlg 2&quot;" font-size="13" font-weight="400" font-style="normal">140</text>
        </g>
    </g>
</g>

</svg>
