<?xml version="1.0" encoding="utf-8" standalone="no"?>
<!DOCTYPE svg PUBLIC "-//W3C//DTD SVG 1.1//EN"
  "http://www.w3.org/Graphics/SVG/1.1/DTD/svg11.dtd">
<svg xmlns:xlink="http://www.w3.org/1999/xlink" width="432pt" height="288pt" viewBox="0 0 432 288" xmlns="http://www.w3.org/2000/svg" version="1.1">
 <metadata>
  <rdf:RDF xmlns:dc="http://purl.org/dc/elements/1.1/" xmlns:cc="http://creativecommons.org/ns#" xmlns:rdf="http://www.w3.org/1999/02/22-rdf-syntax-ns#">
   <cc:Work>
    <dc:type rdf:resource="http://purl.org/dc/dcmitype/StillImage"/>
    <dc:date>2023-03-19T12:33:53.957126</dc:date>
    <dc:format>image/svg+xml</dc:format>
    <dc:creator>
     <cc:Agent>
      <dc:title>Matplotlib v3.6.2, https://matplotlib.org/</dc:title>
     </cc:Agent>
    </dc:creator>
   </cc:Work>
  </rdf:RDF>
 </metadata>
 <defs>
  <style type="text/css">*{stroke-linejoin: round; stroke-linecap: butt}</style>
 </defs>
 <g id="figure_1">
  <g id="patch_1">
   <path d="M 0 288 
L 432 288 
L 432 0 
L 0 0 
z
" style="fill: #ffffff"/>
  </g>
  <g id="axes_1">
   <g id="patch_2">
    <path d="M 54 252 
L 388.8 252 
L 388.8 34.56 
L 54 34.56 
z
" style="fill: #ffffff"/>
   </g>
   <g id="matplotlib.axis_1">
    <g id="xtick_1">
     <g id="line2d_1">
      <defs>
       <path id="m1278414cc3" d="M 0 0 
L 0 3.5 
" style="stroke: #000000; stroke-width: 0.8"/>
      </defs>
      <g>
       <use xlink:href="#m1278414cc3" x="69.218182" y="252" style="stroke: #000000; stroke-width: 0.8"/>
      </g>
     </g>
     <g id="text_1">
      <!-- 0 -->
      <g transform="translate(66.036932 266.598437) scale(0.1 -0.1)">
       <defs>
        <path id="DejaVuSans-30" d="M 2034 4250 
Q 1547 4250 1301 3770 
Q 1056 3291 1056 2328 
Q 1056 1369 1301 889 
Q 1547 409 2034 409 
Q 2525 409 2770 889 
Q 3016 1369 3016 2328 
Q 3016 3291 2770 3770 
Q 2525 4250 2034 4250 
z
M 2034 4750 
Q 2819 4750 3233 4129 
Q 3647 3509 3647 2328 
Q 3647 1150 3233 529 
Q 2819 -91 2034 -91 
Q 1250 -91 836 529 
Q 422 1150 422 2328 
Q 422 3509 836 4129 
Q 1250 4750 2034 4750 
z
" transform="scale(0.015625)"/>
       </defs>
       <use xlink:href="#DejaVuSans-30"/>
      </g>
     </g>
    </g>
    <g id="xtick_2">
     <g id="line2d_2">
      <g>
       <use xlink:href="#m1278414cc3" x="130.092127" y="252" style="stroke: #000000; stroke-width: 0.8"/>
      </g>
     </g>
     <g id="text_2">
      <!-- 1 -->
      <g transform="translate(126.910877 266.598437) scale(0.1 -0.1)">
       <defs>
        <path id="DejaVuSans-31" d="M 794 531 
L 1825 531 
L 1825 4091 
L 703 3866 
L 703 4441 
L 1819 4666 
L 2450 4666 
L 2450 531 
L 3481 531 
L 3481 0 
L 794 0 
L 794 531 
z
" transform="scale(0.015625)"/>
       </defs>
       <use xlink:href="#DejaVuSans-31"/>
      </g>
     </g>
    </g>
    <g id="xtick_3">
     <g id="line2d_3">
      <g>
       <use xlink:href="#m1278414cc3" x="190.966071" y="252" style="stroke: #000000; stroke-width: 0.8"/>
      </g>
     </g>
     <g id="text_3">
      <!-- 2 -->
      <g transform="translate(187.784821 266.598437) scale(0.1 -0.1)">
       <defs>
        <path id="DejaVuSans-32" d="M 1228 531 
L 3431 531 
L 3431 0 
L 469 0 
L 469 531 
Q 828 903 1448 1529 
Q 2069 2156 2228 2338 
Q 2531 2678 2651 2914 
Q 2772 3150 2772 3378 
Q 2772 3750 2511 3984 
Q 2250 4219 1831 4219 
Q 1534 4219 1204 4116 
Q 875 4013 500 3803 
L 500 4441 
Q 881 4594 1212 4672 
Q 1544 4750 1819 4750 
Q 2544 4750 2975 4387 
Q 3406 4025 3406 3419 
Q 3406 3131 3298 2873 
Q 3191 2616 2906 2266 
Q 2828 2175 2409 1742 
Q 1991 1309 1228 531 
z
" transform="scale(0.015625)"/>
       </defs>
       <use xlink:href="#DejaVuSans-32"/>
      </g>
     </g>
    </g>
    <g id="xtick_4">
     <g id="line2d_4">
      <g>
       <use xlink:href="#m1278414cc3" x="251.840016" y="252" style="stroke: #000000; stroke-width: 0.8"/>
      </g>
     </g>
     <g id="text_4">
      <!-- 3 -->
      <g transform="translate(248.658766 266.598437) scale(0.1 -0.1)">
       <defs>
        <path id="DejaVuSans-33" d="M 2597 2516 
Q 3050 2419 3304 2112 
Q 3559 1806 3559 1356 
Q 3559 666 3084 287 
Q 2609 -91 1734 -91 
Q 1441 -91 1130 -33 
Q 819 25 488 141 
L 488 750 
Q 750 597 1062 519 
Q 1375 441 1716 441 
Q 2309 441 2620 675 
Q 2931 909 2931 1356 
Q 2931 1769 2642 2001 
Q 2353 2234 1838 2234 
L 1294 2234 
L 1294 2753 
L 1863 2753 
Q 2328 2753 2575 2939 
Q 2822 3125 2822 3475 
Q 2822 3834 2567 4026 
Q 2313 4219 1838 4219 
Q 1578 4219 1281 4162 
Q 984 4106 628 3988 
L 628 4550 
Q 988 4650 1302 4700 
Q 1616 4750 1894 4750 
Q 2613 4750 3031 4423 
Q 3450 4097 3450 3541 
Q 3450 3153 3228 2886 
Q 3006 2619 2597 2516 
z
" transform="scale(0.015625)"/>
       </defs>
       <use xlink:href="#DejaVuSans-33"/>
      </g>
     </g>
    </g>
    <g id="xtick_5">
     <g id="line2d_5">
      <g>
       <use xlink:href="#m1278414cc3" x="312.713961" y="252" style="stroke: #000000; stroke-width: 0.8"/>
      </g>
     </g>
     <g id="text_5">
      <!-- 4 -->
      <g transform="translate(309.532711 266.598437) scale(0.1 -0.1)">
       <defs>
        <path id="DejaVuSans-34" d="M 2419 4116 
L 825 1625 
L 2419 1625 
L 2419 4116 
z
M 2253 4666 
L 3047 4666 
L 3047 1625 
L 3713 1625 
L 3713 1100 
L 3047 1100 
L 3047 0 
L 2419 0 
L 2419 1100 
L 313 1100 
L 313 1709 
L 2253 4666 
z
" transform="scale(0.015625)"/>
       </defs>
       <use xlink:href="#DejaVuSans-34"/>
      </g>
     </g>
    </g>
    <g id="xtick_6">
     <g id="line2d_6">
      <g>
       <use xlink:href="#m1278414cc3" x="373.587906" y="252" style="stroke: #000000; stroke-width: 0.8"/>
      </g>
     </g>
     <g id="text_6">
      <!-- 5 -->
      <g transform="translate(370.406656 266.598437) scale(0.1 -0.1)">
       <defs>
        <path id="DejaVuSans-35" d="M 691 4666 
L 3169 4666 
L 3169 4134 
L 1269 4134 
L 1269 2991 
Q 1406 3038 1543 3061 
Q 1681 3084 1819 3084 
Q 2600 3084 3056 2656 
Q 3513 2228 3513 1497 
Q 3513 744 3044 326 
Q 2575 -91 1722 -91 
Q 1428 -91 1123 -41 
Q 819 9 494 109 
L 494 744 
Q 775 591 1075 516 
Q 1375 441 1709 441 
Q 2250 441 2565 725 
Q 2881 1009 2881 1497 
Q 2881 1984 2565 2268 
Q 2250 2553 1709 2553 
Q 1456 2553 1204 2497 
Q 953 2441 691 2322 
L 691 4666 
z
" transform="scale(0.015625)"/>
       </defs>
       <use xlink:href="#DejaVuSans-35"/>
      </g>
     </g>
    </g>
   </g>
   <g id="matplotlib.axis_2">
    <g id="ytick_1">
     <g id="line2d_7">
      <defs>
       <path id="mfad67d2af2" d="M 0 0 
L -3.5 0 
" style="stroke: #000000; stroke-width: 0.8"/>
      </defs>
      <g>
       <use xlink:href="#mfad67d2af2" x="54" y="242.116364" style="stroke: #000000; stroke-width: 0.8"/>
      </g>
     </g>
     <g id="text_7">
      <!-- 0.0 -->
      <g transform="translate(31.096875 245.915582) scale(0.1 -0.1)">
       <defs>
        <path id="DejaVuSans-2e" d="M 684 794 
L 1344 794 
L 1344 0 
L 684 0 
L 684 794 
z
" transform="scale(0.015625)"/>
       </defs>
       <use xlink:href="#DejaVuSans-30"/>
       <use xlink:href="#DejaVuSans-2e" x="63.623047"/>
       <use xlink:href="#DejaVuSans-30" x="95.410156"/>
      </g>
     </g>
    </g>
    <g id="ytick_2">
     <g id="line2d_8">
      <g>
       <use xlink:href="#mfad67d2af2" x="54" y="215.465402" style="stroke: #000000; stroke-width: 0.8"/>
      </g>
     </g>
     <g id="text_8">
      <!-- 0.5 -->
      <g transform="translate(31.096875 219.264621) scale(0.1 -0.1)">
       <use xlink:href="#DejaVuSans-30"/>
       <use xlink:href="#DejaVuSans-2e" x="63.623047"/>
       <use xlink:href="#DejaVuSans-35" x="95.410156"/>
      </g>
     </g>
    </g>
    <g id="ytick_3">
     <g id="line2d_9">
      <g>
       <use xlink:href="#mfad67d2af2" x="54" y="188.814441" style="stroke: #000000; stroke-width: 0.8"/>
      </g>
     </g>
     <g id="text_9">
      <!-- 1.0 -->
      <g transform="translate(31.096875 192.61366) scale(0.1 -0.1)">
       <use xlink:href="#DejaVuSans-31"/>
       <use xlink:href="#DejaVuSans-2e" x="63.623047"/>
       <use xlink:href="#DejaVuSans-30" x="95.410156"/>
      </g>
     </g>
    </g>
    <g id="ytick_4">
     <g id="line2d_10">
      <g>
       <use xlink:href="#mfad67d2af2" x="54" y="162.16348" style="stroke: #000000; stroke-width: 0.8"/>
      </g>
     </g>
     <g id="text_10">
      <!-- 1.5 -->
      <g transform="translate(31.096875 165.962698) scale(0.1 -0.1)">
       <use xlink:href="#DejaVuSans-31"/>
       <use xlink:href="#DejaVuSans-2e" x="63.623047"/>
       <use xlink:href="#DejaVuSans-35" x="95.410156"/>
      </g>
     </g>
    </g>
    <g id="ytick_5">
     <g id="line2d_11">
      <g>
       <use xlink:href="#mfad67d2af2" x="54" y="135.512518" style="stroke: #000000; stroke-width: 0.8"/>
      </g>
     </g>
     <g id="text_11">
      <!-- 2.0 -->
      <g transform="translate(31.096875 139.311737) scale(0.1 -0.1)">
       <use xlink:href="#DejaVuSans-32"/>
       <use xlink:href="#DejaVuSans-2e" x="63.623047"/>
       <use xlink:href="#DejaVuSans-30" x="95.410156"/>
      </g>
     </g>
    </g>
    <g id="ytick_6">
     <g id="line2d_12">
      <g>
       <use xlink:href="#mfad67d2af2" x="54" y="108.861557" style="stroke: #000000; stroke-width: 0.8"/>
      </g>
     </g>
     <g id="text_12">
      <!-- 2.5 -->
      <g transform="translate(31.096875 112.660776) scale(0.1 -0.1)">
       <use xlink:href="#DejaVuSans-32"/>
       <use xlink:href="#DejaVuSans-2e" x="63.623047"/>
       <use xlink:href="#DejaVuSans-35" x="95.410156"/>
      </g>
     </g>
    </g>
    <g id="ytick_7">
     <g id="line2d_13">
      <g>
       <use xlink:href="#mfad67d2af2" x="54" y="82.210595" style="stroke: #000000; stroke-width: 0.8"/>
      </g>
     </g>
     <g id="text_13">
      <!-- 3.0 -->
      <g transform="translate(31.096875 86.009814) scale(0.1 -0.1)">
       <use xlink:href="#DejaVuSans-33"/>
       <use xlink:href="#DejaVuSans-2e" x="63.623047"/>
       <use xlink:href="#DejaVuSans-30" x="95.410156"/>
      </g>
     </g>
    </g>
    <g id="ytick_8">
     <g id="line2d_14">
      <g>
       <use xlink:href="#mfad67d2af2" x="54" y="55.559634" style="stroke: #000000; stroke-width: 0.8"/>
      </g>
     </g>
     <g id="text_14">
      <!-- 3.5 -->
      <g transform="translate(31.096875 59.358853) scale(0.1 -0.1)">
       <use xlink:href="#DejaVuSans-33"/>
       <use xlink:href="#DejaVuSans-2e" x="63.623047"/>
       <use xlink:href="#DejaVuSans-35" x="95.410156"/>
      </g>
     </g>
    </g>
    <g id="text_15">
     <!-- 1e−6 -->
     <g transform="translate(54 31.56) scale(0.1 -0.1)">
      <defs>
       <path id="DejaVuSans-65" d="M 3597 1894 
L 3597 1613 
L 953 1613 
Q 991 1019 1311 708 
Q 1631 397 2203 397 
Q 2534 397 2845 478 
Q 3156 559 3463 722 
L 3463 178 
Q 3153 47 2828 -22 
Q 2503 -91 2169 -91 
Q 1331 -91 842 396 
Q 353 884 353 1716 
Q 353 2575 817 3079 
Q 1281 3584 2069 3584 
Q 2775 3584 3186 3129 
Q 3597 2675 3597 1894 
z
M 3022 2063 
Q 3016 2534 2758 2815 
Q 2500 3097 2075 3097 
Q 1594 3097 1305 2825 
Q 1016 2553 972 2059 
L 3022 2063 
z
" transform="scale(0.015625)"/>
       <path id="DejaVuSans-2212" d="M 678 2272 
L 4684 2272 
L 4684 1741 
L 678 1741 
L 678 2272 
z
" transform="scale(0.015625)"/>
       <path id="DejaVuSans-36" d="M 2113 2584 
Q 1688 2584 1439 2293 
Q 1191 2003 1191 1497 
Q 1191 994 1439 701 
Q 1688 409 2113 409 
Q 2538 409 2786 701 
Q 3034 994 3034 1497 
Q 3034 2003 2786 2293 
Q 2538 2584 2113 2584 
z
M 3366 4563 
L 3366 3988 
Q 3128 4100 2886 4159 
Q 2644 4219 2406 4219 
Q 1781 4219 1451 3797 
Q 1122 3375 1075 2522 
Q 1259 2794 1537 2939 
Q 1816 3084 2150 3084 
Q 2853 3084 3261 2657 
Q 3669 2231 3669 1497 
Q 3669 778 3244 343 
Q 2819 -91 2113 -91 
Q 1303 -91 875 529 
Q 447 1150 447 2328 
Q 447 3434 972 4092 
Q 1497 4750 2381 4750 
Q 2619 4750 2861 4703 
Q 3103 4656 3366 4563 
z
" transform="scale(0.015625)"/>
      </defs>
      <use xlink:href="#DejaVuSans-31"/>
      <use xlink:href="#DejaVuSans-65" x="63.623047"/>
      <use xlink:href="#DejaVuSans-2212" x="125.146484"/>
      <use xlink:href="#DejaVuSans-36" x="208.935547"/>
     </g>
    </g>
   </g>
   <g id="line2d_15">
    <path d="M 69.218182 242.116364 
L 70.435661 242.116364 
L 70.441748 241.588714 
L 70.551321 241.697048 
L 71.038313 242.116245 
L 71.153973 240.77609 
L 71.951422 239.467659 
L 73.150639 236.818438 
L 75.062081 231.030917 
L 75.908228 227.758715 
L 75.914316 228.28005 
L 76.017801 227.801381 
L 77.125707 222.824753 
L 77.131795 223.536517 
L 77.23528 222.983191 
L 77.734447 220.175232 
L 77.740534 220.989419 
L 77.84402 220.400154 
L 78.349274 217.379882 
L 78.355361 218.302159 
L 78.458847 217.677287 
L 78.958013 214.521986 
L 78.9641 215.554981 
L 79.067586 214.895989 
L 79.566752 211.575157 
L 79.57284 212.722433 
L 79.676326 212.030221 
L 80.175492 208.548281 
L 80.181579 209.81306 
L 80.285065 209.08852 
L 80.784231 205.449849 
L 80.790319 206.835026 
L 80.893804 206.07904 
L 81.392971 202.287971 
L 81.399058 203.796127 
L 81.502544 203.009567 
L 82.00171 199.070386 
L 82.007798 200.7038 
L 82.111283 199.887532 
L 82.61045 195.804477 
L 82.616537 197.565142 
L 82.720023 196.720021 
L 83.219189 192.497283 
L 83.225277 194.386917 
L 83.328762 193.513788 
L 83.827929 189.155509 
L 83.834016 191.17557 
L 83.937502 190.275269 
L 84.436668 185.785542 
L 84.442755 187.937236 
L 84.546241 187.010589 
L 85.045407 182.393457 
L 85.051495 184.677755 
L 85.154981 183.725577 
L 85.654147 178.985032 
L 85.660234 181.402677 
L 85.76372 180.425774 
L 86.262886 175.565756 
L 86.268974 178.117277 
L 86.372459 177.116444 
L 86.871626 172.140842 
L 86.877713 174.826564 
L 86.981199 173.802586 
L 87.480365 168.715236 
L 87.486453 171.535289 
L 87.589938 170.488939 
L 88.089105 165.293624 
L 88.095192 168.247954 
L 88.198678 167.179996 
L 88.697844 161.880446 
L 88.703932 164.968825 
L 88.807417 163.880012 
L 89.306584 158.479902 
L 89.312671 161.701937 
L 89.416157 160.59301 
L 89.915323 155.095963 
L 89.92141 158.451104 
L 90.024896 157.322793 
L 90.524062 151.732376 
L 90.53015 155.219926 
L 90.633636 154.072951 
L 91.132802 148.392678 
L 91.138889 152.011799 
L 91.242375 150.84687 
L 91.741541 145.080198 
L 91.747629 148.829922 
L 91.851114 147.647736 
L 92.350281 141.79807 
L 92.356368 145.677303 
L 92.459854 144.478547 
L 92.95902 138.549235 
L 92.965108 142.556769 
L 93.068593 141.342118 
L 93.56776 135.336454 
L 93.573847 139.470972 
L 93.677333 138.241089 
L 94.176499 132.162313 
L 94.182587 136.422392 
L 94.286072 135.177932 
L 94.785239 129.029226 
L 94.791326 133.41335 
L 94.894812 132.154955 
L 95.393978 125.939449 
L 95.400065 130.446011 
L 95.503551 129.174312 
L 96.002718 122.89508 
L 96.008805 127.52239 
L 96.112291 126.238006 
L 96.611457 119.898069 
L 96.617544 124.644358 
L 96.72103 123.347899 
L 97.220196 116.950221 
L 97.226284 121.813649 
L 97.32977 120.505712 
L 97.828936 114.053205 
L 97.835023 119.031864 
L 97.938509 117.713036 
L 98.437675 111.208557 
L 98.443763 116.300479 
L 98.547248 114.971336 
L 99.046415 108.417689 
L 99.052502 113.620846 
L 99.155988 112.281954 
L 99.655154 105.681888 
L 99.661242 110.994202 
L 99.764727 109.646116 
L 100.263894 103.002327 
L 100.269981 108.421674 
L 100.373467 107.064935 
L 100.872633 100.380069 
L 100.87872 105.904278 
L 100.982206 104.539421 
L 101.481373 97.816067 
L 101.48746 103.442931 
L 101.590946 102.070478 
L 102.090112 95.311177 
L 102.096199 101.038452 
L 102.199685 99.658913 
L 102.698851 92.866153 
L 102.704939 98.691564 
L 102.814512 97.223602 
L 103.307591 90.481658 
L 103.313678 96.402904 
L 103.423251 94.928492 
L 103.91633 88.158267 
L 103.922418 94.17302 
L 104.031991 92.692668 
L 104.52507 85.896467 
L 104.531157 92.002381 
L 104.64073 90.516586 
L 105.133809 83.696666 
L 105.139897 89.891376 
L 105.24947 88.400626 
L 105.742549 81.559196 
L 105.748636 87.840321 
L 105.858209 86.345092 
L 106.351288 79.484312 
L 106.357376 85.84946 
L 106.466949 84.35022 
L 106.960028 77.4722 
L 106.966115 83.918972 
L 107.075688 82.416175 
L 107.568767 75.522979 
L 107.574854 82.048968 
L 107.684428 80.54306 
L 108.177506 73.636706 
L 108.183594 80.239501 
L 108.293167 78.730917 
L 108.786246 71.813374 
L 108.792333 78.490563 
L 108.901906 76.979729 
L 109.394985 70.052922 
L 109.401073 76.802092 
L 109.510646 75.289423 
L 110.003725 68.355231 
L 110.009812 75.173975 
L 110.119385 73.659876 
L 110.612464 66.720132 
L 110.618552 73.606046 
L 110.728125 72.090913 
L 111.221204 65.147407 
L 111.227291 72.098094 
L 111.336864 70.582312 
L 111.829943 63.63679 
L 111.836031 70.649862 
L 111.945604 69.133809 
L 112.438683 62.187972 
L 112.44477 69.261052 
L 112.554343 67.745095 
L 113.047422 60.800603 
L 113.053509 67.931325 
L 113.163083 66.415822 
L 113.656161 59.474292 
L 113.662249 66.660305 
L 113.771822 65.145603 
L 114.264901 58.208611 
L 114.270988 65.447578 
L 114.380561 63.934019 
L 114.87364 57.003099 
L 114.879728 64.292701 
L 114.989301 62.780614 
L 115.48238 55.857261 
L 115.488467 63.195194 
L 115.59804 61.684902 
L 116.091119 54.77057 
L 116.097207 62.154551 
L 116.20678 60.646368 
L 116.699859 53.742471 
L 116.705946 61.170238 
L 116.815519 59.664468 
L 117.308598 52.772382 
L 117.314686 60.241693 
L 117.424259 58.738633 
L 117.917338 51.859696 
L 117.923425 59.368332 
L 118.032998 57.86827 
L 118.526077 51.003782 
L 118.532164 58.549547 
L 118.641738 57.052763 
L 119.134817 50.203987 
L 119.140904 57.784708 
L 119.250477 56.291474 
L 119.743556 49.459637 
L 119.749643 57.073168 
L 119.859216 55.583749 
L 120.352295 48.770041 
L 120.358383 56.41426 
L 120.467956 54.928911 
L 120.961035 48.134488 
L 120.967122 55.807301 
L 121.076695 54.326271 
L 121.569774 47.552253 
L 121.575862 55.251591 
L 121.685435 53.775122 
L 122.178514 47.022596 
L 122.184601 54.746419 
L 122.294174 53.274744 
L 122.787253 46.544763 
L 122.793341 54.291059 
L 122.902914 52.824405 
L 123.395993 46.117987 
L 123.40208 53.884772 
L 123.511653 52.423359 
L 124.004732 45.741492 
L 124.010819 53.526813 
L 124.120393 52.070852 
L 124.613472 45.414491 
L 124.619559 53.216422 
L 124.729132 51.76612 
L 125.222211 45.136189 
L 125.228298 52.952836 
L 125.337871 51.50839 
L 125.83095 44.905782 
L 125.837038 52.735279 
L 125.946611 51.296882 
L 126.43969 44.722459 
L 126.445777 52.562974 
L 126.55535 51.130811 
L 127.048429 44.585407 
L 127.054517 52.435135 
L 127.16409 51.009385 
L 127.657169 44.493802 
L 127.663256 52.350972 
L 127.772829 50.931807 
L 128.265908 44.446821 
L 128.271996 52.309691 
L 128.381569 50.897279 
L 128.874648 44.443636 
L 128.880735 52.310496 
L 128.990308 50.904996 
L 129.483387 44.483417 
L 129.489475 52.352588 
L 129.599048 50.954155 
L 130.092127 44.56533 
L 130.098214 52.435166 
L 130.207787 51.043948 
L 130.700866 44.688544 
L 130.706953 52.557429 
L 130.816527 51.17357 
L 131.309605 44.852225 
L 131.315693 52.718575 
L 131.425266 51.342211 
L 131.918345 45.05554 
L 131.924432 52.917803 
L 132.034005 51.549066 
L 132.527084 45.297658 
L 132.533172 53.154313 
L 132.642745 51.793329 
L 133.135824 45.577748 
L 133.141911 53.427306 
L 133.251484 52.074197 
L 133.744563 45.894983 
L 133.750651 53.735986 
L 133.860224 52.390866 
L 134.353303 46.248536 
L 134.35939 54.079558 
L 134.468963 52.742539 
L 134.962042 46.637586 
L 134.96813 54.457232 
L 135.077703 53.128419 
L 135.570782 47.061315 
L 135.576869 54.868221 
L 135.686442 53.547714 
L 136.179521 47.518908 
L 136.185608 55.311741 
L 136.295182 53.999637 
L 136.78826 48.009556 
L 136.794348 55.787013 
L 136.903921 54.483403 
L 137.397 48.532453 
L 137.403087 56.293264 
L 137.51266 54.998234 
L 138.005739 49.0868 
L 138.011827 56.829724 
L 138.1214 55.543357 
L 138.614479 49.671804 
L 138.620566 57.39563 
L 138.730139 56.118004 
L 139.223218 50.286677 
L 139.229306 57.990225 
L 139.338879 56.721412 
L 139.831958 50.930638 
L 139.838045 58.612756 
L 139.947618 57.352827 
L 140.440697 51.602912 
L 140.446785 59.26248 
L 140.556358 58.011499 
L 141.049437 52.302731 
L 141.055524 59.938657 
L 141.165097 58.696686 
L 141.658176 53.029336 
L 141.664263 60.640556 
L 141.773837 59.407652 
L 142.266916 53.781972 
L 142.273003 61.367453 
L 142.382576 60.14367 
L 142.875655 54.559895 
L 142.881742 62.118631 
L 142.991315 60.904019 
L 143.484394 55.362367 
L 143.490482 62.893382 
L 143.600055 61.687986 
L 144.093134 56.18866 
L 144.099221 63.691002 
L 144.208794 62.494865 
L 144.701873 57.03805 
L 144.707961 64.5108 
L 144.817534 63.323961 
L 145.310613 57.909827 
L 145.3167 65.35209 
L 145.426273 64.174585 
L 145.919352 58.803286 
L 145.92544 66.214193 
L 146.035013 65.046055 
L 146.528092 59.717732 
L 146.534179 67.096443 
L 146.643752 65.9377 
L 147.136831 60.652477 
L 147.142918 67.998178 
L 147.252492 66.848856 
L 147.745571 61.606846 
L 147.751658 68.918748 
L 147.861231 67.77887 
L 148.35431 62.580168 
L 148.360397 69.857508 
L 148.46997 68.727094 
L 148.963049 63.571785 
L 148.969137 70.813826 
L 149.07871 69.692893 
L 149.571789 64.581046 
L 149.577876 71.787075 
L 149.687449 70.675638 
L 150.180528 65.607311 
L 150.186616 72.77664 
L 150.296189 71.67471 
L 150.789268 66.649949 
L 150.795355 73.781914 
L 150.904928 72.689499 
L 151.398007 67.708336 
L 151.404095 74.802298 
L 151.513668 73.719405 
L 152.006747 68.781862 
L 152.012834 75.837204 
L 152.122407 74.763836 
L 152.615486 69.869922 
L 152.621574 76.886051 
L 152.731147 75.822209 
L 153.224226 70.971924 
L 153.230313 77.948269 
L 153.339886 76.893952 
L 153.832965 72.087282 
L 153.839052 79.023296 
L 153.948626 77.978501 
L 154.441704 73.215424 
L 154.447792 80.11058 
L 154.557365 79.075301 
L 155.050444 74.355783 
L 155.056531 81.209579 
L 155.166104 80.183806 
L 155.659183 75.507805 
L 155.665271 82.319757 
L 155.774844 81.303481 
L 156.267923 76.670943 
L 156.27401 83.44059 
L 156.383583 82.433799 
L 156.876662 77.844662 
L 156.88275 84.571562 
L 156.992323 83.574241 
L 157.485402 79.028434 
L 157.491489 85.712168 
L 157.601062 84.7243 
L 158.094141 80.221743 
L 158.100229 86.861909 
L 158.209802 85.883477 
L 158.702881 81.424081 
L 158.708968 88.020297 
L 158.818541 87.05128 
L 159.31162 82.634948 
L 159.317707 89.186854 
L 159.427281 88.22723 
L 159.920359 83.853857 
L 159.926447 90.361108 
L 160.03602 89.410854 
L 160.529099 85.080326 
L 160.535186 91.542599 
L 160.644759 90.601689 
L 161.137838 86.313887 
L 161.143926 92.730875 
L 161.253499 91.799282 
L 161.746578 87.554076 
L 161.752665 93.925491 
L 161.862238 93.003187 
L 162.355317 88.800443 
L 162.361405 95.126013 
L 162.470978 94.212967 
L 162.964057 90.052544 
L 162.970144 96.332015 
L 163.079717 95.428197 
L 163.572796 91.309945 
L 163.578884 97.54308 
L 163.688457 96.648456 
L 164.181536 92.572222 
L 164.187623 98.758799 
L 164.297196 97.873334 
L 164.790275 93.838956 
L 164.796362 99.978773 
L 164.905936 99.102432 
L 165.399015 95.109743 
L 165.405102 101.202608 
L 165.514675 100.335354 
L 166.007754 96.384182 
L 166.013841 102.429923 
L 166.123414 101.571718 
L 166.616493 97.661884 
L 166.622581 103.660342 
L 166.732154 102.811146 
L 167.225233 98.942466 
L 167.23132 104.893498 
L 167.340893 104.053271 
L 167.833972 100.225558 
L 167.84006 106.129033 
L 167.949633 105.297733 
L 168.442712 101.510792 
L 168.448799 107.366597 
L 168.558372 106.544181 
L 169.051451 102.797814 
L 169.057539 108.605846 
L 169.167112 107.792271 
L 169.660191 104.086275 
L 169.666278 109.846447 
L 169.775851 109.041668 
L 170.26893 105.375835 
L 170.275018 111.088072 
L 170.384591 110.292043 
L 170.87767 106.666163 
L 170.883757 112.330402 
L 170.99333 111.543077 
L 171.486409 107.956934 
L 171.492496 113.573126 
L 171.602069 112.794458 
L 172.095148 109.247831 
L 172.101236 114.81594 
L 172.210809 114.04588 
L 172.703888 110.538548 
L 172.709975 116.058548 
L 172.819548 115.297047 
L 173.312627 111.828782 
L 173.318715 117.300661 
L 173.428288 116.547669 
L 173.921367 113.118241 
L 173.927454 118.541995 
L 174.037027 117.797462 
L 174.530106 114.406639 
L 174.536194 119.782278 
L 174.645767 119.046152 
L 175.138846 115.693698 
L 175.144933 121.021241 
L 175.254506 120.293471 
L 175.747585 116.979145 
L 175.753673 122.258624 
L 175.863246 121.539157 
L 176.356325 118.262718 
L 176.362412 123.494172 
L 176.471985 122.782956 
L 176.965064 119.544159 
L 176.971151 124.727639 
L 177.080725 124.024619 
L 177.573803 120.823218 
L 177.579891 125.958785 
L 177.689464 125.263907 
L 178.182543 122.099652 
L 178.18863 127.187375 
L 178.298203 126.500585 
L 178.791282 123.373224 
L 178.79737 128.413183 
L 178.906943 127.734426 
L 179.400022 124.643705 
L 179.406109 129.635987 
L 179.515682 128.965207 
L 180.008761 125.910872 
L 180.014849 130.855573 
L 180.124422 130.192714 
L 180.617501 127.174507 
L 180.623588 132.071733 
L 180.733161 131.416739 
L 181.22624 128.4344 
L 181.232328 133.284264 
L 181.341901 132.637078 
L 181.83498 129.690346 
L 181.841067 134.49297 
L 181.95064 133.853534 
L 182.443719 130.942148 
L 182.449806 135.69766 
L 182.55938 135.065918 
L 183.052459 132.189614 
L 183.058546 136.89815 
L 183.168119 136.274044 
L 183.661198 133.432556 
L 183.667285 138.09426 
L 183.776858 137.477732 
L 184.269937 134.670796 
L 184.276025 139.285818 
L 184.385598 138.67681 
L 184.878677 135.904157 
L 184.884764 140.472656 
L 184.994337 139.871109 
L 185.487416 137.132472 
L 185.493504 141.654611 
L 185.603077 141.060467 
L 186.096156 138.355576 
L 186.102243 142.831526 
L 186.211816 142.244726 
L 186.704895 139.573313 
L 186.710983 144.00325 
L 186.820556 143.423735 
L 187.313635 140.785528 
L 187.319722 145.169634 
L 187.429295 144.597345 
L 187.922374 141.992074 
L 187.928461 146.330539 
L 188.038035 145.765417 
L 188.531114 143.19281 
L 188.537201 147.485827 
L 188.646774 146.927812 
L 189.139853 144.387598 
L 189.14594 148.635366 
L 189.255513 148.084399 
L 189.748592 145.576305 
L 189.75468 149.779028 
L 189.864253 149.23505 
L 190.357332 146.758804 
L 190.363419 150.916693 
L 190.472992 150.379644 
L 190.966071 147.934973 
L 190.972159 152.048241 
L 191.081732 151.518061 
L 191.574811 149.104693 
L 191.580898 153.173559 
L 191.690471 152.650189 
L 192.18355 150.267851 
L 192.189638 154.292538 
L 192.299211 153.775919 
L 192.79229 151.424339 
L 192.798377 155.405074 
L 192.90795 154.895146 
L 193.401029 152.574051 
L 193.407117 156.511065 
L 193.51669 156.007769 
L 194.009769 153.716887 
L 194.015856 157.610417 
L 194.125429 157.113693 
L 194.618508 154.852751 
L 194.624595 158.703036 
L 194.734169 158.212824 
L 195.22116 156.009353 
L 195.227247 159.815651 
L 195.336821 159.332004 
L 195.8299 157.130636 
L 195.835987 160.89419 
L 195.94556 160.416936 
L 196.438639 158.244687 
L 196.444726 161.965746 
L 196.554299 161.494826 
L 197.047378 159.351426 
L 197.053466 163.030243 
L 197.163039 162.565597 
L 197.656118 160.450778 
L 197.662205 164.087607 
L 197.771778 163.629178 
L 198.264857 161.542669 
L 198.270945 165.13777 
L 198.380518 164.685497 
L 198.873597 162.627031 
L 198.879684 166.180664 
L 198.989257 165.73449 
L 199.482336 163.703798 
L 199.488424 167.216227 
L 199.597997 166.776093 
L 200.091076 164.772909 
L 200.097163 168.2444 
L 200.206736 167.810248 
L 200.699815 165.834305 
L 200.705902 169.265126 
L 200.815476 168.836898 
L 201.308555 166.887932 
L 201.314642 170.278353 
L 201.424215 169.855991 
L 201.917294 167.933737 
L 201.923381 171.284031 
L 202.032954 170.867477 
L 202.526033 168.971672 
L 202.532121 172.282112 
L 202.641694 171.87131 
L 203.134773 170.00169 
L 203.14086 173.272554 
L 203.250433 172.867446 
L 203.743512 171.023751 
L 203.7496 174.255315 
L 203.859173 173.855844 
L 204.352252 172.037813 
L 204.358339 175.230358 
L 204.467912 174.836466 
L 204.960991 173.043841 
L 204.967079 176.197646 
L 205.076652 175.809278 
L 205.569731 174.0418 
L 205.575818 177.157148 
L 205.685391 176.774247 
L 206.17847 175.031659 
L 206.184558 178.108833 
L 206.294131 177.731344 
L 206.78721 176.01339 
L 206.793297 179.052673 
L 206.90287 178.68054 
L 207.395949 176.986967 
L 207.402036 179.988645 
L 207.51161 179.621812 
L 208.004688 177.952365 
L 208.010776 180.916725 
L 208.120349 180.555137 
L 208.613428 178.909566 
L 208.619515 181.836893 
L 208.729088 181.480496 
L 209.222167 179.858549 
L 209.228255 182.749132 
L 209.337828 182.39787 
L 209.830907 180.799298 
L 209.836994 183.653426 
L 209.946567 183.307245 
L 210.439646 181.731801 
L 210.445734 184.549761 
L 210.555307 184.208607 
L 211.048386 182.656044 
L 211.054473 185.438126 
L 211.164046 185.101946 
L 211.657125 183.572019 
L 211.663213 186.318512 
L 211.772786 185.987253 
L 212.265865 184.479718 
L 212.271952 187.190913 
L 212.381525 186.864521 
L 212.874604 185.379136 
L 212.880691 188.055321 
L 212.990265 187.733744 
L 213.483343 186.270269 
L 213.489431 188.911735 
L 213.599004 188.59492 
L 214.092083 187.153116 
L 214.09817 189.760153 
L 214.207743 189.448048 
L 214.700822 188.027677 
L 214.70691 190.600575 
L 214.816483 190.293128 
L 215.309562 188.893954 
L 215.315649 191.433003 
L 215.425222 191.130163 
L 215.918301 189.751952 
L 215.924389 192.257441 
L 216.033962 191.959157 
L 216.527041 190.601676 
L 216.533128 193.073895 
L 216.642701 192.780116 
L 217.13578 191.443133 
L 217.141868 193.88237 
L 217.251441 193.593046 
L 217.74452 192.276333 
L 217.750607 194.682877 
L 217.86018 194.397957 
L 218.353259 193.101285 
L 218.359346 195.475424 
L 218.46892 195.19486 
L 218.961999 193.918002 
L 218.968086 196.260023 
L 219.077659 195.983765 
L 219.570738 194.726497 
L 219.576825 197.036687 
L 219.686398 196.764686 
L 220.179477 195.526786 
L 220.185565 197.805431 
L 220.295138 197.537638 
L 220.788217 196.318883 
L 220.794304 198.566269 
L 220.903877 198.302637 
L 221.396956 197.102808 
L 221.403044 199.319219 
L 221.512617 199.059699 
L 222.005696 197.878578 
L 222.011783 200.064298 
L 222.121356 199.808843 
L 222.614435 198.646213 
L 222.620523 200.801526 
L 222.730096 200.550089 
L 223.223175 199.405736 
L 223.229262 201.530923 
L 223.338835 201.283457 
L 223.831914 200.157168 
L 223.838001 202.25251 
L 223.947575 202.008969 
L 224.440654 200.900532 
L 224.446741 202.966309 
L 224.556314 202.726648 
L 225.049393 201.635854 
L 225.05548 203.672345 
L 225.165053 203.436517 
L 225.658132 202.363158 
L 225.66422 204.370642 
L 225.773793 204.138602 
L 226.266872 203.082472 
L 226.272959 205.061224 
L 226.382532 204.832928 
L 226.875611 203.793823 
L 226.881699 205.744119 
L 226.991272 205.519521 
L 227.484351 204.497239 
L 227.490438 206.419353 
L 227.600011 206.19841 
L 228.09309 205.19275 
L 228.099178 207.086955 
L 228.208751 206.869623 
L 228.70183 205.880385 
L 228.707917 207.746952 
L 228.81749 207.533188 
L 229.310569 206.560175 
L 229.316657 208.399376 
L 229.42623 208.189136 
L 229.919309 207.232152 
L 229.925396 209.044255 
L 230.034969 208.837497 
L 230.528048 207.896349 
L 230.534135 209.681621 
L 230.643709 209.478303 
L 231.136787 208.552799 
L 231.142875 210.311505 
L 231.252448 210.111586 
L 231.745527 209.201534 
L 231.751614 210.93394 
L 231.861187 210.737378 
L 232.354266 209.842591 
L 232.360354 211.548958 
L 232.469927 211.355712 
L 232.963006 210.476002 
L 232.969093 212.156594 
L 233.078666 211.966623 
L 233.571745 211.101805 
L 233.577833 212.75688 
L 233.687406 212.570144 
L 234.180485 211.720035 
L 234.186572 213.349851 
L 234.296145 213.16631 
L 234.789224 212.330728 
L 234.795312 213.935543 
L 234.904885 213.755157 
L 235.397964 212.933923 
L 235.404051 214.51399 
L 235.513624 214.336721 
L 236.006703 213.529655 
L 236.01279 215.085228 
L 236.122364 214.911037 
L 236.615442 214.117963 
L 236.62153 215.649294 
L 236.731103 215.478142 
L 237.224182 214.698886 
L 237.230269 216.206224 
L 237.339842 216.038073 
L 237.832921 215.272462 
L 237.839009 216.756056 
L 237.948582 216.590868 
L 238.441661 215.838731 
L 238.447748 217.298825 
L 238.557321 217.136564 
L 239.0504 216.39773 
L 239.056488 217.834571 
L 239.166061 217.675199 
L 239.65914 216.949501 
L 239.665227 218.36333 
L 239.7748 218.206811 
L 240.267879 217.494082 
L 240.273967 218.885141 
L 240.38354 218.731439 
L 240.876619 218.031515 
L 240.882706 219.400042 
L 240.992279 219.249122 
L 241.485358 218.561839 
L 241.491445 219.908072 
L 241.601019 219.759897 
L 242.094098 219.085095 
L 242.100185 220.409269 
L 242.209758 220.263805 
L 242.702837 219.601324 
L 242.708924 220.903672 
L 242.818497 220.760884 
L 243.311576 220.110567 
L 243.317664 221.391321 
L 243.427237 221.251174 
L 243.920316 220.612864 
L 243.926403 221.872253 
L 244.035976 221.734714 
L 244.529055 221.108258 
L 244.535143 222.34651 
L 244.644716 222.211545 
L 245.137795 221.596788 
L 245.143882 222.814129 
L 245.253455 222.681705 
L 245.746534 222.078497 
L 245.752622 223.27515 
L 245.862195 223.145234 
L 246.355274 222.553425 
L 246.361361 223.729613 
L 246.470934 223.602172 
L 246.964013 223.021615 
L 246.9701 224.177557 
L 247.079674 224.052559 
L 247.572753 223.483107 
L 247.57884 224.619021 
L 247.688413 224.496435 
L 248.181492 223.937943 
L 248.187579 225.054045 
L 248.297152 224.93384 
L 248.790231 224.386165 
L 248.796319 225.482669 
L 248.905892 225.364812 
L 249.398971 224.827813 
L 249.405058 225.904931 
L 249.514631 225.789393 
L 250.00771 225.262929 
L 250.013798 226.320871 
L 250.123371 226.207621 
L 250.61645 225.691555 
L 250.622537 226.730529 
L 250.73211 226.619536 
L 251.225189 226.113731 
L 251.231277 227.133942 
L 251.34085 227.025178 
L 251.833929 226.529498 
L 251.840016 227.531151 
L 251.949589 227.424586 
L 252.442668 226.938898 
L 252.448756 227.922195 
L 252.558329 227.817799 
L 253.051408 227.34197 
L 253.057495 228.307111 
L 253.167068 228.204857 
L 253.660147 227.738757 
L 253.666234 228.685939 
L 253.775808 228.585798 
L 254.268886 228.129298 
L 254.274974 229.058718 
L 254.384547 228.960661 
L 254.877626 228.513633 
L 254.883713 229.425484 
L 254.993286 229.329484 
L 255.486365 228.891803 
L 255.492453 229.786278 
L 255.602026 229.692307 
L 256.095105 229.263848 
L 256.101192 230.141135 
L 256.210765 230.049167 
L 256.703844 229.629807 
L 256.709932 230.490095 
L 256.819505 230.400103 
L 257.312584 229.98972 
L 257.318671 230.833194 
L 257.428244 230.745151 
L 257.921323 230.343626 
L 257.927411 231.170469 
L 258.036984 231.08435 
L 258.530063 230.691564 
L 258.53615 231.501959 
L 258.645723 231.417737 
L 259.138802 231.033572 
L 259.144889 231.827698 
L 259.254463 231.745349 
L 259.747541 231.36969 
L 259.753629 232.147725 
L 259.863202 232.067223 
L 260.356281 231.699955 
L 260.362368 232.462074 
L 260.471941 232.383394 
L 260.96502 232.024406 
L 260.971108 232.770782 
L 261.080681 232.6939 
L 261.57376 232.343079 
L 261.579847 233.073884 
L 261.68942 232.998775 
L 262.182499 232.656012 
L 262.188587 233.371415 
L 262.29816 233.298057 
L 262.791239 232.963242 
L 262.797326 233.663411 
L 262.906899 233.591778 
L 263.399978 233.264805 
L 263.406066 233.949905 
L 263.515639 233.879976 
L 264.008718 233.560738 
L 264.014805 234.230933 
L 264.124378 234.162683 
L 264.617457 233.851077 
L 264.623544 234.506527 
L 264.733118 234.439934 
L 265.226197 234.135856 
L 265.232284 234.776721 
L 265.341857 234.711764 
L 265.834936 234.415112 
L 265.841023 235.041549 
L 265.950596 234.978204 
L 266.443675 234.688878 
L 266.449763 235.301043 
L 266.559336 235.239289 
L 267.052415 234.95719 
L 267.058502 235.555235 
L 267.168075 235.495051 
L 267.661154 235.22008 
L 267.667242 235.804157 
L 267.776815 235.745521 
L 268.269894 235.477584 
L 268.275981 236.047841 
L 268.385554 235.990733 
L 268.878633 235.729733 
L 268.884721 236.286318 
L 268.994294 236.230717 
L 269.487373 235.97656 
L 269.49346 236.519619 
L 269.603033 236.465504 
L 270.096112 236.218098 
L 270.102199 236.747773 
L 270.211773 236.695124 
L 270.704852 236.454378 
L 270.710939 236.970811 
L 270.820512 236.919608 
L 271.313591 236.685432 
L 271.319678 237.188762 
L 271.429251 237.138986 
L 271.92233 236.91129 
L 271.928418 237.401654 
L 272.037991 237.353286 
L 272.53107 237.131984 
L 272.537157 237.609517 
L 272.64673 237.562538 
L 273.139809 237.347542 
L 273.145897 237.812377 
L 273.25547 237.766769 
L 273.748549 237.557995 
L 273.754636 238.010264 
L 273.864209 237.966007 
L 274.357288 237.763371 
L 274.363376 238.203203 
L 274.472949 238.160279 
L 274.966028 237.963698 
L 274.972115 238.391221 
L 275.081688 238.349613 
L 275.574767 238.159006 
L 275.580855 238.574344 
L 275.690428 238.534034 
L 276.183507 238.349321 
L 276.189594 238.752598 
L 276.299167 238.713568 
L 276.792246 238.534669 
L 276.798333 238.926008 
L 276.907907 238.888241 
L 277.400985 238.715079 
L 277.407073 239.094598 
L 277.516646 239.058077 
L 278.009725 238.890575 
L 278.015812 239.258391 
L 278.125385 239.223101 
L 278.618464 239.061183 
L 278.624552 239.417413 
L 278.734125 239.383336 
L 279.227204 239.226927 
L 279.233291 239.571684 
L 279.342864 239.538805 
L 279.835943 239.387833 
L 279.842031 239.721229 
L 279.951604 239.689531 
L 280.444683 239.543923 
L 280.45077 239.866068 
L 280.560343 239.835536 
L 281.053422 239.695222 
L 281.05951 240.006223 
L 281.169083 239.976842 
L 281.662162 239.841751 
L 281.668249 240.141715 
L 281.777822 240.113469 
L 282.270901 239.983532 
L 282.276988 240.272563 
L 282.386562 240.245437 
L 282.879641 240.120588 
L 282.885728 240.398788 
L 282.995301 240.372768 
L 283.48838 240.252938 
L 283.494467 240.520408 
L 283.60404 240.495479 
L 284.097119 240.380604 
L 284.103207 240.637441 
L 284.21278 240.61359 
L 284.705859 240.503605 
L 284.711946 240.749906 
L 284.821519 240.727119 
L 285.314598 240.621961 
L 285.320686 240.857821 
L 285.430259 240.836082 
L 285.923338 240.735689 
L 285.929425 240.9612 
L 286.038998 240.940498 
L 286.532077 240.844807 
L 286.538165 241.060061 
L 286.647738 241.040382 
L 287.140817 240.949334 
L 287.146904 241.154419 
L 287.256477 241.13575 
L 287.749556 241.049285 
L 287.755643 241.244289 
L 287.865217 241.226616 
L 288.358296 241.144678 
L 288.364383 241.329685 
L 288.473956 241.312997 
L 288.967035 241.235526 
L 288.973122 241.41062 
L 289.082695 241.394904 
L 289.575774 241.321846 
L 289.581862 241.487108 
L 289.691435 241.472352 
L 290.184514 241.403651 
L 290.190601 241.559161 
L 290.300174 241.545353 
L 290.793253 241.480954 
L 290.799341 241.626791 
L 290.908914 241.613919 
L 291.401993 241.55377 
L 291.40808 241.690008 
L 291.517653 241.678062 
L 292.010732 241.622109 
L 292.01682 241.748823 
L 292.126393 241.737791 
L 292.619472 241.685985 
L 292.625559 241.803246 
L 292.735132 241.793116 
L 293.836951 241.800385 
L 293.843038 241.898952 
L 293.952611 241.890595 
L 295.054429 241.89705 
L 295.17009 241.970563 
L 296.271908 241.976049 
L 296.387569 242.033077 
L 298.098127 242.061546 
L 298.213787 242.094215 
L 302.925431 242.095851 
L 304.185521 242.061823 
L 304.301182 242.015961 
L 305.403 242.00937 
L 305.518661 241.948195 
L 306.620479 241.939371 
L 306.626566 241.854925 
L 306.736139 241.862984 
L 307.837958 241.851783 
L 307.844045 241.75082 
L 307.953618 241.760272 
L 309.055437 241.746549 
L 309.061524 241.629168 
L 309.171097 241.639988 
L 309.664176 241.687294 
L 309.670264 241.561736 
L 309.779837 241.573231 
L 310.272916 241.623601 
L 310.279003 241.489884 
L 310.388576 241.50205 
L 310.881655 241.555459 
L 310.887742 241.4136 
L 310.997316 241.426432 
L 311.490395 241.482857 
L 311.496482 241.332871 
L 311.606055 241.346363 
L 312.099134 241.405781 
L 312.105221 241.247682 
L 312.214794 241.26183 
L 312.707873 241.324219 
L 312.713961 241.158018 
L 312.823534 241.172817 
L 313.316613 241.238158 
L 313.3227 241.063863 
L 313.432273 241.07931 
L 313.925352 241.14758 
L 313.93144 240.965201 
L 314.041013 240.98129 
L 314.534092 241.052472 
L 314.540179 240.862013 
L 314.649752 240.878741 
L 315.142831 240.952816 
L 315.148919 240.754281 
L 315.258492 240.771643 
L 315.751571 240.848594 
L 315.757658 240.641985 
L 315.867231 240.659979 
L 316.36031 240.739788 
L 316.366398 240.525105 
L 316.475971 240.543727 
L 316.96905 240.626379 
L 316.975137 240.40362 
L 317.08471 240.422866 
L 317.577789 240.508346 
L 317.583876 240.277507 
L 317.69345 240.297374 
L 318.186528 240.385667 
L 318.192616 240.146743 
L 318.302189 240.167228 
L 318.795268 240.258321 
L 318.801355 240.011303 
L 318.910928 240.032404 
L 319.404007 240.126285 
L 319.410095 239.871163 
L 319.519668 239.892877 
L 320.012747 239.989534 
L 320.018834 239.726297 
L 320.128407 239.748621 
L 320.621486 239.848042 
L 320.627574 239.576677 
L 320.737147 239.59961 
L 321.230226 239.701785 
L 321.236313 239.422275 
L 321.345886 239.445815 
L 321.838965 239.550735 
L 321.845053 239.263063 
L 321.954626 239.287207 
L 322.447705 239.394864 
L 322.453792 239.09901 
L 322.563365 239.123756 
L 323.056444 239.234142 
L 323.062531 238.930085 
L 323.172105 238.955433 
L 323.665183 239.068541 
L 323.671271 238.756256 
L 323.780844 238.782204 
L 324.273923 238.898027 
L 324.28001 238.57749 
L 324.389583 238.604037 
L 324.882662 238.722571 
L 324.88875 238.393752 
L 324.998323 238.420897 
L 325.491402 238.542138 
L 325.497489 238.205008 
L 325.607062 238.232751 
L 326.100141 238.356693 
L 326.106229 238.011221 
L 326.215802 238.039561 
L 326.708881 238.166203 
L 326.714968 237.812354 
L 326.824541 237.84129 
L 327.31762 237.97063 
L 327.323708 237.608368 
L 327.433281 237.6379 
L 327.92636 237.769937 
L 327.932447 237.399224 
L 328.04202 237.429352 
L 328.535099 237.564085 
L 328.541186 237.184881 
L 328.65076 237.215605 
L 329.143839 237.353035 
L 329.149926 236.965296 
L 329.259499 236.996617 
L 329.752578 237.136745 
L 329.758665 236.740428 
L 329.868238 236.772346 
L 330.361317 236.915175 
L 330.367405 236.510232 
L 330.476978 236.542747 
L 330.970057 236.68828 
L 330.976144 236.274662 
L 331.085717 236.307776 
L 331.578796 236.456016 
L 331.584884 236.033672 
L 331.694457 236.067387 
L 332.187536 236.218338 
L 332.193623 235.787215 
L 332.303196 235.82153 
L 332.796275 235.9752 
L 332.802363 235.535241 
L 332.911936 235.570159 
L 333.405015 235.726552 
L 333.411102 235.2777 
L 333.520675 235.313223 
L 334.013754 235.472348 
L 334.019841 235.014541 
L 334.129415 235.05067 
L 334.622494 235.212535 
L 334.628581 234.745712 
L 334.738154 234.782449 
L 335.231233 234.947062 
L 335.23732 234.471157 
L 335.346893 234.508505 
L 335.839972 234.675877 
L 335.84606 234.190823 
L 335.955633 234.228784 
L 336.448712 234.398925 
L 336.454799 233.904653 
L 336.564372 233.943229 
L 337.057451 234.116151 
L 337.063539 233.612588 
L 337.173112 233.651783 
L 337.666191 233.827498 
L 337.672278 233.31457 
L 337.781851 233.354386 
L 338.27493 233.532908 
L 338.281018 233.010539 
L 338.390591 233.050979 
L 338.88367 233.232322 
L 338.889757 232.700431 
L 338.99933 232.741499 
L 339.492409 232.925679 
L 339.498497 232.384185 
L 339.60807 232.425884 
L 340.101149 232.612917 
L 340.107236 232.061734 
L 340.216809 232.104069 
L 340.709888 232.293972 
L 340.715975 231.733014 
L 340.825549 231.775989 
L 341.318627 231.968779 
L 341.324715 231.397957 
L 341.434288 231.441575 
L 341.927367 231.637271 
L 341.933454 231.056494 
L 342.043027 231.10076 
L 342.536106 231.299382 
L 342.542194 230.708553 
L 342.651767 230.753472 
L 343.144846 230.955042 
L 343.150933 230.354064 
L 343.260506 230.399641 
L 343.753585 230.604179 
L 343.759673 229.992953 
L 343.869246 230.039192 
L 344.362325 230.246721 
L 344.368412 229.625144 
L 344.477985 229.672051 
L 344.971064 229.882596 
L 344.977152 229.250562 
L 345.086725 229.298142 
L 345.579804 229.511726 
L 345.585891 228.869127 
L 345.695464 228.917387 
L 346.188543 229.134036 
L 346.19463 228.480761 
L 346.304204 228.529706 
L 346.797282 228.749447 
L 346.80337 228.085382 
L 346.912943 228.135017 
L 347.406022 228.357878 
L 347.412109 227.682906 
L 347.521682 227.733239 
L 348.014761 227.959248 
L 348.020849 227.27325 
L 348.130422 227.324287 
L 348.623501 227.553473 
L 348.629588 226.856326 
L 348.739161 226.908075 
L 349.23224 227.140468 
L 349.238328 226.432047 
L 349.347901 226.484514 
L 349.84098 226.720147 
L 349.847067 226.000323 
L 349.95664 226.053515 
L 350.449719 226.29242 
L 350.455807 225.561062 
L 350.56538 225.614987 
L 351.058459 225.857198 
L 351.064546 225.114171 
L 351.174119 225.168836 
L 351.667198 225.414389 
L 351.673285 224.659555 
L 351.782859 224.714969 
L 352.275938 224.963898 
L 352.282025 224.197116 
L 352.391598 224.253287 
L 352.884677 224.50563 
L 352.890764 223.726756 
L 353.000337 223.783692 
L 353.493416 224.039487 
L 353.499504 223.248374 
L 353.609077 223.306085 
L 354.102156 223.56537 
L 354.108243 222.761868 
L 354.217816 222.820361 
L 354.710895 223.083178 
L 354.716983 222.267132 
L 354.826556 222.326418 
L 355.319635 222.592807 
L 355.325722 221.764061 
L 355.435295 221.824148 
L 355.928374 222.094152 
L 355.934462 221.252545 
L 356.044035 221.313443 
L 356.537114 221.587106 
L 356.543201 220.732474 
L 356.652774 220.794194 
L 357.145853 221.071561 
L 357.15194 220.203735 
L 357.261514 220.266287 
L 357.754593 220.547404 
L 357.76068 219.666214 
L 357.870253 219.729608 
L 358.363332 220.014522 
L 358.369419 219.119793 
L 358.478992 219.18404 
L 358.972071 219.4728 
L 358.978159 218.564355 
L 359.087732 218.629466 
L 359.580811 218.922121 
L 359.586898 217.999776 
L 359.696471 218.065763 
L 360.18955 218.362365 
L 360.195638 217.425935 
L 360.305211 217.492809 
L 360.79829 217.793409 
L 360.804377 216.842705 
L 360.91395 216.910478 
L 361.407029 217.215131 
L 361.413117 216.249959 
L 361.52269 216.318643 
L 362.015769 216.627403 
L 362.021856 215.647566 
L 362.131429 215.717174 
L 362.624508 216.030096 
L 362.630596 215.035394 
L 362.740169 215.105938 
L 363.233248 215.423081 
L 363.239335 214.413307 
L 363.348908 214.484801 
L 363.841987 214.806224 
L 363.848074 213.781169 
L 363.957648 213.853626 
L 364.450726 214.179389 
L 364.456814 213.13884 
L 364.566387 213.212273 
L 365.059466 213.542437 
L 365.065553 212.486177 
L 365.175126 212.560601 
L 365.668205 212.895229 
L 365.674293 211.823035 
L 365.783866 211.898464 
L 366.276945 212.237621 
L 366.283032 211.149267 
L 366.392605 211.225716 
L 366.885684 211.569467 
L 366.891772 210.464724 
L 367.001345 210.542207 
L 367.494424 210.89062 
L 367.500511 209.769252 
L 367.610084 209.847785 
L 368.103163 210.200928 
L 368.109251 209.062696 
L 368.218824 209.142295 
L 368.711903 209.500239 
L 368.71799 208.344899 
L 368.827563 208.425579 
L 369.320642 208.788395 
L 369.326729 207.615698 
L 369.436303 207.697476 
L 369.929381 208.065238 
L 369.935469 206.874932 
L 370.045042 206.957824 
L 370.538121 207.330606 
L 370.544208 206.122432 
L 370.653781 206.206456 
L 371.14686 206.584335 
L 371.152948 205.358031 
L 371.262521 205.443204 
L 371.7556 205.826258 
L 371.761687 204.581555 
L 371.87126 204.667895 
L 372.364339 205.056203 
L 372.370427 203.79283 
L 372.48 203.880354 
L 372.973079 204.273999 
L 372.979166 202.991677 
L 373.088739 203.080404 
L 373.581818 203.479468 
L 373.581818 203.479468 
" clip-path="url(#p1199abc2eb)" style="fill: none; stroke: #1f77b4; stroke-width: 1.5; stroke-linecap: square"/>
   </g>
   <g id="patch_3">
    <path d="M 54 252 
L 54 34.56 
" style="fill: none; stroke: #000000; stroke-width: 0.8; stroke-linejoin: miter; stroke-linecap: square"/>
   </g>
   <g id="patch_4">
    <path d="M 388.8 252 
L 388.8 34.56 
" style="fill: none; stroke: #000000; stroke-width: 0.8; stroke-linejoin: miter; stroke-linecap: square"/>
   </g>
   <g id="patch_5">
    <path d="M 54 252 
L 388.8 252 
" style="fill: none; stroke: #000000; stroke-width: 0.8; stroke-linejoin: miter; stroke-linecap: square"/>
   </g>
   <g id="patch_6">
    <path d="M 54 34.56 
L 388.8 34.56 
" style="fill: none; stroke: #000000; stroke-width: 0.8; stroke-linejoin: miter; stroke-linecap: square"/>
   </g>
   <g id="text_16">
    <!-- n,l,m=1,0,0; energy=-0.47428125 hartrees -->
    <g transform="translate(90.639375 28.56) scale(0.12 -0.12)">
     <defs>
      <path id="DejaVuSans-6e" d="M 3513 2113 
L 3513 0 
L 2938 0 
L 2938 2094 
Q 2938 2591 2744 2837 
Q 2550 3084 2163 3084 
Q 1697 3084 1428 2787 
Q 1159 2491 1159 1978 
L 1159 0 
L 581 0 
L 581 3500 
L 1159 3500 
L 1159 2956 
Q 1366 3272 1645 3428 
Q 1925 3584 2291 3584 
Q 2894 3584 3203 3211 
Q 3513 2838 3513 2113 
z
" transform="scale(0.015625)"/>
      <path id="DejaVuSans-2c" d="M 750 794 
L 1409 794 
L 1409 256 
L 897 -744 
L 494 -744 
L 750 256 
L 750 794 
z
" transform="scale(0.015625)"/>
      <path id="DejaVuSans-6c" d="M 603 4863 
L 1178 4863 
L 1178 0 
L 603 0 
L 603 4863 
z
" transform="scale(0.015625)"/>
      <path id="DejaVuSans-6d" d="M 3328 2828 
Q 3544 3216 3844 3400 
Q 4144 3584 4550 3584 
Q 5097 3584 5394 3201 
Q 5691 2819 5691 2113 
L 5691 0 
L 5113 0 
L 5113 2094 
Q 5113 2597 4934 2840 
Q 4756 3084 4391 3084 
Q 3944 3084 3684 2787 
Q 3425 2491 3425 1978 
L 3425 0 
L 2847 0 
L 2847 2094 
Q 2847 2600 2669 2842 
Q 2491 3084 2119 3084 
Q 1678 3084 1418 2786 
Q 1159 2488 1159 1978 
L 1159 0 
L 581 0 
L 581 3500 
L 1159 3500 
L 1159 2956 
Q 1356 3278 1631 3431 
Q 1906 3584 2284 3584 
Q 2666 3584 2933 3390 
Q 3200 3197 3328 2828 
z
" transform="scale(0.015625)"/>
      <path id="DejaVuSans-3d" d="M 678 2906 
L 4684 2906 
L 4684 2381 
L 678 2381 
L 678 2906 
z
M 678 1631 
L 4684 1631 
L 4684 1100 
L 678 1100 
L 678 1631 
z
" transform="scale(0.015625)"/>
      <path id="DejaVuSans-3b" d="M 750 3309 
L 1409 3309 
L 1409 2516 
L 750 2516 
L 750 3309 
z
M 750 794 
L 1409 794 
L 1409 256 
L 897 -744 
L 494 -744 
L 750 256 
L 750 794 
z
" transform="scale(0.015625)"/>
      <path id="DejaVuSans-20" transform="scale(0.015625)"/>
      <path id="DejaVuSans-72" d="M 2631 2963 
Q 2534 3019 2420 3045 
Q 2306 3072 2169 3072 
Q 1681 3072 1420 2755 
Q 1159 2438 1159 1844 
L 1159 0 
L 581 0 
L 581 3500 
L 1159 3500 
L 1159 2956 
Q 1341 3275 1631 3429 
Q 1922 3584 2338 3584 
Q 2397 3584 2469 3576 
Q 2541 3569 2628 3553 
L 2631 2963 
z
" transform="scale(0.015625)"/>
      <path id="DejaVuSans-67" d="M 2906 1791 
Q 2906 2416 2648 2759 
Q 2391 3103 1925 3103 
Q 1463 3103 1205 2759 
Q 947 2416 947 1791 
Q 947 1169 1205 825 
Q 1463 481 1925 481 
Q 2391 481 2648 825 
Q 2906 1169 2906 1791 
z
M 3481 434 
Q 3481 -459 3084 -895 
Q 2688 -1331 1869 -1331 
Q 1566 -1331 1297 -1286 
Q 1028 -1241 775 -1147 
L 775 -588 
Q 1028 -725 1275 -790 
Q 1522 -856 1778 -856 
Q 2344 -856 2625 -561 
Q 2906 -266 2906 331 
L 2906 616 
Q 2728 306 2450 153 
Q 2172 0 1784 0 
Q 1141 0 747 490 
Q 353 981 353 1791 
Q 353 2603 747 3093 
Q 1141 3584 1784 3584 
Q 2172 3584 2450 3431 
Q 2728 3278 2906 2969 
L 2906 3500 
L 3481 3500 
L 3481 434 
z
" transform="scale(0.015625)"/>
      <path id="DejaVuSans-79" d="M 2059 -325 
Q 1816 -950 1584 -1140 
Q 1353 -1331 966 -1331 
L 506 -1331 
L 506 -850 
L 844 -850 
Q 1081 -850 1212 -737 
Q 1344 -625 1503 -206 
L 1606 56 
L 191 3500 
L 800 3500 
L 1894 763 
L 2988 3500 
L 3597 3500 
L 2059 -325 
z
" transform="scale(0.015625)"/>
      <path id="DejaVuSans-2d" d="M 313 2009 
L 1997 2009 
L 1997 1497 
L 313 1497 
L 313 2009 
z
" transform="scale(0.015625)"/>
      <path id="DejaVuSans-37" d="M 525 4666 
L 3525 4666 
L 3525 4397 
L 1831 0 
L 1172 0 
L 2766 4134 
L 525 4134 
L 525 4666 
z
" transform="scale(0.015625)"/>
      <path id="DejaVuSans-38" d="M 2034 2216 
Q 1584 2216 1326 1975 
Q 1069 1734 1069 1313 
Q 1069 891 1326 650 
Q 1584 409 2034 409 
Q 2484 409 2743 651 
Q 3003 894 3003 1313 
Q 3003 1734 2745 1975 
Q 2488 2216 2034 2216 
z
M 1403 2484 
Q 997 2584 770 2862 
Q 544 3141 544 3541 
Q 544 4100 942 4425 
Q 1341 4750 2034 4750 
Q 2731 4750 3128 4425 
Q 3525 4100 3525 3541 
Q 3525 3141 3298 2862 
Q 3072 2584 2669 2484 
Q 3125 2378 3379 2068 
Q 3634 1759 3634 1313 
Q 3634 634 3220 271 
Q 2806 -91 2034 -91 
Q 1263 -91 848 271 
Q 434 634 434 1313 
Q 434 1759 690 2068 
Q 947 2378 1403 2484 
z
M 1172 3481 
Q 1172 3119 1398 2916 
Q 1625 2713 2034 2713 
Q 2441 2713 2670 2916 
Q 2900 3119 2900 3481 
Q 2900 3844 2670 4047 
Q 2441 4250 2034 4250 
Q 1625 4250 1398 4047 
Q 1172 3844 1172 3481 
z
" transform="scale(0.015625)"/>
      <path id="DejaVuSans-68" d="M 3513 2113 
L 3513 0 
L 2938 0 
L 2938 2094 
Q 2938 2591 2744 2837 
Q 2550 3084 2163 3084 
Q 1697 3084 1428 2787 
Q 1159 2491 1159 1978 
L 1159 0 
L 581 0 
L 581 4863 
L 1159 4863 
L 1159 2956 
Q 1366 3272 1645 3428 
Q 1925 3584 2291 3584 
Q 2894 3584 3203 3211 
Q 3513 2838 3513 2113 
z
" transform="scale(0.015625)"/>
      <path id="DejaVuSans-61" d="M 2194 1759 
Q 1497 1759 1228 1600 
Q 959 1441 959 1056 
Q 959 750 1161 570 
Q 1363 391 1709 391 
Q 2188 391 2477 730 
Q 2766 1069 2766 1631 
L 2766 1759 
L 2194 1759 
z
M 3341 1997 
L 3341 0 
L 2766 0 
L 2766 531 
Q 2569 213 2275 61 
Q 1981 -91 1556 -91 
Q 1019 -91 701 211 
Q 384 513 384 1019 
Q 384 1609 779 1909 
Q 1175 2209 1959 2209 
L 2766 2209 
L 2766 2266 
Q 2766 2663 2505 2880 
Q 2244 3097 1772 3097 
Q 1472 3097 1187 3025 
Q 903 2953 641 2809 
L 641 3341 
Q 956 3463 1253 3523 
Q 1550 3584 1831 3584 
Q 2591 3584 2966 3190 
Q 3341 2797 3341 1997 
z
" transform="scale(0.015625)"/>
      <path id="DejaVuSans-74" d="M 1172 4494 
L 1172 3500 
L 2356 3500 
L 2356 3053 
L 1172 3053 
L 1172 1153 
Q 1172 725 1289 603 
Q 1406 481 1766 481 
L 2356 481 
L 2356 0 
L 1766 0 
Q 1100 0 847 248 
Q 594 497 594 1153 
L 594 3053 
L 172 3053 
L 172 3500 
L 594 3500 
L 594 4494 
L 1172 4494 
z
" transform="scale(0.015625)"/>
      <path id="DejaVuSans-73" d="M 2834 3397 
L 2834 2853 
Q 2591 2978 2328 3040 
Q 2066 3103 1784 3103 
Q 1356 3103 1142 2972 
Q 928 2841 928 2578 
Q 928 2378 1081 2264 
Q 1234 2150 1697 2047 
L 1894 2003 
Q 2506 1872 2764 1633 
Q 3022 1394 3022 966 
Q 3022 478 2636 193 
Q 2250 -91 1575 -91 
Q 1294 -91 989 -36 
Q 684 19 347 128 
L 347 722 
Q 666 556 975 473 
Q 1284 391 1588 391 
Q 1994 391 2212 530 
Q 2431 669 2431 922 
Q 2431 1156 2273 1281 
Q 2116 1406 1581 1522 
L 1381 1569 
Q 847 1681 609 1914 
Q 372 2147 372 2553 
Q 372 3047 722 3315 
Q 1072 3584 1716 3584 
Q 2034 3584 2315 3537 
Q 2597 3491 2834 3397 
z
" transform="scale(0.015625)"/>
     </defs>
     <use xlink:href="#DejaVuSans-6e"/>
     <use xlink:href="#DejaVuSans-2c" x="63.378906"/>
     <use xlink:href="#DejaVuSans-6c" x="95.166016"/>
     <use xlink:href="#DejaVuSans-2c" x="122.949219"/>
     <use xlink:href="#DejaVuSans-6d" x="154.736328"/>
     <use xlink:href="#DejaVuSans-3d" x="252.148438"/>
     <use xlink:href="#DejaVuSans-31" x="335.9375"/>
     <use xlink:href="#DejaVuSans-2c" x="399.560547"/>
     <use xlink:href="#DejaVuSans-30" x="431.347656"/>
     <use xlink:href="#DejaVuSans-2c" x="494.970703"/>
     <use xlink:href="#DejaVuSans-30" x="526.757812"/>
     <use xlink:href="#DejaVuSans-3b" x="590.380859"/>
     <use xlink:href="#DejaVuSans-20" x="624.072266"/>
     <use xlink:href="#DejaVuSans-65" x="655.859375"/>
     <use xlink:href="#DejaVuSans-6e" x="717.382812"/>
     <use xlink:href="#DejaVuSans-65" x="780.761719"/>
     <use xlink:href="#DejaVuSans-72" x="842.285156"/>
     <use xlink:href="#DejaVuSans-67" x="881.648438"/>
     <use xlink:href="#DejaVuSans-79" x="945.125"/>
     <use xlink:href="#DejaVuSans-3d" x="1004.304688"/>
     <use xlink:href="#DejaVuSans-2d" x="1088.09375"/>
     <use xlink:href="#DejaVuSans-30" x="1124.177734"/>
     <use xlink:href="#DejaVuSans-2e" x="1187.800781"/>
     <use xlink:href="#DejaVuSans-34" x="1219.587891"/>
     <use xlink:href="#DejaVuSans-37" x="1283.210938"/>
     <use xlink:href="#DejaVuSans-34" x="1346.833984"/>
     <use xlink:href="#DejaVuSans-32" x="1410.457031"/>
     <use xlink:href="#DejaVuSans-38" x="1474.080078"/>
     <use xlink:href="#DejaVuSans-31" x="1537.703125"/>
     <use xlink:href="#DejaVuSans-32" x="1601.326172"/>
     <use xlink:href="#DejaVuSans-35" x="1664.949219"/>
     <use xlink:href="#DejaVuSans-20" x="1728.572266"/>
     <use xlink:href="#DejaVuSans-68" x="1760.359375"/>
     <use xlink:href="#DejaVuSans-61" x="1823.738281"/>
     <use xlink:href="#DejaVuSans-72" x="1885.017578"/>
     <use xlink:href="#DejaVuSans-74" x="1926.130859"/>
     <use xlink:href="#DejaVuSans-72" x="1965.339844"/>
     <use xlink:href="#DejaVuSans-65" x="2004.203125"/>
     <use xlink:href="#DejaVuSans-65" x="2065.726562"/>
     <use xlink:href="#DejaVuSans-73" x="2127.25"/>
    </g>
   </g>
  </g>
 </g>
 <defs>
  <clipPath id="p1199abc2eb">
   <rect x="54" y="34.56" width="334.8" height="217.44"/>
  </clipPath>
 </defs>
</svg>
