<?xml version="1.0" encoding="utf-8" standalone="no"?>
<!DOCTYPE svg PUBLIC "-//W3C//DTD SVG 1.1//EN"
  "http://www.w3.org/Graphics/SVG/1.1/DTD/svg11.dtd">
<svg xmlns:xlink="http://www.w3.org/1999/xlink" width="432pt" height="288pt" viewBox="0 0 432 288" xmlns="http://www.w3.org/2000/svg" version="1.1">
 <metadata>
  <rdf:RDF xmlns:dc="http://purl.org/dc/elements/1.1/" xmlns:cc="http://creativecommons.org/ns#" xmlns:rdf="http://www.w3.org/1999/02/22-rdf-syntax-ns#">
   <cc:Work>
    <dc:type rdf:resource="http://purl.org/dc/dcmitype/StillImage"/>
    <dc:date>2023-03-19T12:35:01.764785</dc:date>
    <dc:format>image/svg+xml</dc:format>
    <dc:creator>
     <cc:Agent>
      <dc:title>Matplotlib v3.6.2, https://matplotlib.org/</dc:title>
     </cc:Agent>
    </dc:creator>
   </cc:Work>
  </rdf:RDF>
 </metadata>
 <defs>
  <style type="text/css">*{stroke-linejoin: round; stroke-linecap: butt}</style>
 </defs>
 <g id="figure_1">
  <g id="patch_1">
   <path d="M 0 288 
L 432 288 
L 432 0 
L 0 0 
z
" style="fill: #ffffff"/>
  </g>
  <g id="axes_1">
   <g id="patch_2">
    <path d="M 54 252 
L 388.8 252 
L 388.8 34.56 
L 54 34.56 
z
" style="fill: #ffffff"/>
   </g>
   <g id="matplotlib.axis_1">
    <g id="xtick_1">
     <g id="line2d_1">
      <defs>
       <path id="m31ea022fbd" d="M 0 0 
L 0 3.5 
" style="stroke: #000000; stroke-width: 0.8"/>
      </defs>
      <g>
       <use xlink:href="#m31ea022fbd" x="69.218182" y="252" style="stroke: #000000; stroke-width: 0.8"/>
      </g>
     </g>
     <g id="text_1">
      <!-- 0 -->
      <g transform="translate(66.036932 266.598437) scale(0.1 -0.1)">
       <defs>
        <path id="DejaVuSans-30" d="M 2034 4250 
Q 1547 4250 1301 3770 
Q 1056 3291 1056 2328 
Q 1056 1369 1301 889 
Q 1547 409 2034 409 
Q 2525 409 2770 889 
Q 3016 1369 3016 2328 
Q 3016 3291 2770 3770 
Q 2525 4250 2034 4250 
z
M 2034 4750 
Q 2819 4750 3233 4129 
Q 3647 3509 3647 2328 
Q 3647 1150 3233 529 
Q 2819 -91 2034 -91 
Q 1250 -91 836 529 
Q 422 1150 422 2328 
Q 422 3509 836 4129 
Q 1250 4750 2034 4750 
z
" transform="scale(0.015625)"/>
       </defs>
       <use xlink:href="#DejaVuSans-30"/>
      </g>
     </g>
    </g>
    <g id="xtick_2">
     <g id="line2d_2">
      <g>
       <use xlink:href="#m31ea022fbd" x="107.263684" y="252" style="stroke: #000000; stroke-width: 0.8"/>
      </g>
     </g>
     <g id="text_2">
      <!-- 10 -->
      <g transform="translate(100.901184 266.598437) scale(0.1 -0.1)">
       <defs>
        <path id="DejaVuSans-31" d="M 794 531 
L 1825 531 
L 1825 4091 
L 703 3866 
L 703 4441 
L 1819 4666 
L 2450 4666 
L 2450 531 
L 3481 531 
L 3481 0 
L 794 0 
L 794 531 
z
" transform="scale(0.015625)"/>
       </defs>
       <use xlink:href="#DejaVuSans-31"/>
       <use xlink:href="#DejaVuSans-30" x="63.623047"/>
      </g>
     </g>
    </g>
    <g id="xtick_3">
     <g id="line2d_3">
      <g>
       <use xlink:href="#m31ea022fbd" x="145.309186" y="252" style="stroke: #000000; stroke-width: 0.8"/>
      </g>
     </g>
     <g id="text_3">
      <!-- 20 -->
      <g transform="translate(138.946686 266.598437) scale(0.1 -0.1)">
       <defs>
        <path id="DejaVuSans-32" d="M 1228 531 
L 3431 531 
L 3431 0 
L 469 0 
L 469 531 
Q 828 903 1448 1529 
Q 2069 2156 2228 2338 
Q 2531 2678 2651 2914 
Q 2772 3150 2772 3378 
Q 2772 3750 2511 3984 
Q 2250 4219 1831 4219 
Q 1534 4219 1204 4116 
Q 875 4013 500 3803 
L 500 4441 
Q 881 4594 1212 4672 
Q 1544 4750 1819 4750 
Q 2544 4750 2975 4387 
Q 3406 4025 3406 3419 
Q 3406 3131 3298 2873 
Q 3191 2616 2906 2266 
Q 2828 2175 2409 1742 
Q 1991 1309 1228 531 
z
" transform="scale(0.015625)"/>
       </defs>
       <use xlink:href="#DejaVuSans-32"/>
       <use xlink:href="#DejaVuSans-30" x="63.623047"/>
      </g>
     </g>
    </g>
    <g id="xtick_4">
     <g id="line2d_4">
      <g>
       <use xlink:href="#m31ea022fbd" x="183.354688" y="252" style="stroke: #000000; stroke-width: 0.8"/>
      </g>
     </g>
     <g id="text_4">
      <!-- 30 -->
      <g transform="translate(176.992188 266.598437) scale(0.1 -0.1)">
       <defs>
        <path id="DejaVuSans-33" d="M 2597 2516 
Q 3050 2419 3304 2112 
Q 3559 1806 3559 1356 
Q 3559 666 3084 287 
Q 2609 -91 1734 -91 
Q 1441 -91 1130 -33 
Q 819 25 488 141 
L 488 750 
Q 750 597 1062 519 
Q 1375 441 1716 441 
Q 2309 441 2620 675 
Q 2931 909 2931 1356 
Q 2931 1769 2642 2001 
Q 2353 2234 1838 2234 
L 1294 2234 
L 1294 2753 
L 1863 2753 
Q 2328 2753 2575 2939 
Q 2822 3125 2822 3475 
Q 2822 3834 2567 4026 
Q 2313 4219 1838 4219 
Q 1578 4219 1281 4162 
Q 984 4106 628 3988 
L 628 4550 
Q 988 4650 1302 4700 
Q 1616 4750 1894 4750 
Q 2613 4750 3031 4423 
Q 3450 4097 3450 3541 
Q 3450 3153 3228 2886 
Q 3006 2619 2597 2516 
z
" transform="scale(0.015625)"/>
       </defs>
       <use xlink:href="#DejaVuSans-33"/>
       <use xlink:href="#DejaVuSans-30" x="63.623047"/>
      </g>
     </g>
    </g>
    <g id="xtick_5">
     <g id="line2d_5">
      <g>
       <use xlink:href="#m31ea022fbd" x="221.40019" y="252" style="stroke: #000000; stroke-width: 0.8"/>
      </g>
     </g>
     <g id="text_5">
      <!-- 40 -->
      <g transform="translate(215.03769 266.598437) scale(0.1 -0.1)">
       <defs>
        <path id="DejaVuSans-34" d="M 2419 4116 
L 825 1625 
L 2419 1625 
L 2419 4116 
z
M 2253 4666 
L 3047 4666 
L 3047 1625 
L 3713 1625 
L 3713 1100 
L 3047 1100 
L 3047 0 
L 2419 0 
L 2419 1100 
L 313 1100 
L 313 1709 
L 2253 4666 
z
" transform="scale(0.015625)"/>
       </defs>
       <use xlink:href="#DejaVuSans-34"/>
       <use xlink:href="#DejaVuSans-30" x="63.623047"/>
      </g>
     </g>
    </g>
    <g id="xtick_6">
     <g id="line2d_6">
      <g>
       <use xlink:href="#m31ea022fbd" x="259.445692" y="252" style="stroke: #000000; stroke-width: 0.8"/>
      </g>
     </g>
     <g id="text_6">
      <!-- 50 -->
      <g transform="translate(253.083192 266.598437) scale(0.1 -0.1)">
       <defs>
        <path id="DejaVuSans-35" d="M 691 4666 
L 3169 4666 
L 3169 4134 
L 1269 4134 
L 1269 2991 
Q 1406 3038 1543 3061 
Q 1681 3084 1819 3084 
Q 2600 3084 3056 2656 
Q 3513 2228 3513 1497 
Q 3513 744 3044 326 
Q 2575 -91 1722 -91 
Q 1428 -91 1123 -41 
Q 819 9 494 109 
L 494 744 
Q 775 591 1075 516 
Q 1375 441 1709 441 
Q 2250 441 2565 725 
Q 2881 1009 2881 1497 
Q 2881 1984 2565 2268 
Q 2250 2553 1709 2553 
Q 1456 2553 1204 2497 
Q 953 2441 691 2322 
L 691 4666 
z
" transform="scale(0.015625)"/>
       </defs>
       <use xlink:href="#DejaVuSans-35"/>
       <use xlink:href="#DejaVuSans-30" x="63.623047"/>
      </g>
     </g>
    </g>
    <g id="xtick_7">
     <g id="line2d_7">
      <g>
       <use xlink:href="#m31ea022fbd" x="297.491194" y="252" style="stroke: #000000; stroke-width: 0.8"/>
      </g>
     </g>
     <g id="text_7">
      <!-- 60 -->
      <g transform="translate(291.128694 266.598437) scale(0.1 -0.1)">
       <defs>
        <path id="DejaVuSans-36" d="M 2113 2584 
Q 1688 2584 1439 2293 
Q 1191 2003 1191 1497 
Q 1191 994 1439 701 
Q 1688 409 2113 409 
Q 2538 409 2786 701 
Q 3034 994 3034 1497 
Q 3034 2003 2786 2293 
Q 2538 2584 2113 2584 
z
M 3366 4563 
L 3366 3988 
Q 3128 4100 2886 4159 
Q 2644 4219 2406 4219 
Q 1781 4219 1451 3797 
Q 1122 3375 1075 2522 
Q 1259 2794 1537 2939 
Q 1816 3084 2150 3084 
Q 2853 3084 3261 2657 
Q 3669 2231 3669 1497 
Q 3669 778 3244 343 
Q 2819 -91 2113 -91 
Q 1303 -91 875 529 
Q 447 1150 447 2328 
Q 447 3434 972 4092 
Q 1497 4750 2381 4750 
Q 2619 4750 2861 4703 
Q 3103 4656 3366 4563 
z
" transform="scale(0.015625)"/>
       </defs>
       <use xlink:href="#DejaVuSans-36"/>
       <use xlink:href="#DejaVuSans-30" x="63.623047"/>
      </g>
     </g>
    </g>
    <g id="xtick_8">
     <g id="line2d_8">
      <g>
       <use xlink:href="#m31ea022fbd" x="335.536697" y="252" style="stroke: #000000; stroke-width: 0.8"/>
      </g>
     </g>
     <g id="text_8">
      <!-- 70 -->
      <g transform="translate(329.174197 266.598437) scale(0.1 -0.1)">
       <defs>
        <path id="DejaVuSans-37" d="M 525 4666 
L 3525 4666 
L 3525 4397 
L 1831 0 
L 1172 0 
L 2766 4134 
L 525 4134 
L 525 4666 
z
" transform="scale(0.015625)"/>
       </defs>
       <use xlink:href="#DejaVuSans-37"/>
       <use xlink:href="#DejaVuSans-30" x="63.623047"/>
      </g>
     </g>
    </g>
    <g id="xtick_9">
     <g id="line2d_9">
      <g>
       <use xlink:href="#m31ea022fbd" x="373.582199" y="252" style="stroke: #000000; stroke-width: 0.8"/>
      </g>
     </g>
     <g id="text_9">
      <!-- 80 -->
      <g transform="translate(367.219699 266.598437) scale(0.1 -0.1)">
       <defs>
        <path id="DejaVuSans-38" d="M 2034 2216 
Q 1584 2216 1326 1975 
Q 1069 1734 1069 1313 
Q 1069 891 1326 650 
Q 1584 409 2034 409 
Q 2484 409 2743 651 
Q 3003 894 3003 1313 
Q 3003 1734 2745 1975 
Q 2488 2216 2034 2216 
z
M 1403 2484 
Q 997 2584 770 2862 
Q 544 3141 544 3541 
Q 544 4100 942 4425 
Q 1341 4750 2034 4750 
Q 2731 4750 3128 4425 
Q 3525 4100 3525 3541 
Q 3525 3141 3298 2862 
Q 3072 2584 2669 2484 
Q 3125 2378 3379 2068 
Q 3634 1759 3634 1313 
Q 3634 634 3220 271 
Q 2806 -91 2034 -91 
Q 1263 -91 848 271 
Q 434 634 434 1313 
Q 434 1759 690 2068 
Q 947 2378 1403 2484 
z
M 1172 3481 
Q 1172 3119 1398 2916 
Q 1625 2713 2034 2713 
Q 2441 2713 2670 2916 
Q 2900 3119 2900 3481 
Q 2900 3844 2670 4047 
Q 2441 4250 2034 4250 
Q 1625 4250 1398 4047 
Q 1172 3844 1172 3481 
z
" transform="scale(0.015625)"/>
       </defs>
       <use xlink:href="#DejaVuSans-38"/>
       <use xlink:href="#DejaVuSans-30" x="63.623047"/>
      </g>
     </g>
    </g>
   </g>
   <g id="matplotlib.axis_2">
    <g id="ytick_1">
     <g id="line2d_10">
      <defs>
       <path id="mf308525dc3" d="M 0 0 
L -3.5 0 
" style="stroke: #000000; stroke-width: 0.8"/>
      </defs>
      <g>
       <use xlink:href="#mf308525dc3" x="54" y="242.116364" style="stroke: #000000; stroke-width: 0.8"/>
      </g>
     </g>
     <g id="text_10">
      <!-- 0.00000 -->
      <g transform="translate(5.646875 245.915582) scale(0.1 -0.1)">
       <defs>
        <path id="DejaVuSans-2e" d="M 684 794 
L 1344 794 
L 1344 0 
L 684 0 
L 684 794 
z
" transform="scale(0.015625)"/>
       </defs>
       <use xlink:href="#DejaVuSans-30"/>
       <use xlink:href="#DejaVuSans-2e" x="63.623047"/>
       <use xlink:href="#DejaVuSans-30" x="95.410156"/>
       <use xlink:href="#DejaVuSans-30" x="159.033203"/>
       <use xlink:href="#DejaVuSans-30" x="222.65625"/>
       <use xlink:href="#DejaVuSans-30" x="286.279297"/>
       <use xlink:href="#DejaVuSans-30" x="349.902344"/>
      </g>
     </g>
    </g>
    <g id="ytick_2">
     <g id="line2d_11">
      <g>
       <use xlink:href="#mf308525dc3" x="54" y="210.203662" style="stroke: #000000; stroke-width: 0.8"/>
      </g>
     </g>
     <g id="text_11">
      <!-- 0.00005 -->
      <g transform="translate(5.646875 214.002881) scale(0.1 -0.1)">
       <use xlink:href="#DejaVuSans-30"/>
       <use xlink:href="#DejaVuSans-2e" x="63.623047"/>
       <use xlink:href="#DejaVuSans-30" x="95.410156"/>
       <use xlink:href="#DejaVuSans-30" x="159.033203"/>
       <use xlink:href="#DejaVuSans-30" x="222.65625"/>
       <use xlink:href="#DejaVuSans-30" x="286.279297"/>
       <use xlink:href="#DejaVuSans-35" x="349.902344"/>
      </g>
     </g>
    </g>
    <g id="ytick_3">
     <g id="line2d_12">
      <g>
       <use xlink:href="#mf308525dc3" x="54" y="178.290961" style="stroke: #000000; stroke-width: 0.8"/>
      </g>
     </g>
     <g id="text_12">
      <!-- 0.00010 -->
      <g transform="translate(5.646875 182.09018) scale(0.1 -0.1)">
       <use xlink:href="#DejaVuSans-30"/>
       <use xlink:href="#DejaVuSans-2e" x="63.623047"/>
       <use xlink:href="#DejaVuSans-30" x="95.410156"/>
       <use xlink:href="#DejaVuSans-30" x="159.033203"/>
       <use xlink:href="#DejaVuSans-30" x="222.65625"/>
       <use xlink:href="#DejaVuSans-31" x="286.279297"/>
       <use xlink:href="#DejaVuSans-30" x="349.902344"/>
      </g>
     </g>
    </g>
    <g id="ytick_4">
     <g id="line2d_13">
      <g>
       <use xlink:href="#mf308525dc3" x="54" y="146.37826" style="stroke: #000000; stroke-width: 0.8"/>
      </g>
     </g>
     <g id="text_13">
      <!-- 0.00015 -->
      <g transform="translate(5.646875 150.177478) scale(0.1 -0.1)">
       <use xlink:href="#DejaVuSans-30"/>
       <use xlink:href="#DejaVuSans-2e" x="63.623047"/>
       <use xlink:href="#DejaVuSans-30" x="95.410156"/>
       <use xlink:href="#DejaVuSans-30" x="159.033203"/>
       <use xlink:href="#DejaVuSans-30" x="222.65625"/>
       <use xlink:href="#DejaVuSans-31" x="286.279297"/>
       <use xlink:href="#DejaVuSans-35" x="349.902344"/>
      </g>
     </g>
    </g>
    <g id="ytick_5">
     <g id="line2d_14">
      <g>
       <use xlink:href="#mf308525dc3" x="54" y="114.465558" style="stroke: #000000; stroke-width: 0.8"/>
      </g>
     </g>
     <g id="text_14">
      <!-- 0.00020 -->
      <g transform="translate(5.646875 118.264777) scale(0.1 -0.1)">
       <use xlink:href="#DejaVuSans-30"/>
       <use xlink:href="#DejaVuSans-2e" x="63.623047"/>
       <use xlink:href="#DejaVuSans-30" x="95.410156"/>
       <use xlink:href="#DejaVuSans-30" x="159.033203"/>
       <use xlink:href="#DejaVuSans-30" x="222.65625"/>
       <use xlink:href="#DejaVuSans-32" x="286.279297"/>
       <use xlink:href="#DejaVuSans-30" x="349.902344"/>
      </g>
     </g>
    </g>
    <g id="ytick_6">
     <g id="line2d_15">
      <g>
       <use xlink:href="#mf308525dc3" x="54" y="82.552857" style="stroke: #000000; stroke-width: 0.8"/>
      </g>
     </g>
     <g id="text_15">
      <!-- 0.00025 -->
      <g transform="translate(5.646875 86.352076) scale(0.1 -0.1)">
       <use xlink:href="#DejaVuSans-30"/>
       <use xlink:href="#DejaVuSans-2e" x="63.623047"/>
       <use xlink:href="#DejaVuSans-30" x="95.410156"/>
       <use xlink:href="#DejaVuSans-30" x="159.033203"/>
       <use xlink:href="#DejaVuSans-30" x="222.65625"/>
       <use xlink:href="#DejaVuSans-32" x="286.279297"/>
       <use xlink:href="#DejaVuSans-35" x="349.902344"/>
      </g>
     </g>
    </g>
    <g id="ytick_7">
     <g id="line2d_16">
      <g>
       <use xlink:href="#mf308525dc3" x="54" y="50.640156" style="stroke: #000000; stroke-width: 0.8"/>
      </g>
     </g>
     <g id="text_16">
      <!-- 0.00030 -->
      <g transform="translate(5.646875 54.439374) scale(0.1 -0.1)">
       <use xlink:href="#DejaVuSans-30"/>
       <use xlink:href="#DejaVuSans-2e" x="63.623047"/>
       <use xlink:href="#DejaVuSans-30" x="95.410156"/>
       <use xlink:href="#DejaVuSans-30" x="159.033203"/>
       <use xlink:href="#DejaVuSans-30" x="222.65625"/>
       <use xlink:href="#DejaVuSans-33" x="286.279297"/>
       <use xlink:href="#DejaVuSans-30" x="349.902344"/>
      </g>
     </g>
    </g>
   </g>
   <g id="line2d_17">
    <path d="M 69.218182 242.116364 
L 69.548797 242.005482 
L 70.316555 241.309191 
L 70.321882 241.334124 
L 70.549774 241.075303 
L 70.550155 241.120565 
L 70.659726 240.979362 
L 70.664291 241.02042 
L 70.854138 240.808267 
L 70.854519 240.867276 
L 70.96447 240.730539 
L 70.968655 240.785039 
L 71.120457 240.618086 
L 71.120837 240.687959 
L 71.231169 240.559793 
L 71.234974 240.625144 
L 71.34873 240.493238 
L 71.34911 240.571215 
L 71.459442 240.453633 
L 71.463247 240.526326 
L 71.577003 240.405745 
L 71.577383 240.490521 
L 71.653094 240.384944 
L 71.687715 240.384954 
L 71.69152 240.463747 
L 71.805276 240.355705 
L 71.805656 240.445866 
L 71.881367 240.347151 
L 71.916369 240.352133 
L 71.919793 240.436662 
L 72.033549 240.341777 
L 72.11002 240.439819 
L 72.144642 240.355212 
L 72.148066 240.443109 
L 72.261822 240.36151 
L 72.338293 240.472041 
L 72.372915 240.390328 
L 72.376339 240.48021 
L 72.452049 240.401327 
L 72.528521 240.520246 
L 72.563142 240.441501 
L 72.566566 240.532005 
L 72.642277 240.460051 
L 72.718748 240.58547 
L 72.75337 240.510121 
L 72.756794 240.600347 
L 72.832505 240.535281 
L 72.908976 240.665306 
L 72.943597 240.593712 
L 72.946641 240.587295 
L 72.947021 240.682808 
L 73.022732 240.624494 
L 73.099203 240.757262 
L 73.133825 240.689714 
L 73.136869 240.683661 
L 73.175294 240.796872 
L 73.21296 240.72511 
L 73.289431 240.858816 
L 73.324052 240.795546 
L 73.327096 240.789876 
L 73.365522 240.901563 
L 73.403187 240.834543 
L 73.479659 240.967465 
L 73.51428 240.908645 
L 73.517324 240.903373 
L 73.55575 241.012362 
L 73.593415 240.950247 
L 73.669886 241.080767 
L 73.704507 241.026514 
L 73.707551 241.021649 
L 73.707932 241.103776 
L 73.783642 241.069755 
L 73.860114 241.196368 
L 73.895115 241.146193 
L 73.898159 241.219566 
L 73.97387 241.190707 
L 74.050341 241.312037 
L 74.085343 241.266568 
L 74.088387 241.334992 
L 74.164097 241.310874 
L 74.240569 241.425682 
L 74.27557 241.384896 
L 74.278614 241.447995 
L 74.354325 241.42818 
L 74.430796 241.535369 
L 74.465798 241.499202 
L 74.468842 241.556673 
L 74.544552 241.540718 
L 74.621024 241.639331 
L 74.656025 241.607687 
L 74.659069 241.659294 
L 74.73478 241.646756 
L 74.811251 241.735983 
L 74.846253 241.70873 
L 74.849297 241.754309 
L 74.925007 241.744745 
L 75.001479 241.823919 
L 75.03648 241.8009 
L 75.039524 241.840349 
L 75.15328 241.849809 
L 75.229752 241.916233 
L 75.264753 241.89805 
L 75.267797 241.9301 
L 75.381553 241.939345 
L 75.458025 241.992494 
L 75.493026 241.978847 
L 75.49607 242.003541 
L 75.647872 242.02206 
L 75.724343 242.059353 
L 75.759345 242.050579 
L 75.762389 242.066869 
L 76.020337 242.097244 
L 77.701948 241.781969 
L 77.77842 241.713426 
L 77.813422 241.724833 
L 77.816465 241.693745 
L 77.930221 241.665705 
L 78.006693 241.589513 
L 78.041695 241.601268 
L 78.044738 241.567548 
L 78.158494 241.535249 
L 78.234966 241.452496 
L 78.270348 241.464387 
L 78.273011 241.42849 
L 78.386767 241.392073 
L 78.463239 241.303875 
L 78.498621 241.31545 
L 78.501284 241.278085 
L 78.61504 241.237734 
L 78.691512 241.145219 
L 78.726894 241.156174 
L 78.729557 241.117915 
L 78.805268 241.10176 
L 78.881739 241.006512 
L 78.917122 241.016733 
L 78.919785 240.978154 
L 78.995495 240.960123 
L 79.071967 240.86292 
L 79.107349 240.872223 
L 79.110012 240.8337 
L 79.185723 240.813795 
L 79.262194 240.715407 
L 79.297577 240.723621 
L 79.30024 240.685519 
L 79.37595 240.663756 
L 79.452422 240.564937 
L 79.487804 240.571905 
L 79.490467 240.534572 
L 79.566178 240.510982 
L 79.642649 240.412465 
L 79.678032 240.418043 
L 79.680695 240.381814 
L 79.794451 240.325401 
L 79.870922 240.228184 
L 79.906305 240.231924 
L 79.908968 240.197434 
L 80.022724 240.138911 
L 80.099195 240.04397 
L 80.134578 240.045709 
L 80.250997 239.953105 
L 80.363231 239.860959 
L 80.47927 239.769517 
L 80.591504 239.679156 
L 80.745589 239.560085 
L 80.857823 239.4727 
L 81.024082 239.335092 
L 81.24018 239.191785 
L 81.352795 239.112126 
L 81.658681 238.908766 
L 81.773198 238.830472 
L 83.675092 238.084017 
L 83.675473 238.115001 
L 83.785805 238.071684 
L 83.789609 238.101383 
L 83.941411 238.052704 
L 83.941791 238.08856 
L 84.017502 238.047218 
L 84.052123 238.048641 
L 84.055928 238.082926 
L 84.207729 238.040185 
L 84.284201 238.081813 
L 84.318822 238.043864 
L 84.322246 238.082932 
L 84.436002 238.044224 
L 84.512474 238.094049 
L 84.547095 238.054745 
L 84.550519 238.097367 
L 84.664275 238.061632 
L 84.740747 238.119338 
L 84.775368 238.078826 
L 84.778792 238.124797 
L 84.892548 238.092079 
L 84.96902 238.157306 
L 85.003641 238.115737 
L 85.007065 238.164837 
L 85.120821 238.135158 
L 85.197293 238.207508 
L 85.231914 238.165038 
L 85.235338 238.21703 
L 85.349094 238.190394 
L 85.425566 238.269437 
L 85.460187 238.226221 
L 85.463611 238.280859 
L 85.577367 238.25725 
L 85.653839 238.342523 
L 85.68846 238.29872 
L 85.691884 238.355746 
L 85.767595 238.321411 
L 85.844066 238.411506 
L 85.878688 238.367332 
L 85.882112 238.426147 
L 85.957822 238.392858 
L 86.034294 238.487421 
L 86.068915 238.442985 
L 86.072339 238.503401 
L 86.14805 238.471196 
L 86.224521 238.569864 
L 86.259143 238.525274 
L 86.262567 238.587099 
L 86.338277 238.55601 
L 86.414749 238.65841 
L 86.44937 238.613771 
L 86.452794 238.676813 
L 86.528505 238.646867 
L 86.604976 238.752618 
L 86.639598 238.708036 
L 86.643022 238.7721 
L 86.718732 238.743321 
L 86.795204 238.852035 
L 86.829825 238.807612 
L 86.833249 238.872503 
L 86.90896 238.844908 
L 86.985431 238.956195 
L 87.020433 238.911543 
L 87.023477 238.977554 
L 87.099187 238.951156 
L 87.175659 239.06462 
L 87.210661 239.02033 
L 87.213704 239.086775 
L 87.289415 239.061583 
L 87.365886 239.17683 
L 87.400888 239.132996 
L 87.403932 239.199683 
L 87.479642 239.175701 
L 87.556114 239.292334 
L 87.591116 239.24905 
L 87.594159 239.315787 
L 87.66987 239.293016 
L 87.746341 239.41064 
L 87.781343 239.367996 
L 87.784387 239.434594 
L 87.860097 239.413031 
L 87.936569 239.531255 
L 87.971571 239.489337 
L 87.974614 239.555612 
L 88.050325 239.535248 
L 88.126796 239.653685 
L 88.161798 239.612575 
L 88.164842 239.678346 
L 88.240552 239.65917 
L 88.317024 239.777439 
L 88.352026 239.737215 
L 88.355069 239.802306 
L 88.43078 239.784303 
L 88.507251 239.902029 
L 88.542253 239.862766 
L 88.545297 239.927005 
L 88.621007 239.910157 
L 88.697479 240.026972 
L 88.732481 239.988741 
L 88.735524 240.051961 
L 88.811235 240.036247 
L 88.887706 240.151793 
L 88.922708 240.114659 
L 88.925752 240.176701 
L 89.001462 240.162096 
L 89.077934 240.276024 
L 89.112936 240.24005 
L 89.115979 240.300759 
L 89.19169 240.287235 
L 89.268161 240.399208 
L 89.303163 240.36445 
L 89.306207 240.42368 
L 89.381917 240.411207 
L 89.458389 240.520898 
L 89.493391 240.48741 
L 89.496434 240.545019 
L 89.572145 240.533565 
L 89.648616 240.64066 
L 89.683618 240.60849 
L 89.686662 240.664344 
L 89.762372 240.653875 
L 89.838844 240.758072 
L 89.873846 240.727263 
L 89.876889 240.781237 
L 89.9526 240.771715 
L 90.029071 240.872728 
L 90.064073 240.84332 
L 90.067117 240.895293 
L 90.142828 240.88668 
L 90.219299 240.984235 
L 90.254301 240.956262 
L 90.257344 241.006125 
L 90.333055 240.99838 
L 90.409526 241.092218 
L 90.444528 241.065711 
L 90.447572 241.11336 
L 90.523283 241.106442 
L 90.599754 241.196319 
L 90.634756 241.171303 
L 90.6378 241.216643 
L 90.71351 241.210507 
L 90.789982 241.296196 
L 90.824983 241.272691 
L 90.828027 241.315635 
L 90.903738 241.310238 
L 90.980209 241.391526 
L 91.015211 241.36955 
L 91.018255 241.410019 
L 91.132011 241.423744 
L 91.208482 241.499493 
L 91.243484 241.479367 
L 91.246528 241.516773 
L 91.360284 241.53003 
L 91.436755 241.599986 
L 91.471757 241.581721 
L 91.474801 241.615976 
L 91.588557 241.628621 
L 91.665028 241.692557 
L 91.70003 241.676155 
L 91.703074 241.707186 
L 91.81683 241.71908 
L 91.893301 241.776798 
L 91.928303 241.762256 
L 91.931347 241.790002 
L 92.083148 241.813815 
L 92.15962 241.864068 
L 92.194621 241.851681 
L 92.197665 241.875538 
L 92.349467 241.896396 
L 92.425938 241.938998 
L 92.46094 241.928741 
L 92.463984 241.948669 
L 92.653831 241.975289 
L 92.730302 242.008977 
L 92.765304 242.00111 
L 92.768348 242.016525 
L 93.034286 242.049844 
L 93.110757 242.072231 
L 93.145759 242.067267 
L 93.604968 242.109939 
L 93.717202 242.114435 
L 95.050697 241.979494 
L 95.127169 241.943711 
L 95.162171 241.951634 
L 95.165214 241.933883 
L 95.355061 241.90148 
L 95.431533 241.857779 
L 95.466535 241.867178 
L 95.469578 241.845876 
L 95.659425 241.806755 
L 95.735897 241.755496 
L 95.770899 241.76623 
L 95.773942 241.741591 
L 95.925744 241.710618 
L 96.002215 241.65307 
L 96.037217 241.664852 
L 96.040261 241.637481 
L 96.192062 241.602573 
L 96.268534 241.539066 
L 96.303536 241.55178 
L 96.306579 241.521863 
L 96.420335 241.500857 
L 96.496807 241.432518 
L 96.531809 241.44594 
L 96.534852 241.413994 
L 96.648608 241.391089 
L 96.72508 241.318186 
L 96.760082 241.33223 
L 96.763125 241.2984 
L 96.876881 241.273624 
L 96.953353 241.196438 
L 96.988355 241.211017 
L 96.991398 241.175453 
L 97.105154 241.148842 
L 97.181626 241.067661 
L 97.216628 241.082688 
L 97.219671 241.045543 
L 97.333427 241.017137 
L 97.409899 240.932259 
L 97.444901 240.947648 
L 97.447944 240.909077 
L 97.5617 240.878922 
L 97.638172 240.790652 
L 97.673174 240.806317 
L 97.676217 240.766478 
L 97.751928 240.759079 
L 97.828399 240.668219 
L 97.863401 240.684048 
L 97.866445 240.643274 
L 97.942155 240.635266 
L 98.018627 240.542035 
L 98.053629 240.55797 
L 98.056672 240.516371 
L 98.132383 240.507744 
L 98.208854 240.412364 
L 98.243856 240.428345 
L 98.2469 240.386034 
L 98.32261 240.376778 
L 98.399082 240.279472 
L 98.434084 240.295443 
L 98.437127 240.252531 
L 98.512838 240.242637 
L 98.589309 240.14363 
L 98.624311 240.159534 
L 98.627355 240.116132 
L 98.703065 240.105596 
L 98.779537 240.005113 
L 98.814539 240.020893 
L 98.817582 239.977113 
L 98.893293 239.965929 
L 98.969764 239.864197 
L 99.004766 239.879799 
L 99.00781 239.835751 
L 99.083521 239.823917 
L 99.159992 239.721161 
L 99.194994 239.73653 
L 99.198037 239.692324 
L 99.273748 239.679837 
L 99.350219 239.576284 
L 99.385602 239.591531 
L 99.388265 239.547112 
L 99.463976 239.533973 
L 99.540447 239.429846 
L 99.575829 239.444753 
L 99.578492 239.400396 
L 99.654203 239.386606 
L 99.730675 239.282128 
L 99.766057 239.296645 
L 99.76872 239.252456 
L 99.844431 239.238018 
L 99.920902 239.13341 
L 99.956284 239.147486 
L 99.958948 239.103571 
L 100.034658 239.088488 
L 100.11113 238.98397 
L 100.146512 238.997558 
L 100.149175 238.95402 
L 100.224886 238.938298 
L 100.301357 238.834086 
L 100.336739 238.847139 
L 100.339403 238.804079 
L 100.415113 238.787725 
L 100.491585 238.684031 
L 100.526967 238.696506 
L 100.52963 238.654024 
L 100.605341 238.637044 
L 100.681812 238.534078 
L 100.717194 238.545931 
L 100.719858 238.504124 
L 100.795568 238.486527 
L 100.87204 238.384496 
L 100.907422 238.395686 
L 100.910085 238.354648 
L 100.985796 238.336445 
L 101.062267 238.235551 
L 101.097649 238.246038 
L 101.100313 238.205861 
L 101.176023 238.187063 
L 101.252495 238.087502 
L 101.287877 238.097249 
L 101.29054 238.058023 
L 101.366251 238.038642 
L 101.442722 237.940608 
L 101.478104 237.949577 
L 101.480768 237.911389 
L 101.556478 237.891438 
L 101.63295 237.795118 
L 101.668332 237.803277 
L 101.670995 237.76621 
L 101.784751 237.716754 
L 101.861223 237.622731 
L 101.896605 237.629876 
L 101.899268 237.594261 
L 102.013024 237.544608 
L 102.089496 237.453137 
L 102.124878 237.459223 
L 102.127541 237.425171 
L 102.241297 237.375413 
L 102.317769 237.286736 
L 102.353151 237.291724 
L 102.355814 237.25934 
L 102.46957 237.209567 
L 102.546042 237.123916 
L 102.581424 237.127771 
L 102.584087 237.097155 
L 102.697843 237.047455 
L 102.774315 236.965052 
L 102.809697 236.96774 
L 102.926116 236.889445 
L 103.002588 236.810502 
L 103.03797 236.811994 
L 103.192435 236.710759 
L 103.304669 236.636167 
L 103.458753 236.538676 
L 103.570987 236.467148 
L 103.763117 236.35074 
L 103.875352 236.282968 
L 104.102864 236.151609 
L 104.35054 236.00902 
L 104.676209 235.84937 
L 104.789204 235.794104 
L 105.322983 235.557269 
L 105.440543 235.50869 
L 106.996985 235.073835 
L 106.997365 235.089766 
L 107.107697 235.057948 
L 107.111502 235.073103 
L 107.37744 235.021632 
L 107.37782 235.041791 
L 107.488152 235.012441 
L 107.491957 235.031614 
L 107.681804 234.995492 
L 107.682184 235.018969 
L 107.757895 234.991123 
L 107.792516 234.991643 
L 107.796321 235.013966 
L 107.986168 234.983196 
L 108.062639 235.0098 
L 108.024214 234.982629 
L 108.097261 234.984376 
L 108.100685 235.010059 
L 108.252487 234.983722 
L 108.328958 235.016074 
L 108.363579 234.989488 
L 108.367003 235.017816 
L 108.518805 234.99468 
L 108.595276 235.032677 
L 108.629898 235.00498 
L 108.633322 235.035884 
L 108.785124 235.015948 
L 108.861595 235.059469 
L 108.896216 235.030714 
L 108.899641 235.064119 
L 109.013397 235.042267 
L 109.089868 235.090419 
L 109.124489 235.0608 
L 109.127914 235.096286 
L 109.24167 235.075938 
L 109.318141 235.128614 
L 109.352762 235.098171 
L 109.356187 235.135675 
L 109.469943 235.116832 
L 109.546414 235.173918 
L 109.581035 235.142696 
L 109.58446 235.18215 
L 109.698216 235.164813 
L 109.774687 235.226186 
L 109.809308 235.194227 
L 109.812733 235.235564 
L 109.926489 235.219726 
L 110.00296 235.285258 
L 110.037581 235.252607 
L 110.041006 235.295752 
L 110.154762 235.281407 
L 110.231233 235.350961 
L 110.265854 235.317664 
L 110.269279 235.362543 
L 110.383035 235.34968 
L 110.459506 235.423112 
L 110.494128 235.389216 
L 110.497552 235.435751 
L 110.611308 235.424357 
L 110.687779 235.501518 
L 110.722401 235.46707 
L 110.725825 235.51518 
L 110.839581 235.505239 
L 110.916052 235.585975 
L 110.950674 235.551022 
L 110.954098 235.600624 
L 111.029808 235.577231 
L 111.10628 235.660823 
L 111.140901 235.625486 
L 111.144325 235.676267 
L 111.220036 235.653261 
L 111.296507 235.739595 
L 111.331129 235.703907 
L 111.334553 235.755808 
L 111.410263 235.733199 
L 111.486735 235.822158 
L 111.521737 235.785758 
L 111.52478 235.839114 
L 111.600491 235.816912 
L 111.676962 235.908377 
L 111.711964 235.871691 
L 111.715008 235.926047 
L 111.790718 235.90426 
L 111.86719 235.99811 
L 111.902192 235.961172 
L 111.905235 236.016465 
L 111.980946 235.995103 
L 112.057417 236.091213 
L 112.092419 236.054059 
L 112.095463 236.110225 
L 112.171173 236.089295 
L 112.247645 236.18754 
L 112.282647 236.150203 
L 112.28569 236.207179 
L 112.361401 236.186687 
L 112.437872 236.28694 
L 112.472874 236.249456 
L 112.475918 236.307176 
L 112.551628 236.28713 
L 112.6281 236.389262 
L 112.663102 236.351664 
L 112.666145 236.410064 
L 112.741856 236.390469 
L 112.818327 236.49435 
L 112.853329 236.456672 
L 112.856373 236.515686 
L 112.932083 236.496548 
L 113.008555 236.602047 
L 113.043557 236.564323 
L 113.0466 236.623886 
L 113.122311 236.605209 
L 113.198782 236.712194 
L 113.233784 236.674457 
L 113.236828 236.734503 
L 113.312538 236.716292 
L 113.38901 236.82463 
L 113.424012 236.786914 
L 113.427055 236.847378 
L 113.502766 236.829635 
L 113.579237 236.939193 
L 113.614239 236.901531 
L 113.617283 236.962346 
L 113.692993 236.945075 
L 113.769465 237.055718 
L 113.804467 237.018144 
L 113.80751 237.079244 
L 113.883221 237.062447 
L 113.959692 237.174042 
L 113.994694 237.136587 
L 113.997738 237.197908 
L 114.073448 237.181586 
L 114.14992 237.293999 
L 114.184922 237.256695 
L 114.187965 237.318171 
L 114.263676 237.302326 
L 114.340147 237.415422 
L 114.375149 237.378301 
L 114.378193 237.439868 
L 114.453903 237.4245 
L 114.530375 237.538146 
L 114.565377 237.501239 
L 114.56842 237.562833 
L 114.644131 237.547941 
L 114.720602 237.662004 
L 114.755604 237.625341 
L 114.758648 237.686897 
L 114.834358 237.672481 
L 114.91083 237.786829 
L 114.945832 237.750441 
L 114.948875 237.811896 
L 115.024586 237.797955 
L 115.101057 237.912455 
L 115.136059 237.876371 
L 115.139103 237.937662 
L 115.214813 237.924195 
L 115.291285 238.038717 
L 115.326287 238.002965 
L 115.32933 238.064031 
L 115.405041 238.051034 
L 115.481512 238.165448 
L 115.516514 238.130058 
L 115.519558 238.190836 
L 115.595268 238.178308 
L 115.67174 238.292485 
L 115.706742 238.257483 
L 115.709785 238.317915 
L 115.785496 238.305851 
L 115.861967 238.419665 
L 115.896969 238.385078 
L 115.900013 238.445103 
L 115.975723 238.433501 
L 116.052195 238.546824 
L 116.087197 238.51268 
L 116.09024 238.57224 
L 116.165951 238.561094 
L 116.242422 238.673804 
L 116.277424 238.640127 
L 116.280468 238.699164 
L 116.356178 238.68847 
L 116.43265 238.800443 
L 116.467652 238.767259 
L 116.470695 238.825717 
L 116.546406 238.81547 
L 116.622877 238.926586 
L 116.657879 238.893918 
L 116.660923 238.951741 
L 116.736633 238.941936 
L 116.813105 239.052076 
L 116.848107 239.019948 
L 116.85115 239.077083 
L 116.926861 239.067713 
L 117.003332 239.176761 
L 117.038334 239.145194 
L 117.041378 239.201587 
L 117.117089 239.192647 
L 117.19356 239.300487 
L 117.228562 239.269505 
L 117.231605 239.325105 
L 117.307316 239.316586 
L 117.383787 239.423108 
L 117.418789 239.392731 
L 117.421833 239.447486 
L 117.497544 239.439383 
L 117.574015 239.544476 
L 117.609017 239.514723 
L 117.61206 239.568586 
L 117.687771 239.56089 
L 117.764243 239.664447 
L 117.799244 239.635339 
L 117.802288 239.688261 
L 117.877999 239.680964 
L 117.95447 239.78288 
L 117.989472 239.754435 
L 117.992516 239.80637 
L 118.068226 239.799464 
L 118.144698 239.899637 
L 118.179699 239.871872 
L 118.182743 239.922775 
L 118.258454 239.916252 
L 118.334925 240.014582 
L 118.369927 239.987515 
L 118.372971 240.037342 
L 118.448681 240.031193 
L 118.525153 240.127584 
L 118.560154 240.10123 
L 118.563198 240.14994 
L 118.638909 240.144155 
L 118.71538 240.238513 
L 118.750382 240.212887 
L 118.753426 240.260439 
L 118.829136 240.255009 
L 118.905608 240.347243 
L 118.940609 240.32236 
L 118.943653 240.368715 
L 119.019364 240.36363 
L 119.095835 240.453652 
L 119.130837 240.429524 
L 119.133881 240.474645 
L 119.209591 240.469896 
L 119.286063 240.557622 
L 119.321064 240.534262 
L 119.324108 240.578113 
L 119.399819 240.573689 
L 119.47629 240.659036 
L 119.511292 240.636455 
L 119.514336 240.679002 
L 119.590046 240.674893 
L 119.666518 240.757783 
L 119.701519 240.735993 
L 119.704563 240.777202 
L 119.818319 240.792765 
L 119.894791 240.872606 
L 119.929792 240.851778 
L 119.932836 240.891342 
L 120.046592 240.906564 
L 120.123064 240.983255 
L 120.158065 240.9634 
L 120.161109 241.001278 
L 120.274865 241.016114 
L 120.351337 241.089556 
L 120.386339 241.070686 
L 120.389382 241.106839 
L 120.503138 241.121245 
L 120.57961 241.191347 
L 120.614612 241.173471 
L 120.617655 241.207862 
L 120.731411 241.221796 
L 120.807883 241.288471 
L 120.842885 241.271598 
L 120.845928 241.304195 
L 120.959684 241.317615 
L 121.036156 241.380783 
L 121.071158 241.364919 
L 121.074201 241.395691 
L 121.187957 241.408557 
L 121.264429 241.468144 
L 121.299431 241.453294 
L 121.302474 241.482213 
L 121.438297 241.51481 
L 121.606458 241.562172 
L 121.682929 241.615019 
L 121.717931 241.602037 
L 121.720975 241.627499 
L 121.872776 241.650805 
L 121.949248 241.699259 
L 121.98425 241.687467 
L 121.987293 241.710694 
L 122.139095 241.73213 
L 122.215566 241.776121 
L 122.250568 241.76552 
L 122.253612 241.78649 
L 122.443459 241.815919 
L 122.51993 241.854737 
L 122.554932 241.845492 
L 122.557976 241.863862 
L 122.785868 241.89826 
L 122.86234 241.931179 
L 122.897342 241.923452 
L 122.900385 241.938878 
L 123.166323 241.974637 
L 123.242795 242.000929 
L 123.277797 241.994873 
L 123.622869 242.044895 
L 123.699341 242.063167 
L 123.734343 242.059085 
L 124.269643 242.103786 
L 124.381497 242.10928 
L 126.590419 241.91893 
L 126.66689 241.886157 
L 126.701892 241.893516 
L 126.704935 241.877416 
L 126.932828 241.840052 
L 127.0093 241.801799 
L 127.044301 241.810266 
L 127.047345 241.79164 
L 127.237192 241.759198 
L 127.313664 241.716189 
L 127.348665 241.725597 
L 127.351709 241.704794 
L 127.541556 241.668418 
L 127.618028 241.620769 
L 127.653029 241.631074 
L 127.656073 241.608162 
L 127.807875 241.580993 
L 127.884346 241.529388 
L 127.919348 241.540441 
L 127.922392 241.515741 
L 128.074193 241.486256 
L 128.150665 241.430797 
L 128.185666 241.442563 
L 128.18871 241.416133 
L 128.340512 241.38436 
L 128.416983 241.325152 
L 128.451985 241.337595 
L 128.455029 241.309494 
L 128.60683 241.275466 
L 128.683302 241.212622 
L 128.718303 241.225705 
L 128.721347 241.195994 
L 128.835103 241.176688 
L 128.911575 241.110819 
L 128.946576 241.124422 
L 128.94962 241.093381 
L 129.063376 241.073008 
L 129.139848 241.004202 
L 129.174849 241.018296 
L 129.177893 240.985973 
L 129.291649 240.964543 
L 129.368121 240.892891 
L 129.403123 240.90745 
L 129.406166 240.873892 
L 129.519922 240.851416 
L 129.596394 240.777012 
L 129.631396 240.792006 
L 129.634439 240.757264 
L 129.748195 240.733754 
L 129.824667 240.656693 
L 129.859669 240.672094 
L 129.862712 240.636218 
L 129.976468 240.611688 
L 130.05294 240.532068 
L 130.087942 240.547848 
L 130.090985 240.510888 
L 130.204741 240.485353 
L 130.281213 240.403273 
L 130.316215 240.419403 
L 130.319258 240.381412 
L 130.433014 240.354887 
L 130.509486 240.270449 
L 130.544488 240.286899 
L 130.547531 240.24793 
L 130.661287 240.220431 
L 130.737759 240.13374 
L 130.772761 240.150481 
L 130.775804 240.110587 
L 130.851515 240.105443 
L 130.927986 240.016952 
L 130.962988 240.033915 
L 130.966032 239.993291 
L 131.041742 239.98787 
L 131.118214 239.897655 
L 131.153216 239.914818 
L 131.156259 239.873502 
L 131.23197 239.867801 
L 131.308441 239.775935 
L 131.343443 239.793279 
L 131.346487 239.751308 
L 131.422197 239.745322 
L 131.498669 239.651881 
L 131.533671 239.669386 
L 131.536714 239.626798 
L 131.612425 239.620525 
L 131.688896 239.525584 
L 131.723898 239.543229 
L 131.726942 239.500064 
L 131.802652 239.493498 
L 131.879124 239.397135 
L 131.914126 239.4149 
L 131.917169 239.371195 
L 131.99288 239.364334 
L 132.069351 239.266625 
L 132.104353 239.284491 
L 132.107397 239.240284 
L 132.183107 239.233126 
L 132.259579 239.134148 
L 132.294581 239.152094 
L 132.297624 239.107424 
L 132.373335 239.099966 
L 132.449806 238.999797 
L 132.484808 239.017803 
L 132.487852 238.97271 
L 132.563562 238.964948 
L 132.640034 238.863666 
L 132.675036 238.881713 
L 132.678079 238.836235 
L 132.75379 238.828168 
L 132.830261 238.725851 
L 132.865263 238.74392 
L 132.868307 238.698095 
L 132.944017 238.689721 
L 133.020489 238.586448 
L 133.055491 238.604518 
L 133.058534 238.558385 
L 133.134245 238.549702 
L 133.210716 238.445551 
L 133.245718 238.463604 
L 133.248762 238.417201 
L 133.324472 238.408208 
L 133.400944 238.303259 
L 133.435946 238.321274 
L 133.438989 238.274641 
L 133.5147 238.265336 
L 133.591171 238.159666 
L 133.626173 238.177626 
L 133.629217 238.1308 
L 133.704927 238.121184 
L 133.781399 238.014871 
L 133.816401 238.032757 
L 133.819444 237.985777 
L 133.895155 237.975847 
L 133.971626 237.868971 
L 134.006628 237.886763 
L 134.009672 237.839667 
L 134.085382 237.829423 
L 134.161854 237.722062 
L 134.196856 237.739743 
L 134.199899 237.692568 
L 134.27561 237.68201 
L 134.352081 237.574243 
L 134.387083 237.591794 
L 134.390127 237.544578 
L 134.465837 237.533706 
L 134.542309 237.425609 
L 134.577311 237.443012 
L 134.580354 237.395793 
L 134.656065 237.384608 
L 134.732536 237.276259 
L 134.767538 237.293496 
L 134.770582 237.246311 
L 134.846292 237.234812 
L 134.922764 237.126288 
L 134.957766 237.143343 
L 134.960809 237.096228 
L 135.03652 237.084416 
L 135.112991 236.975794 
L 135.147993 236.992648 
L 135.151037 236.945641 
L 135.226748 236.933517 
L 135.303219 236.824872 
L 135.338221 236.84151 
L 135.341264 236.794645 
L 135.416975 236.78221 
L 135.493446 236.673619 
L 135.528448 236.690023 
L 135.531492 236.643337 
L 135.607203 236.630593 
L 135.683674 236.52213 
L 135.718676 236.538283 
L 135.721719 236.491812 
L 135.79743 236.478759 
L 135.873902 236.370499 
L 135.908903 236.386386 
L 135.911947 236.340164 
L 135.987658 236.326805 
L 136.064129 236.218821 
L 136.099511 236.234596 
L 136.102175 236.188488 
L 136.177885 236.174824 
L 136.254357 236.06719 
L 136.289739 236.082664 
L 136.292402 236.036877 
L 136.368113 236.022911 
L 136.444584 235.915697 
L 136.479966 235.930855 
L 136.48263 235.885423 
L 136.55834 235.871157 
L 136.634812 235.764436 
L 136.670194 235.779263 
L 136.672857 235.734219 
L 136.748568 235.719655 
L 136.825039 235.613497 
L 136.860421 235.627978 
L 136.863085 235.583356 
L 136.938795 235.568496 
L 137.015267 235.462971 
L 137.050649 235.477092 
L 137.053312 235.432924 
L 137.129023 235.417771 
L 137.205494 235.312948 
L 137.240876 235.326695 
L 137.24354 235.283011 
L 137.31925 235.267569 
L 137.396102 235.163659 
L 137.431104 235.176874 
L 137.434148 235.13385 
L 137.509858 235.118121 
L 137.58633 235.0149 
L 137.621712 235.027858 
L 137.624375 234.985237 
L 137.700086 234.969225 
L 137.776557 234.866906 
L 137.811939 234.879449 
L 137.814603 234.837406 
L 137.890313 234.821114 
L 137.966785 234.719761 
L 138.002167 234.731878 
L 138.00483 234.690441 
L 138.080541 234.673874 
L 138.157012 234.57355 
L 138.192394 234.585228 
L 138.195058 234.544427 
L 138.270768 234.527587 
L 138.34724 234.428356 
L 138.382622 234.439583 
L 138.385285 234.399446 
L 138.460996 234.382338 
L 138.537467 234.284259 
L 138.572849 234.295025 
L 138.575513 234.255579 
L 138.651223 234.238207 
L 138.727695 234.141342 
L 138.763077 234.151634 
L 138.76574 234.112906 
L 138.841451 234.095274 
L 138.917922 233.999681 
L 138.953304 234.009489 
L 138.955968 233.971507 
L 139.031678 233.953619 
L 139.10815 233.859356 
L 139.143532 233.86867 
L 139.146195 233.831458 
L 139.259951 233.785428 
L 139.336423 233.692835 
L 139.371805 233.701543 
L 139.374468 233.665288 
L 139.488224 233.619319 
L 139.564696 233.528475 
L 139.600078 233.536563 
L 139.602741 233.501301 
L 139.716497 233.45542 
L 139.792969 233.366402 
L 139.828351 233.373857 
L 139.831014 233.339621 
L 139.94477 233.293857 
L 140.021242 233.206739 
L 140.056624 233.213549 
L 140.059287 233.180371 
L 140.173043 233.13475 
L 140.249515 233.049605 
L 140.284897 233.055758 
L 140.28756 233.02367 
L 140.401316 232.978219 
L 140.477788 232.895116 
L 140.51317 232.900602 
L 140.515833 232.869633 
L 140.629589 232.82438 
L 140.706061 232.743386 
L 140.741443 232.748193 
L 140.744106 232.718373 
L 140.857862 232.673343 
L 140.934334 232.594523 
L 140.969716 232.598643 
L 140.972379 232.569999 
L 141.086135 232.525218 
L 141.162607 232.448634 
L 141.197989 232.452058 
L 141.352454 232.356224 
L 141.428925 232.282326 
L 141.464308 232.284927 
L 141.618772 232.191497 
L 141.695244 232.120362 
L 141.730626 232.12213 
L 141.885091 232.031191 
L 141.961562 231.962892 
L 141.996945 231.963818 
L 142.151409 231.875452 
L 142.263644 231.810136 
L 142.455773 231.703239 
L 142.568008 231.640334 
L 142.760137 231.537374 
L 142.872372 231.476952 
L 143.102547 231.358598 
L 143.214781 231.301049 
L 143.483002 231.169962 
L 143.595617 231.115652 
L 143.901502 230.974984 
L 144.014117 230.924376 
L 144.434139 230.746378 
L 144.547515 230.700458 
L 145.233095 230.445866 
L 145.351036 230.404323 
L 147.591916 229.868978 
L 147.592297 229.88184 
L 147.702629 229.854767 
L 147.706433 229.866678 
L 148.010417 229.816145 
L 148.010797 229.83169 
L 148.121129 229.806142 
L 148.124934 229.820608 
L 148.390872 229.781114 
L 148.391252 229.799066 
L 148.466963 229.775589 
L 148.501584 229.774923 
L 148.505389 229.791681 
L 148.733281 229.760133 
L 148.733662 229.780224 
L 148.809372 229.756823 
L 148.843994 229.757356 
L 148.847798 229.776149 
L 149.075691 229.749096 
L 149.152162 229.770648 
L 149.186784 229.749478 
L 149.190208 229.770507 
L 149.380055 229.747579 
L 149.456526 229.772912 
L 149.491148 229.750945 
L 149.494572 229.773738 
L 149.684419 229.753813 
L 149.76089 229.782881 
L 149.795512 229.760137 
L 149.798936 229.784665 
L 149.950737 229.765574 
L 150.027209 229.79787 
L 150.06183 229.774463 
L 150.065254 229.800486 
L 150.217056 229.78317 
L 150.293527 229.818654 
L 150.328149 229.794601 
L 150.331573 229.822093 
L 150.483374 229.806548 
L 150.559846 229.845177 
L 150.594467 229.820494 
L 150.597891 229.84943 
L 150.749693 229.835647 
L 150.826164 229.877375 
L 150.860786 229.85208 
L 150.86421 229.882435 
L 151.016011 229.870404 
L 151.092483 229.915184 
L 151.127104 229.889293 
L 151.130528 229.921039 
L 151.28233 229.910751 
L 151.358801 229.958531 
L 151.393423 229.932064 
L 151.396847 229.965172 
L 151.510603 229.949726 
L 151.587074 230.000037 
L 151.621696 229.97309 
L 151.62512 230.007342 
L 151.738876 229.992706 
L 151.815347 230.045507 
L 151.849969 230.018094 
L 151.853393 230.053467 
L 151.967149 230.039638 
L 152.04362 230.094888 
L 152.078242 230.067022 
L 152.081666 230.103495 
L 152.195422 230.09047 
L 152.271893 230.148126 
L 152.306515 230.119822 
L 152.309939 230.15737 
L 152.423695 230.145146 
L 152.500166 230.205163 
L 152.534788 230.176435 
L 152.538212 230.215035 
L 152.651968 230.203608 
L 152.728439 230.265942 
L 152.763061 230.236804 
L 152.766485 230.276431 
L 152.880241 230.265797 
L 152.956712 230.3304 
L 152.991334 230.300868 
L 152.994758 230.341496 
L 153.108514 230.33165 
L 153.184985 230.398475 
L 153.219607 230.368564 
L 153.223031 230.410169 
L 153.336787 230.401105 
L 153.413258 230.470104 
L 153.44788 230.439827 
L 153.451304 230.482382 
L 153.56506 230.474095 
L 153.641531 230.545218 
L 153.676153 230.514591 
L 153.679577 230.558071 
L 153.793333 230.550554 
L 153.869804 230.62375 
L 153.904426 230.592788 
L 153.90785 230.637166 
L 154.021606 230.630413 
L 154.098077 230.70563 
L 154.132699 230.674348 
L 154.136123 230.719597 
L 154.249879 230.713601 
L 154.32635 230.790786 
L 154.360972 230.7592 
L 154.364396 230.805292 
L 154.478152 230.800045 
L 154.554623 230.879146 
L 154.589625 230.846921 
L 154.592669 230.894179 
L 154.706425 230.889673 
L 154.782897 230.970636 
L 154.817898 230.938133 
L 154.820942 230.986183 
L 154.896653 230.966741 
L 154.973124 231.049212 
L 155.008126 231.016492 
L 155.01117 231.065178 
L 155.08688 231.045923 
L 155.163352 231.129865 
L 155.198353 231.096937 
L 155.201397 231.146241 
L 155.277108 231.127174 
L 155.353579 231.212548 
L 155.388581 231.179423 
L 155.391625 231.229324 
L 155.467335 231.21045 
L 155.543807 231.297216 
L 155.578808 231.263906 
L 155.581852 231.314384 
L 155.657563 231.295704 
L 155.734034 231.383823 
L 155.769036 231.350338 
L 155.77208 231.401373 
L 155.84779 231.38289 
L 155.924262 231.472322 
L 155.959263 231.438672 
L 155.962307 231.490245 
L 156.038018 231.47196 
L 156.114489 231.562665 
L 156.149491 231.528863 
L 156.152535 231.580951 
L 156.228245 231.562868 
L 156.304717 231.654805 
L 156.339718 231.620861 
L 156.342762 231.673445 
L 156.418473 231.655565 
L 156.494944 231.748694 
L 156.529946 231.714618 
L 156.53299 231.767677 
L 156.6087 231.750003 
L 156.685172 231.844283 
L 156.720173 231.810087 
L 156.723217 231.8636 
L 156.798928 231.846134 
L 156.875399 231.941522 
L 156.910401 231.907217 
L 156.913445 231.961164 
L 156.989155 231.943907 
L 157.065627 232.040364 
L 157.100628 232.00596 
L 157.103672 232.06032 
L 157.179383 232.043273 
L 157.255854 232.140757 
L 157.290856 232.106265 
L 157.2939 232.161017 
L 157.36961 232.144184 
L 157.446082 232.242652 
L 157.481084 232.208083 
L 157.484127 232.263207 
L 157.559838 232.246587 
L 157.636309 232.345998 
L 157.671311 232.311364 
L 157.674355 232.366837 
L 157.750065 232.350434 
L 157.826537 232.450746 
L 157.861539 232.416056 
L 157.864582 232.471859 
L 157.940293 232.455672 
L 158.016764 232.556844 
L 158.051766 232.522109 
L 158.05481 232.578221 
L 158.13052 232.562252 
L 158.206992 232.664241 
L 158.241994 232.629472 
L 158.245037 232.685872 
L 158.320748 232.670122 
L 158.397219 232.772886 
L 158.432221 232.738093 
L 158.435265 232.79476 
L 158.510975 232.779232 
L 158.587447 232.882728 
L 158.622449 232.847922 
L 158.625492 232.904835 
L 158.701203 232.889528 
L 158.777674 232.993715 
L 158.812676 232.958907 
L 158.81572 233.016045 
L 158.89143 233.00096 
L 158.967902 233.105796 
L 159.002904 233.070995 
L 159.005947 233.128339 
L 159.081658 233.113477 
L 159.158129 233.218919 
L 159.193131 233.184136 
L 159.196175 233.241664 
L 159.271885 233.227026 
L 159.348357 233.333032 
L 159.383359 233.298277 
L 159.386402 233.355969 
L 159.462113 233.341555 
L 159.538584 233.448083 
L 159.573586 233.413367 
L 159.57663 233.471202 
L 159.65234 233.457013 
L 159.728812 233.564022 
L 159.763814 233.529353 
L 159.766857 233.587311 
L 159.842568 233.573347 
L 159.919039 233.680795 
L 159.954041 233.646184 
L 159.957085 233.704245 
L 160.032795 233.690507 
L 160.109267 233.798351 
L 160.144269 233.763809 
L 160.147312 233.821951 
L 160.223023 233.808439 
L 160.299494 233.916638 
L 160.334496 233.882174 
L 160.33754 233.940379 
L 160.41325 233.927092 
L 160.489722 234.035605 
L 160.524724 234.001229 
L 160.527767 234.059475 
L 160.603478 234.046415 
L 160.679949 234.1552 
L 160.714951 234.120921 
L 160.717995 234.17919 
L 160.793705 234.166356 
L 160.870177 234.275372 
L 160.905179 234.241199 
L 160.908222 234.299471 
L 160.983933 234.286862 
L 161.060404 234.396068 
L 161.095406 234.362012 
L 161.09845 234.420266 
L 161.17416 234.407884 
L 161.250632 234.517239 
L 161.285634 234.483308 
L 161.288677 234.541526 
L 161.364388 234.529369 
L 161.440859 234.638833 
L 161.475861 234.605036 
L 161.478905 234.663198 
L 161.554615 234.651266 
L 161.631087 234.760798 
L 161.666089 234.727146 
L 161.669132 234.785232 
L 161.744843 234.773525 
L 161.821314 234.883085 
L 161.856316 234.849585 
L 161.85936 234.907577 
L 161.93507 234.896094 
L 162.011542 235.005643 
L 162.046544 234.972305 
L 162.049587 235.030183 
L 162.125298 235.018924 
L 162.201769 235.128422 
L 162.236771 235.095253 
L 162.239815 235.153 
L 162.315525 235.141963 
L 162.391997 235.251371 
L 162.426999 235.218381 
L 162.430042 235.275977 
L 162.505753 235.265163 
L 162.582224 235.374442 
L 162.617226 235.341639 
L 162.62027 235.399066 
L 162.69598 235.388473 
L 162.772452 235.497584 
L 162.807454 235.464977 
L 162.810497 235.522217 
L 162.886208 235.511844 
L 162.962679 235.620749 
L 162.997681 235.588345 
L 163.000725 235.64538 
L 163.076436 235.635227 
L 163.152907 235.743887 
L 163.187909 235.711695 
L 163.190952 235.768507 
L 163.266663 235.758573 
L 163.343134 235.866951 
L 163.378136 235.834979 
L 163.38118 235.89155 
L 163.456891 235.881833 
L 163.533362 235.989892 
L 163.568364 235.958147 
L 163.571407 236.014461 
L 163.647118 236.00496 
L 163.723589 236.112662 
L 163.758591 236.081153 
L 163.761635 236.137191 
L 163.837346 236.127905 
L 163.913817 236.235214 
L 163.948819 236.203949 
L 163.951863 236.259695 
L 164.027573 236.250622 
L 164.104045 236.357502 
L 164.139046 236.326487 
L 164.14209 236.381924 
L 164.217801 236.373063 
L 164.294272 236.479478 
L 164.329274 236.448721 
L 164.332318 236.503832 
L 164.408028 236.495182 
L 164.4845 236.601097 
L 164.519501 236.570604 
L 164.522545 236.625374 
L 164.598256 236.616933 
L 164.674727 236.722313 
L 164.709729 236.692092 
L 164.712773 236.746503 
L 164.788483 236.73827 
L 164.864955 236.84308 
L 164.899956 236.813137 
L 164.903 236.867175 
L 164.978711 236.859148 
L 165.055182 236.963353 
L 165.090184 236.933697 
L 165.093228 236.987345 
L 165.168938 236.979522 
L 165.24541 237.08309 
L 165.280411 237.053725 
L 165.283455 237.106968 
L 165.359166 237.099348 
L 165.435637 237.202244 
L 165.470639 237.173178 
L 165.473683 237.226001 
L 165.549393 237.218582 
L 165.625865 237.320774 
L 165.660866 237.292013 
L 165.66391 237.344401 
L 165.739621 237.33718 
L 165.816092 237.438636 
L 165.851094 237.410186 
L 165.854138 237.462124 
L 165.929848 237.455101 
L 166.00632 237.555788 
L 166.041321 237.527654 
L 166.044365 237.579129 
L 166.120076 237.5723 
L 166.196547 237.672188 
L 166.231549 237.644377 
L 166.234593 237.695374 
L 166.310303 237.688738 
L 166.386775 237.787795 
L 166.421777 237.760313 
L 166.42482 237.810817 
L 166.500531 237.804372 
L 166.577002 237.902567 
L 166.612004 237.875419 
L 166.615048 237.925418 
L 166.690758 237.919162 
L 166.76723 238.016466 
L 166.802232 237.989658 
L 166.805275 238.039137 
L 166.880986 238.033067 
L 166.957457 238.12945 
L 166.992459 238.102987 
L 166.995503 238.151934 
L 167.071213 238.146048 
L 167.147685 238.241482 
L 167.182687 238.215368 
L 167.18573 238.263771 
L 167.261441 238.258067 
L 167.337912 238.352522 
L 167.372914 238.326763 
L 167.375958 238.374608 
L 167.451668 238.369083 
L 167.52814 238.462532 
L 167.563142 238.437134 
L 167.566185 238.484408 
L 167.641896 238.479061 
L 167.718367 238.571476 
L 167.753369 238.546442 
L 167.756413 238.593133 
L 167.832123 238.587961 
L 167.908595 238.679316 
L 167.943597 238.65465 
L 167.94664 238.700748 
L 168.022351 238.695748 
L 168.098822 238.786016 
L 168.133824 238.761724 
L 168.136868 238.807216 
L 168.212578 238.802386 
L 168.28905 238.89154 
L 168.324052 238.867626 
L 168.327095 238.912501 
L 168.402806 238.907839 
L 168.479277 238.995855 
L 168.514279 238.972322 
L 168.517323 239.016569 
L 168.593033 239.012071 
L 168.669505 239.098924 
L 168.704507 239.075777 
L 168.70755 239.119385 
L 168.783261 239.11505 
L 168.859732 239.200715 
L 168.894734 239.177957 
L 168.897778 239.220916 
L 168.973488 239.21674 
L 169.04996 239.301194 
L 169.084962 239.278829 
L 169.088005 239.321129 
L 169.163716 239.31711 
L 169.240187 239.400328 
L 169.275189 239.37836 
L 169.278233 239.419991 
L 169.391989 239.435765 
L 169.46846 239.517471 
L 169.503462 239.495983 
L 169.506506 239.536798 
L 169.620262 239.552416 
L 169.696733 239.632578 
L 169.731735 239.611575 
L 169.734779 239.651561 
L 169.848535 239.667009 
L 169.925006 239.745598 
L 169.960008 239.725084 
L 169.963052 239.764228 
L 170.076808 239.779494 
L 170.153279 239.856478 
L 170.188281 239.836457 
L 170.191325 239.874747 
L 170.305081 239.889819 
L 170.381552 239.96517 
L 170.416554 239.945646 
L 170.419598 239.983069 
L 170.533354 239.997934 
L 170.609825 240.071624 
L 170.644827 240.0526 
L 170.647871 240.089145 
L 170.761627 240.103792 
L 170.838098 240.175793 
L 170.8731 240.157273 
L 170.876144 240.192929 
L 170.9899 240.207346 
L 171.066371 240.277632 
L 171.101373 240.259619 
L 171.104417 240.294375 
L 171.218173 240.308549 
L 171.294644 240.377095 
L 171.329646 240.359592 
L 171.33269 240.393439 
L 171.446446 240.407359 
L 171.522917 240.474141 
L 171.557919 240.45715 
L 171.560963 240.490077 
L 171.674719 240.503733 
L 171.75119 240.568726 
L 171.786192 240.55225 
L 171.789236 240.584249 
L 171.902992 240.597628 
L 171.979463 240.660812 
L 172.014465 240.644852 
L 172.017509 240.675913 
L 172.131265 240.689006 
L 172.207736 240.750358 
L 172.242738 240.734917 
L 172.245782 240.765032 
L 172.359538 240.777826 
L 172.436009 240.837326 
L 172.471011 240.822406 
L 172.474055 240.851568 
L 172.587811 240.864054 
L 172.664282 240.921681 
L 172.699284 240.907283 
L 172.702328 240.935484 
L 172.85413 240.961326 
L 172.930601 241.016746 
L 172.965603 241.002957 
L 172.968647 241.030029 
L 173.120448 241.054964 
L 173.19692 241.108153 
L 173.231921 241.094975 
L 173.234965 241.120909 
L 173.386767 241.144915 
L 173.463238 241.19585 
L 173.49824 241.183285 
L 173.501284 241.208073 
L 173.653085 241.231131 
L 173.729557 241.27979 
L 173.764558 241.267838 
L 173.767602 241.291472 
L 173.919404 241.313563 
L 173.995875 241.359927 
L 174.030877 241.348588 
L 174.033921 241.371063 
L 174.194092 241.412335 
L 174.413995 241.456463 
L 174.490467 241.498517 
L 174.525468 241.488316 
L 174.528512 241.508621 
L 174.718359 241.537723 
L 174.794831 241.577098 
L 174.829832 241.567596 
L 174.832876 241.586558 
L 175.022723 241.613827 
L 175.099195 241.650504 
L 175.134196 241.6417 
L 175.13724 241.659313 
L 175.365133 241.693216 
L 175.441604 241.726837 
L 175.476606 241.718816 
L 175.47965 241.734907 
L 175.707542 241.765944 
L 175.784014 241.796491 
L 175.819016 241.78925 
L 176.087997 241.838866 
L 176.164469 241.865981 
L 176.199471 241.859601 
L 176.506498 241.909405 
L 176.582969 241.932727 
L 176.617971 241.92729 
L 177.001089 241.979587 
L 177.077561 241.99841 
L 177.112563 241.994075 
L 177.571772 242.042673 
L 177.648243 242.056292 
L 177.683245 242.053215 
L 178.40649 242.100355 
L 182.251369 241.829005 
L 182.32784 241.800825 
L 182.362842 241.807147 
L 182.631824 241.754808 
L 182.708295 241.723392 
L 182.743297 241.730389 
L 183.012279 241.672267 
L 183.08875 241.637653 
L 183.123752 241.645307 
L 183.126796 241.628624 
L 183.354688 241.590902 
L 183.43116 241.553442 
L 183.466161 241.561675 
L 183.469205 241.543675 
L 183.697098 241.502886 
L 183.773569 241.462613 
L 183.808571 241.471412 
L 183.811615 241.452114 
L 184.001462 241.419112 
L 184.077933 241.376367 
L 184.112935 241.385657 
L 184.115979 241.365224 
L 184.305826 241.33017 
L 184.382297 241.284981 
L 184.417299 241.294752 
L 184.420343 241.273198 
L 184.61019 241.236105 
L 184.686661 241.1885 
L 184.721663 241.198741 
L 184.724707 241.176084 
L 184.876508 241.14963 
L 184.95298 241.099937 
L 184.987982 241.11058 
L 184.991025 241.086971 
L 185.142827 241.059301 
L 185.219298 241.007541 
L 185.2543 241.018578 
L 185.257344 240.994031 
L 185.409145 240.965149 
L 185.485617 240.911348 
L 185.520619 240.92277 
L 185.523662 240.897298 
L 185.675464 240.86721 
L 185.751935 240.811391 
L 185.786937 240.82319 
L 185.789981 240.796807 
L 185.941782 240.765519 
L 186.018254 240.707707 
L 186.053256 240.719873 
L 186.056299 240.692593 
L 186.208101 240.660112 
L 186.284572 240.600333 
L 186.319574 240.612858 
L 186.322618 240.584695 
L 186.474419 240.551026 
L 186.550891 240.489306 
L 186.585893 240.502181 
L 186.588936 240.473149 
L 186.702692 240.454626 
L 186.779164 240.391262 
L 186.814166 240.40443 
L 186.817209 240.374665 
L 186.930965 240.355575 
L 187.007437 240.290588 
L 187.042439 240.304042 
L 187.045482 240.273555 
L 187.159238 240.2539 
L 187.23571 240.187309 
L 187.270712 240.201043 
L 187.273755 240.169845 
L 187.387511 240.149626 
L 187.463983 240.081451 
L 187.498985 240.095458 
L 187.502028 240.063559 
L 187.615784 240.042778 
L 187.692256 239.97304 
L 187.727258 239.987314 
L 187.730301 239.954725 
L 187.844057 239.933384 
L 187.920529 239.862102 
L 187.955531 239.876636 
L 187.958574 239.843369 
L 188.07233 239.821469 
L 188.148802 239.748665 
L 188.183804 239.763452 
L 188.186847 239.729518 
L 188.300603 239.707062 
L 188.377075 239.632755 
L 188.412077 239.647789 
L 188.41512 239.613199 
L 188.528876 239.590188 
L 188.605348 239.514401 
L 188.64035 239.529675 
L 188.643393 239.49444 
L 188.757149 239.470877 
L 188.833621 239.39363 
L 188.868623 239.409138 
L 188.871666 239.373269 
L 188.985422 239.349156 
L 189.061894 239.270471 
L 189.096896 239.286205 
L 189.099939 239.249714 
L 189.213695 239.225054 
L 189.290167 239.144951 
L 189.325169 239.160906 
L 189.328212 239.123804 
L 189.441968 239.098599 
L 189.51844 239.017101 
L 189.553442 239.033269 
L 189.556485 238.995568 
L 189.670241 238.96982 
L 189.746713 238.886949 
L 189.781715 238.903324 
L 189.784758 238.865035 
L 189.898514 238.838747 
L 189.974986 238.754524 
L 190.009988 238.7711 
L 190.013031 238.732234 
L 190.126787 238.705409 
L 190.203259 238.619856 
L 190.238261 238.636625 
L 190.241304 238.597195 
L 190.355061 238.569836 
L 190.431532 238.482974 
L 190.466534 238.499931 
L 190.469577 238.459948 
L 190.545288 238.455172 
L 190.621759 238.367237 
L 190.656761 238.384345 
L 190.659805 238.34391 
L 190.735516 238.338994 
L 190.811987 238.250002 
L 190.846989 238.267256 
L 190.850032 238.226376 
L 190.925743 238.22132 
L 191.002215 238.131285 
L 191.037216 238.148681 
L 191.04026 238.107365 
L 191.115971 238.102166 
L 191.192442 238.011105 
L 191.227444 238.028638 
L 191.230488 237.986894 
L 191.306198 237.981551 
L 191.38267 237.889478 
L 191.417671 237.907145 
L 191.420715 237.864981 
L 191.496426 237.859492 
L 191.572897 237.766424 
L 191.607899 237.784219 
L 191.610943 237.741643 
L 191.686653 237.736008 
L 191.763125 237.641959 
L 191.798126 237.659878 
L 191.80117 237.616898 
L 191.876881 237.611115 
L 191.953352 237.516102 
L 191.988354 237.53414 
L 191.991398 237.490765 
L 192.067108 237.484833 
L 192.14358 237.38887 
L 192.178581 237.407023 
L 192.181625 237.36326 
L 192.257336 237.357178 
L 192.333807 237.260281 
L 192.368809 237.278545 
L 192.371853 237.234402 
L 192.447563 237.228169 
L 192.524035 237.130354 
L 192.559036 237.148724 
L 192.56208 237.104209 
L 192.637791 237.097823 
L 192.714262 236.999106 
L 192.749264 237.017578 
L 192.752308 236.9727 
L 192.828018 236.96616 
L 192.90449 236.866556 
L 192.939491 236.885125 
L 192.942535 236.839891 
L 193.018246 236.833197 
L 193.094717 236.732721 
L 193.129719 236.751383 
L 193.132763 236.705802 
L 193.208473 236.698951 
L 193.284945 236.59762 
L 193.319946 236.616371 
L 193.32299 236.570449 
L 193.398701 236.563442 
L 193.475172 236.461271 
L 193.510174 236.480105 
L 193.513218 236.433852 
L 193.588928 236.426688 
L 193.6654 236.323691 
L 193.700402 236.342606 
L 193.703445 236.296029 
L 193.779156 236.288705 
L 193.855627 236.184899 
L 193.890629 236.20389 
L 193.893673 236.156997 
L 193.969383 236.149514 
L 194.045855 236.044914 
L 194.080857 236.063976 
L 194.0839 236.016775 
L 194.159611 236.009131 
L 194.236082 235.903753 
L 194.271084 235.922882 
L 194.274128 235.875381 
L 194.349838 235.867575 
L 194.42631 235.761434 
L 194.461312 235.780627 
L 194.464355 235.732832 
L 194.540066 235.724865 
L 194.616537 235.617975 
L 194.651539 235.637227 
L 194.654583 235.589148 
L 194.730293 235.581017 
L 194.806765 235.473395 
L 194.841767 235.492702 
L 194.84481 235.444346 
L 194.920521 235.43605 
L 194.996992 235.327711 
L 195.031994 235.347069 
L 195.035038 235.298443 
L 195.110748 235.289983 
L 195.18722 235.180941 
L 195.222222 235.200346 
L 195.225265 235.151459 
L 195.300976 235.142833 
L 195.377447 235.033105 
L 195.412449 235.052552 
L 195.415493 235.003411 
L 195.491203 234.994619 
L 195.567675 234.884218 
L 195.602677 234.903704 
L 195.60572 234.854316 
L 195.681431 234.845357 
L 195.757902 234.7343 
L 195.792904 234.753821 
L 195.795948 234.704194 
L 195.871658 234.695067 
L 195.94813 234.583367 
L 195.983132 234.602919 
L 195.986175 234.553061 
L 196.061886 234.543766 
L 196.138357 234.431439 
L 196.173359 234.451018 
L 196.176403 234.400935 
L 196.252113 234.391471 
L 196.328585 234.278532 
L 196.363587 234.298134 
L 196.36663 234.247835 
L 196.442341 234.238201 
L 196.518812 234.124665 
L 196.553814 234.144286 
L 196.556858 234.093778 
L 196.632568 234.083973 
L 196.70904 233.969854 
L 196.744042 233.98949 
L 196.747085 233.93878 
L 196.822796 233.928805 
L 196.899267 233.814118 
L 196.934269 233.833766 
L 196.937313 233.782861 
L 197.013023 233.772715 
L 197.089495 233.657474 
L 197.124497 233.677129 
L 197.12754 233.626037 
L 197.203251 233.615719 
L 197.279722 233.499939 
L 197.314724 233.519599 
L 197.317768 233.468326 
L 197.393478 233.457835 
L 197.46995 233.34153 
L 197.504952 233.361191 
L 197.507995 233.309745 
L 197.583706 233.299081 
L 197.660177 233.182266 
L 197.695179 233.201923 
L 197.698223 233.150311 
L 197.773933 233.139474 
L 197.850405 233.022162 
L 197.885407 233.041813 
L 197.88845 232.990042 
L 197.964161 232.979031 
L 198.040632 232.861237 
L 198.075634 232.880877 
L 198.078678 232.828954 
L 198.154388 232.817769 
L 198.23086 232.699506 
L 198.265862 232.719133 
L 198.268905 232.667065 
L 198.344616 232.655705 
L 198.421087 232.536988 
L 198.456089 232.556597 
L 198.459133 232.504391 
L 198.534843 232.492856 
L 198.611315 232.373698 
L 198.646317 232.393287 
L 198.64936 232.340949 
L 198.725071 232.329239 
L 198.801542 232.209654 
L 198.836544 232.229218 
L 198.839588 232.176756 
L 198.915298 232.16487 
L 198.99177 232.044871 
L 199.026772 232.064408 
L 199.029815 232.011828 
L 199.105526 231.999766 
L 199.181997 231.879368 
L 199.216999 231.898874 
L 199.220043 231.846182 
L 199.295754 231.833944 
L 199.372225 231.713159 
L 199.407227 231.732631 
L 199.41027 231.679834 
L 199.485981 231.667419 
L 199.562452 231.546261 
L 199.597454 231.565695 
L 199.600498 231.5128 
L 199.676209 231.500208 
L 199.75268 231.37869 
L 199.787682 231.398084 
L 199.790725 231.345097 
L 199.866436 231.332328 
L 199.942907 231.210463 
L 199.977909 231.229813 
L 199.980953 231.17674 
L 200.056664 231.163794 
L 200.133135 231.041594 
L 200.168137 231.060898 
L 200.171181 231.007745 
L 200.246891 230.994622 
L 200.323363 230.872101 
L 200.358364 230.891354 
L 200.361408 230.838129 
L 200.437119 230.824828 
L 200.51359 230.701998 
L 200.548592 230.721198 
L 200.551636 230.667906 
L 200.627346 230.654427 
L 200.703818 230.531301 
L 200.738819 230.550446 
L 200.741863 230.497092 
L 200.817574 230.483436 
L 200.894045 230.360026 
L 200.929047 230.379112 
L 200.932091 230.325703 
L 201.007801 230.311869 
L 201.084273 230.188188 
L 201.119274 230.207211 
L 201.122318 230.153754 
L 201.198029 230.139741 
L 201.2745 230.015801 
L 201.309502 230.03476 
L 201.312546 229.98126 
L 201.388256 229.967069 
L 201.464728 229.842882 
L 201.499729 229.861773 
L 201.502773 229.808235 
L 201.578484 229.793866 
L 201.654955 229.669444 
L 201.689957 229.688264 
L 201.693001 229.634695 
L 201.768711 229.620148 
L 201.845183 229.495502 
L 201.880184 229.514249 
L 201.883228 229.460655 
L 201.958939 229.445929 
L 202.03541 229.321072 
L 202.070412 229.339743 
L 202.073456 229.286128 
L 202.149166 229.271224 
L 202.225638 229.146167 
L 202.260639 229.164759 
L 202.263683 229.11113 
L 202.339394 229.096048 
L 202.415865 228.970801 
L 202.450867 228.989313 
L 202.453911 228.935674 
L 202.529621 228.920414 
L 202.606093 228.79499 
L 202.641095 228.813417 
L 202.644138 228.759775 
L 202.719849 228.744336 
L 202.79632 228.618746 
L 202.831322 228.637087 
L 202.834366 228.583447 
L 202.910076 228.56783 
L 202.986548 228.442084 
L 203.02193 228.460535 
L 203.024593 228.406703 
L 203.100304 228.390907 
L 203.176775 228.265017 
L 203.212157 228.283376 
L 203.214821 228.229557 
L 203.290531 228.213583 
L 203.367003 228.08756 
L 203.402385 228.105823 
L 203.405048 228.052022 
L 203.480759 228.035871 
L 203.55723 227.909724 
L 203.592613 227.92789 
L 203.595276 227.874113 
L 203.670986 227.857783 
L 203.747458 227.731524 
L 203.78284 227.749591 
L 203.785503 227.695841 
L 203.861214 227.679334 
L 203.937685 227.552972 
L 203.973068 227.570937 
L 203.975731 227.517221 
L 204.051441 227.500536 
L 204.127913 227.374081 
L 204.163295 227.391942 
L 204.165958 227.338264 
L 204.241669 227.321402 
L 204.31814 227.194865 
L 204.353523 227.21262 
L 204.356186 227.158984 
L 204.431896 227.141944 
L 204.508368 227.015335 
L 204.54375 227.032981 
L 204.546413 226.979393 
L 204.622124 226.962176 
L 204.698595 226.835504 
L 204.733978 226.85304 
L 204.736641 226.799503 
L 204.812351 226.78211 
L 204.888823 226.655385 
L 204.924205 226.672808 
L 204.926868 226.619327 
L 205.002579 226.601757 
L 205.07905 226.474989 
L 205.114433 226.492296 
L 205.117096 226.438877 
L 205.192806 226.42113 
L 205.269278 226.294328 
L 205.30466 226.311519 
L 205.307323 226.258165 
L 205.383034 226.240241 
L 205.459505 226.113414 
L 205.494888 226.130486 
L 205.497551 226.077201 
L 205.573261 226.059102 
L 205.649733 225.932258 
L 205.685115 225.949209 
L 205.687778 225.895999 
L 205.763489 225.877724 
L 205.83996 225.750872 
L 205.875343 225.767701 
L 205.878006 225.714568 
L 205.953716 225.696118 
L 206.030188 225.569267 
L 206.06557 225.585972 
L 206.068233 225.532921 
L 206.143944 225.514295 
L 206.220415 225.387455 
L 206.255798 225.404033 
L 206.258461 225.351068 
L 206.334171 225.332267 
L 206.410643 225.205445 
L 206.446025 225.221895 
L 206.448688 225.169021 
L 206.524399 225.150045 
L 206.60087 225.023249 
L 206.636253 225.039569 
L 206.638916 224.986789 
L 206.714626 224.967638 
L 206.791098 224.840878 
L 206.82648 224.857066 
L 206.829143 224.804383 
L 206.904854 224.785059 
L 206.981325 224.65834 
L 207.016708 224.674396 
L 207.019371 224.621814 
L 207.095081 224.602316 
L 207.171553 224.475648 
L 207.206935 224.491569 
L 207.209598 224.439092 
L 207.285309 224.41942 
L 207.36178 224.29281 
L 207.397163 224.308595 
L 207.399826 224.256226 
L 207.475536 224.236381 
L 207.552008 224.109837 
L 207.58739 224.125484 
L 207.590053 224.073227 
L 207.665764 224.053209 
L 207.742235 223.926738 
L 207.777618 223.942245 
L 207.780281 223.890104 
L 207.855991 223.869914 
L 207.932463 223.743522 
L 207.967845 223.758889 
L 207.970508 223.706866 
L 208.046219 223.686504 
L 208.12269 223.5602 
L 208.158073 223.575425 
L 208.160736 223.523523 
L 208.236447 223.502989 
L 208.312918 223.376779 
L 208.3483 223.391861 
L 208.350963 223.340084 
L 208.426674 223.319379 
L 208.503145 223.193269 
L 208.538528 223.208207 
L 208.541191 223.156558 
L 208.616902 223.135682 
L 208.693373 223.009679 
L 208.728755 223.024471 
L 208.731418 222.972953 
L 208.807129 222.951906 
L 208.8836 222.826018 
L 208.918983 222.840662 
L 208.921646 222.789278 
L 208.997357 222.768061 
L 209.073828 222.642293 
L 209.10921 222.656789 
L 209.111874 222.605541 
L 209.187584 222.584155 
L 209.264056 222.458512 
L 209.299438 222.472859 
L 209.302101 222.42175 
L 209.377812 222.400195 
L 209.454283 222.274685 
L 209.489665 222.288881 
L 209.492329 222.237915 
L 209.568039 222.21619 
L 209.644511 222.090818 
L 209.679893 222.104863 
L 209.682556 222.054041 
L 209.758267 222.032148 
L 209.834738 221.90692 
L 209.87012 221.920812 
L 209.872784 221.870137 
L 209.948494 221.848077 
L 210.024966 221.722998 
L 210.060348 221.736736 
L 210.063011 221.686211 
L 210.138722 221.663983 
L 210.215193 221.539059 
L 210.250575 221.552642 
L 210.253239 221.502269 
L 210.328949 221.479874 
L 210.405421 221.35511 
L 210.440803 221.368538 
L 210.443466 221.31832 
L 210.519177 221.295758 
L 210.595648 221.171158 
L 210.63103 221.18443 
L 210.633694 221.134368 
L 210.709404 221.11164 
L 210.785876 220.987211 
L 210.821258 221.000326 
L 210.823921 220.950422 
L 210.899632 220.927529 
L 210.976103 220.803274 
L 211.011485 220.816231 
L 211.014149 220.766488 
L 211.089859 220.743429 
L 211.166331 220.619354 
L 211.201713 220.632152 
L 211.204376 220.582573 
L 211.280087 220.559349 
L 211.356558 220.435457 
L 211.39194 220.448096 
L 211.394604 220.398681 
L 211.470314 220.375293 
L 211.546786 220.25159 
L 211.582168 220.264069 
L 211.584831 220.214821 
L 211.660542 220.191269 
L 211.737013 220.067758 
L 211.772395 220.080076 
L 211.775059 220.030996 
L 211.850769 220.007281 
L 211.927241 219.883967 
L 211.962623 219.896124 
L 211.965286 219.847214 
L 212.040997 219.823336 
L 212.117468 219.700222 
L 212.15285 219.712217 
L 212.155514 219.663479 
L 212.231224 219.639439 
L 212.307696 219.516529 
L 212.343078 219.528362 
L 212.345741 219.479797 
L 212.421452 219.455595 
L 212.497923 219.332893 
L 212.533306 219.344563 
L 212.535969 219.296173 
L 212.611679 219.27181 
L 212.688151 219.149319 
L 212.723533 219.160826 
L 212.726196 219.112612 
L 212.801907 219.088087 
L 212.878378 218.965811 
L 212.913761 218.977154 
L 212.916424 218.929118 
L 212.992134 218.904434 
L 213.068606 218.782375 
L 213.103988 218.793554 
L 213.106651 218.745697 
L 213.182362 218.720852 
L 213.258833 218.599014 
L 213.294216 218.610029 
L 213.296879 218.562352 
L 213.372589 218.537348 
L 213.449061 218.415734 
L 213.484443 218.426584 
L 213.487106 218.379088 
L 213.562817 218.353925 
L 213.639288 218.232538 
L 213.674671 218.243223 
L 213.677334 218.195909 
L 213.753044 218.170588 
L 213.829516 218.049429 
L 213.864898 218.05995 
L 213.867561 218.012819 
L 213.943272 217.98734 
L 214.019743 217.866413 
L 214.055126 217.876768 
L 214.057789 217.829821 
L 214.133499 217.804186 
L 214.209971 217.683492 
L 214.245353 217.693681 
L 214.248016 217.64692 
L 214.323727 217.621127 
L 214.400198 217.50067 
L 214.435581 217.510693 
L 214.438244 217.464118 
L 214.513954 217.438169 
L 214.590426 217.31795 
L 214.625808 217.327807 
L 214.628471 217.281418 
L 214.704182 217.255314 
L 214.780653 217.135335 
L 214.816036 217.145026 
L 214.818699 217.098824 
L 214.894409 217.072565 
L 214.970881 216.952827 
L 215.006263 216.962353 
L 215.008926 216.916339 
L 215.084637 216.889925 
L 215.161108 216.770431 
L 215.196491 216.779791 
L 215.199154 216.733965 
L 215.274864 216.707397 
L 215.351336 216.588148 
L 215.386718 216.597342 
L 215.389381 216.551705 
L 215.465092 216.524984 
L 215.541563 216.40598 
L 215.576946 216.415008 
L 215.579609 216.369561 
L 215.655319 216.342686 
L 215.731791 216.22393 
L 215.767173 216.232793 
L 215.769836 216.187535 
L 215.845547 216.160508 
L 215.922018 216.042 
L 215.957401 216.050697 
L 215.960064 216.005629 
L 216.035774 215.97845 
L 216.112246 215.860192 
L 216.147628 215.868723 
L 216.150291 215.823845 
L 216.226002 215.796515 
L 216.302473 215.678507 
L 216.337856 215.686873 
L 216.340519 215.642185 
L 216.416229 215.614704 
L 216.492701 215.496947 
L 216.528083 215.505148 
L 216.530746 215.46065 
L 216.606457 215.433018 
L 216.682928 215.315514 
L 216.718311 215.32355 
L 216.720974 215.279242 
L 216.796684 215.25146 
L 216.873156 215.134207 
L 216.908538 215.142079 
L 216.911201 215.097962 
L 216.986912 215.07003 
L 217.063383 214.95303 
L 217.098766 214.960737 
L 217.101429 214.91681 
L 217.177139 214.88873 
L 217.253611 214.771981 
L 217.288993 214.779525 
L 217.291656 214.735787 
L 217.367367 214.707559 
L 217.443838 214.591063 
L 217.479221 214.598443 
L 217.481884 214.554895 
L 217.557595 214.526519 
L 217.634066 214.410276 
L 217.669448 214.417492 
L 217.672111 214.374134 
L 217.747822 214.34561 
L 217.824293 214.229619 
L 217.859676 214.236673 
L 217.862339 214.193503 
L 217.93805 214.164833 
L 218.014521 214.049094 
L 218.049903 214.055985 
L 218.052566 214.013004 
L 218.128277 213.984188 
L 218.204749 213.8687 
L 218.240131 213.875429 
L 218.242794 213.832637 
L 218.318505 213.803674 
L 218.394976 213.688437 
L 218.430358 213.695005 
L 218.433022 213.6524 
L 218.508732 213.623292 
L 218.585204 213.508305 
L 218.620586 213.514712 
L 218.623249 213.472294 
L 218.69896 213.443042 
L 218.775431 213.328303 
L 218.810813 213.334551 
L 218.813477 213.292319 
L 218.889187 213.262922 
L 218.965659 213.148432 
L 219.001041 213.15452 
L 219.003704 213.112473 
L 219.079415 213.082932 
L 219.155886 212.968689 
L 219.191268 212.974618 
L 219.193932 212.932756 
L 219.269642 212.903072 
L 219.346114 212.789075 
L 219.381496 212.794846 
L 219.384159 212.753168 
L 219.45987 212.723341 
L 219.536341 212.609588 
L 219.571723 212.615201 
L 219.574387 212.573706 
L 219.650097 212.543737 
L 219.726569 212.430228 
L 219.761951 212.435683 
L 219.764614 212.394371 
L 219.840325 212.36426 
L 219.916796 212.250992 
L 219.952178 212.256291 
L 219.954842 212.215159 
L 220.030552 212.184907 
L 220.107024 212.071879 
L 220.142406 212.077022 
L 220.145069 212.036071 
L 220.22078 212.005677 
L 220.297251 211.892887 
L 220.332633 211.897876 
L 220.335297 211.857103 
L 220.411007 211.82657 
L 220.487479 211.714015 
L 220.522861 211.71885 
L 220.525524 211.678255 
L 220.601235 211.647582 
L 220.677706 211.535261 
L 220.713088 211.539943 
L 220.715752 211.499524 
L 220.791462 211.468711 
L 220.867934 211.356623 
L 220.903316 211.361152 
L 220.905979 211.320909 
L 220.98169 211.289957 
L 221.058161 211.178097 
L 221.093543 211.182476 
L 221.096207 211.142406 
L 221.171917 211.111315 
L 221.248389 210.999683 
L 221.283771 211.003911 
L 221.286434 210.964013 
L 221.362145 210.932785 
L 221.438616 210.821377 
L 221.473999 210.825455 
L 221.476662 210.785729 
L 221.552372 210.754362 
L 221.628844 210.643177 
L 221.664226 210.647106 
L 221.666889 210.607549 
L 221.7426 210.576046 
L 221.819071 210.465079 
L 221.854454 210.468861 
L 221.857117 210.429472 
L 221.932827 210.397832 
L 222.009299 210.287082 
L 222.044681 210.290716 
L 222.047344 210.251494 
L 222.123055 210.219717 
L 222.199526 210.10918 
L 222.234909 210.112669 
L 222.237572 210.073611 
L 222.313282 210.041699 
L 222.389754 209.931373 
L 222.425136 209.934717 
L 222.427799 209.895822 
L 222.50351 209.863774 
L 222.579981 209.753655 
L 222.615364 209.756855 
L 222.618027 209.718121 
L 222.693737 209.685938 
L 222.770209 209.576023 
L 222.805591 209.579081 
L 222.808254 209.540507 
L 222.883965 209.508189 
L 222.960436 209.398474 
L 222.995819 209.40139 
L 222.998482 209.362974 
L 223.074192 209.330521 
L 223.150664 209.221003 
L 223.186046 209.22378 
L 223.188709 209.185518 
L 223.26442 209.152932 
L 223.340891 209.043608 
L 223.376274 209.046245 
L 223.378937 209.008137 
L 223.454647 208.975418 
L 223.531119 208.866283 
L 223.566501 208.868781 
L 223.569164 208.830826 
L 223.644875 208.797973 
L 223.721346 208.689024 
L 223.756729 208.691386 
L 223.835102 208.620594 
L 223.911574 208.511827 
L 223.946956 208.514053 
L 224.02533 208.443277 
L 224.101801 208.334687 
L 224.137184 208.336778 
L 224.215557 208.266016 
L 224.292029 208.1576 
L 224.327411 208.159558 
L 224.405785 208.088807 
L 224.482256 207.98056 
L 224.517639 207.982387 
L 224.596012 207.911645 
L 224.672484 207.803563 
L 224.707866 207.805259 
L 224.78624 207.734526 
L 224.862711 207.626604 
L 224.898094 207.628171 
L 224.976467 207.557443 
L 225.052939 207.449678 
L 225.088321 207.451116 
L 225.20474 207.344985 
L 225.281212 207.237401 
L 225.316594 207.238687 
L 225.433013 207.132563 
L 225.509485 207.025153 
L 225.544867 207.02629 
L 225.661286 206.920168 
L 225.737758 206.812926 
L 225.77314 206.813914 
L 225.889559 206.70779 
L 225.966031 206.600707 
L 226.001413 206.601549 
L 226.117832 206.495418 
L 226.194304 206.388488 
L 226.229686 206.389186 
L 226.346106 206.283042 
L 226.422577 206.176256 
L 226.45834 206.176819 
L 226.574379 206.070651 
L 226.65085 205.964003 
L 226.686613 205.964424 
L 226.802652 205.858234 
L 226.914886 205.751998 
L 227.030925 205.645781 
L 227.143159 205.539528 
L 227.259198 205.433278 
L 227.371432 205.327004 
L 227.487471 205.220715 
L 227.599705 205.114414 
L 227.715744 205.00808 
L 227.827978 204.901744 
L 227.944017 204.79536 
L 228.056251 204.688984 
L 228.17229 204.582542 
L 228.284524 204.476119 
L 228.400563 204.369614 
L 228.512797 204.263138 
L 228.628836 204.156562 
L 228.74107 204.050026 
L 228.857109 203.943374 
L 228.969343 203.83677 
L 229.085382 203.730035 
L 229.197616 203.623356 
L 229.313655 203.516531 
L 229.425889 203.409772 
L 229.541928 203.302849 
L 229.654162 203.196001 
L 229.770201 203.088974 
L 229.882435 202.982029 
L 229.998474 202.874891 
L 230.110708 202.767843 
L 230.226747 202.660586 
L 230.338981 202.553426 
L 230.45502 202.446043 
L 230.567254 202.338764 
L 230.683293 202.231246 
L 230.795527 202.12384 
L 230.911566 202.016181 
L 231.0238 201.908639 
L 231.139839 201.800831 
L 231.252073 201.693146 
L 231.368112 201.58518 
L 231.480346 201.477343 
L 231.596385 201.369211 
L 231.708619 201.261214 
L 231.824658 201.152909 
L 231.936892 201.044742 
L 232.052931 200.936255 
L 232.165165 200.827911 
L 232.281204 200.719233 
L 232.393438 200.610703 
L 232.509477 200.501826 
L 232.621711 200.3931 
L 232.73775 200.284015 
L 232.849984 200.175084 
L 232.966023 200.065782 
L 233.078257 199.956638 
L 233.193915 199.847138 
L 233.30615 199.737771 
L 233.422188 199.628009 
L 233.534423 199.51841 
L 233.650461 199.408404 
L 233.762696 199.298563 
L 233.878734 199.188303 
L 233.990969 199.07821 
L 234.107007 198.967687 
L 234.219242 198.857333 
L 234.33528 198.746537 
L 234.447515 198.635911 
L 234.563553 198.524834 
L 234.675788 198.413926 
L 234.791827 198.302557 
L 234.904061 198.191357 
L 235.0201 198.079686 
L 235.132334 197.968184 
L 235.248373 197.8562 
L 235.360607 197.744386 
L 235.476646 197.63208 
L 235.58888 197.519942 
L 235.704919 197.407304 
L 235.817153 197.294832 
L 235.933192 197.181851 
L 236.045426 197.069034 
L 236.161465 196.955699 
L 236.273699 196.842526 
L 236.389738 196.728828 
L 236.501972 196.615288 
L 236.618011 196.501214 
L 236.730245 196.387296 
L 236.846284 196.272836 
L 236.958518 196.158528 
L 237.074557 196.043671 
L 237.186791 195.928962 
L 237.30283 195.813696 
L 237.415064 195.698575 
L 237.531103 195.58289 
L 237.643337 195.467344 
L 237.759376 195.351227 
L 237.87161 195.235245 
L 237.987649 195.118686 
L 238.099883 195.002256 
L 238.215922 194.885242 
L 238.328156 194.768351 
L 238.444195 194.650871 
L 238.556429 194.533507 
L 238.672468 194.415549 
L 238.784702 194.2977 
L 238.900741 194.179251 
L 239.012975 194.060904 
L 239.129014 193.941953 
L 239.241248 193.823096 
L 239.357287 193.703629 
L 239.469521 193.584248 
L 239.58556 193.464254 
L 239.697794 193.344337 
L 239.813833 193.223803 
L 239.926067 193.103337 
L 240.042106 192.982249 
L 240.15434 192.86122 
L 240.270379 192.739566 
L 240.382613 192.617962 
L 240.460606 192.53645 
L 240.572841 192.414355 
L 240.650834 192.332516 
L 240.763068 192.209921 
L 240.841061 192.127749 
L 240.953296 192.004645 
L 241.031289 191.922132 
L 241.143523 191.79851 
L 241.221516 191.715651 
L 241.333751 191.5915 
L 241.411744 191.50829 
L 241.523978 191.3836 
L 241.601971 191.300031 
L 241.714206 191.174792 
L 241.792199 191.090859 
L 241.904433 190.965062 
L 241.982426 190.880757 
L 242.094661 190.754392 
L 242.172654 190.669709 
L 242.284888 190.542765 
L 242.362881 190.457698 
L 242.475116 190.330165 
L 242.553109 190.244707 
L 242.665343 190.116575 
L 242.743336 190.030719 
L 242.855571 189.901978 
L 242.933564 189.815717 
L 243.045798 189.686356 
L 243.123791 189.599684 
L 243.236026 189.469692 
L 243.314019 189.382602 
L 243.426253 189.251968 
L 243.504246 189.164454 
L 243.616481 189.033167 
L 243.694474 188.945221 
L 243.806708 188.813271 
L 243.884702 188.724886 
L 243.996936 188.592262 
L 244.074929 188.503431 
L 244.187163 188.370122 
L 244.265157 188.280837 
L 244.377391 188.146832 
L 244.455384 188.057086 
L 244.567618 187.922374 
L 244.645612 187.83216 
L 244.757846 187.696728 
L 244.835839 187.60604 
L 244.948073 187.469878 
L 245.026067 187.378706 
L 245.138301 187.241802 
L 245.216294 187.150141 
L 245.328528 187.012483 
L 245.406522 186.920324 
L 245.518756 186.781901 
L 245.596749 186.689236 
L 245.708983 186.550036 
L 245.786977 186.456858 
L 245.899211 186.316869 
L 245.977204 186.223171 
L 246.089438 186.082379 
L 246.167432 185.988153 
L 246.279666 185.846548 
L 246.357659 185.751785 
L 246.469893 185.609354 
L 246.547887 185.514047 
L 246.660121 185.370778 
L 246.738114 185.274918 
L 246.850348 185.130798 
L 246.928342 185.034378 
L 247.040576 184.889395 
L 247.118569 184.792406 
L 247.230803 184.646547 
L 247.308797 184.548981 
L 247.421031 184.402232 
L 247.499024 184.304081 
L 247.611258 184.156431 
L 247.689252 184.057686 
L 247.801486 183.909121 
L 247.879479 183.809774 
L 247.991713 183.660281 
L 248.069707 183.560323 
L 248.146178 183.409585 
L 248.181941 183.409888 
L 248.259934 183.309311 
L 248.336406 183.157471 
L 248.372168 183.157922 
L 248.450162 183.056716 
L 248.526633 182.903758 
L 248.562396 182.904358 
L 248.640389 182.802516 
L 248.716861 182.648423 
L 248.752624 182.649176 
L 248.830617 182.546689 
L 248.907088 182.391442 
L 248.942851 182.392353 
L 249.020844 182.289211 
L 249.097316 182.132794 
L 249.133079 182.133865 
L 249.211072 182.030059 
L 249.287543 181.872455 
L 249.322926 181.873676 
L 249.401299 181.769211 
L 249.477771 181.610402 
L 249.513153 181.611788 
L 249.591527 181.506643 
L 249.667998 181.346612 
L 249.703381 181.348166 
L 249.781754 181.242331 
L 249.858226 181.08106 
L 249.893608 181.082786 
L 249.896271 181.027736 
L 249.971982 180.976252 
L 250.048453 180.813723 
L 250.083836 180.815624 
L 250.086499 180.760039 
L 250.124164 180.7621 
L 250.200635 180.598552 
L 250.236018 180.600595 
L 250.238681 180.544576 
L 250.276346 180.54679 
L 250.352817 180.38221 
L 250.3882 180.384398 
L 250.390863 180.32794 
L 250.428528 180.330308 
L 250.504999 180.164685 
L 250.540382 180.16702 
L 250.543045 180.110117 
L 250.58071 180.112643 
L 250.657181 179.945964 
L 250.692564 179.948449 
L 250.695227 179.891096 
L 250.732892 179.893781 
L 250.809363 179.726035 
L 250.844746 179.728671 
L 250.847409 179.670863 
L 250.885074 179.67371 
L 250.961545 179.504885 
L 250.996928 179.507675 
L 250.999591 179.449405 
L 251.037256 179.452416 
L 251.113727 179.282501 
L 251.14911 179.285446 
L 251.151773 179.22671 
L 251.189438 179.229888 
L 251.265909 179.058869 
L 251.301292 179.061973 
L 251.303955 179.002764 
L 251.34162 179.006111 
L 251.418091 178.833977 
L 251.453474 178.837241 
L 251.456137 178.777555 
L 251.493802 178.781074 
L 251.570273 178.607811 
L 251.605656 178.611238 
L 251.608319 178.551069 
L 251.645984 178.554761 
L 251.722455 178.380358 
L 251.757838 178.383951 
L 251.760501 178.323292 
L 251.798166 178.327162 
L 251.874637 178.151605 
L 251.91002 178.155365 
L 251.912683 178.094212 
L 251.950348 178.09826 
L 252.026819 177.921538 
L 252.062202 177.925468 
L 252.064865 177.863815 
L 252.10253 177.868044 
L 252.179001 177.690144 
L 252.214384 177.694246 
L 252.217047 177.632086 
L 252.254712 177.6365 
L 252.331183 177.457408 
L 252.366566 177.461685 
L 252.369229 177.399013 
L 252.406894 177.403614 
L 252.483365 177.223317 
L 252.518748 177.227772 
L 252.521411 177.164581 
L 252.559076 177.169371 
L 252.635547 176.987858 
L 252.67093 176.992492 
L 252.673593 176.928777 
L 252.711258 176.933759 
L 252.787729 176.751015 
L 252.823112 176.755831 
L 252.825775 176.691586 
L 252.86344 176.696762 
L 252.939911 176.512775 
L 252.975294 176.517775 
L 252.977957 176.452995 
L 253.015622 176.458368 
L 253.092093 176.273123 
L 253.127476 176.278311 
L 253.130139 176.212988 
L 253.167804 176.218561 
L 253.244275 176.032046 
L 253.279658 176.037423 
L 253.282321 175.971552 
L 253.319986 175.977327 
L 253.396457 175.789528 
L 253.43184 175.795097 
L 253.434503 175.728672 
L 253.472168 175.734652 
L 253.54864 175.545556 
L 253.584022 175.551319 
L 253.586685 175.484334 
L 253.62435 175.490522 
L 253.700822 175.300114 
L 253.736204 175.306074 
L 253.738867 175.238522 
L 253.776532 175.24492 
L 253.853004 175.053187 
L 253.888386 175.059347 
L 253.891049 174.991222 
L 253.928714 174.997833 
L 254.005186 174.804761 
L 254.040568 174.811124 
L 254.043231 174.742419 
L 254.080896 174.749246 
L 254.157368 174.554821 
L 254.19275 174.561388 
L 254.195413 174.492098 
L 254.233078 174.499144 
L 254.30955 174.303351 
L 254.344932 174.310126 
L 254.347595 174.240243 
L 254.38526 174.247511 
L 254.461732 174.050337 
L 254.497114 174.057321 
L 254.499777 173.98684 
L 254.537442 173.994332 
L 254.613914 173.795762 
L 254.649296 173.802959 
L 254.651959 173.731873 
L 254.689624 173.739592 
L 254.766096 173.539612 
L 254.801478 173.547024 
L 254.804141 173.475326 
L 254.841806 173.483275 
L 254.918278 173.28187 
L 254.95366 173.2895 
L 254.956323 173.217184 
L 254.993988 173.225365 
L 255.07046 173.022521 
L 255.105842 173.030372 
L 255.108505 172.95743 
L 255.14617 172.965848 
L 255.222642 172.761549 
L 255.258024 172.769623 
L 255.260687 172.69605 
L 255.298352 172.704706 
L 255.374824 172.498938 
L 255.410206 172.507238 
L 255.412869 172.433027 
L 255.450534 172.441924 
L 255.527006 172.234672 
L 255.562388 172.243201 
L 255.565051 172.168345 
L 255.602716 172.177486 
L 255.679188 171.968734 
L 255.71457 171.977495 
L 255.717233 171.901987 
L 255.754898 171.911376 
L 255.83137 171.701109 
L 255.866752 171.710105 
L 255.869415 171.633937 
L 255.90708 171.643576 
L 255.983552 171.431779 
L 256.018934 171.441012 
L 256.021597 171.364178 
L 256.059262 171.374071 
L 256.135734 171.160729 
L 256.171116 171.170202 
L 256.173779 171.092695 
L 256.211444 171.102845 
L 256.287916 170.88794 
L 256.323298 170.897657 
L 256.325961 170.81947 
L 256.363626 170.829879 
L 256.440098 170.613397 
L 256.47548 170.62336 
L 256.478143 170.544485 
L 256.515808 170.555157 
L 256.59228 170.337083 
L 256.627662 170.347294 
L 256.630325 170.267725 
L 256.66799 170.278662 
L 256.744462 170.058979 
L 256.779844 170.069442 
L 256.782507 169.989172 
L 256.820172 170.000378 
L 256.896644 169.779069 
L 256.932026 169.789787 
L 256.934689 169.708808 
L 256.972354 169.720286 
L 257.048826 169.497336 
L 257.084208 169.508311 
L 257.086871 169.426616 
L 257.124536 169.438369 
L 257.201008 169.213761 
L 257.23639 169.224997 
L 257.239053 169.142578 
L 257.276718 169.154609 
L 257.35319 168.928328 
L 257.388572 168.939827 
L 257.391235 168.856677 
L 257.4289 168.868989 
L 257.505372 168.641017 
L 257.540754 168.652783 
L 257.543417 168.568894 
L 257.581082 168.581492 
L 257.657554 168.351811 
L 257.692936 168.363848 
L 257.695599 168.279212 
L 257.733264 168.292097 
L 257.809736 168.060692 
L 257.845118 168.073002 
L 257.847781 167.987612 
L 257.885446 168.000789 
L 257.961918 167.767642 
L 257.9973 167.780228 
L 257.999963 167.694076 
L 258.037628 167.707547 
L 258.1141 167.472642 
L 258.149482 167.485506 
L 258.152145 167.398585 
L 258.18981 167.412355 
L 258.266282 167.175673 
L 258.301664 167.18882 
L 258.304327 167.101121 
L 258.341992 167.115192 
L 258.418464 166.876717 
L 258.453846 166.890149 
L 258.456509 166.801665 
L 258.494174 166.816041 
L 258.570646 166.575755 
L 258.606028 166.589476 
L 258.608691 166.500198 
L 258.646356 166.514882 
L 258.722828 166.272767 
L 258.75821 166.28678 
L 258.760873 166.196701 
L 258.798538 166.211697 
L 258.87501 165.967734 
L 258.910392 165.982042 
L 258.913055 165.891154 
L 258.95072 165.906465 
L 259.027192 165.660638 
L 259.062574 165.675244 
L 259.065237 165.583539 
L 259.102902 165.599168 
L 259.179374 165.351457 
L 259.214756 165.366366 
L 259.217419 165.273835 
L 259.255084 165.289786 
L 259.331556 165.040174 
L 259.366938 165.055387 
L 259.369601 164.962022 
L 259.407266 164.978299 
L 259.51912 164.840639 
L 267.709556 158.045695 
L 275.970376 150.902368 
L 284.303482 143.401469 
L 292.710777 135.533471 
L 301.193783 127.288881 
L 309.75364 118.658306 
L 318.392252 109.6313 
L 327.110759 100.197897 
L 335.910303 90.347879 
L 344.792406 80.070327 
L 353.758209 69.354467 
L 362.808854 58.18926 
L 371.945101 46.563893 
L 373.581818 44.443636 
L 373.581818 44.443636 
" clip-path="url(#pe76ab3b7e6)" style="fill: none; stroke: #1f77b4; stroke-width: 1.5; stroke-linecap: square"/>
   </g>
   <g id="patch_3">
    <path d="M 54 252 
L 54 34.56 
" style="fill: none; stroke: #000000; stroke-width: 0.8; stroke-linejoin: miter; stroke-linecap: square"/>
   </g>
   <g id="patch_4">
    <path d="M 388.8 252 
L 388.8 34.56 
" style="fill: none; stroke: #000000; stroke-width: 0.8; stroke-linejoin: miter; stroke-linecap: square"/>
   </g>
   <g id="patch_5">
    <path d="M 54 252 
L 388.8 252 
" style="fill: none; stroke: #000000; stroke-width: 0.8; stroke-linejoin: miter; stroke-linecap: square"/>
   </g>
   <g id="patch_6">
    <path d="M 54 34.56 
L 388.8 34.56 
" style="fill: none; stroke: #000000; stroke-width: 0.8; stroke-linejoin: miter; stroke-linecap: square"/>
   </g>
   <g id="text_17">
    <!-- n,l,m=4,0,0; energy=-0.02303125 hartrees -->
    <g transform="translate(90.639375 28.56) scale(0.12 -0.12)">
     <defs>
      <path id="DejaVuSans-6e" d="M 3513 2113 
L 3513 0 
L 2938 0 
L 2938 2094 
Q 2938 2591 2744 2837 
Q 2550 3084 2163 3084 
Q 1697 3084 1428 2787 
Q 1159 2491 1159 1978 
L 1159 0 
L 581 0 
L 581 3500 
L 1159 3500 
L 1159 2956 
Q 1366 3272 1645 3428 
Q 1925 3584 2291 3584 
Q 2894 3584 3203 3211 
Q 3513 2838 3513 2113 
z
" transform="scale(0.015625)"/>
      <path id="DejaVuSans-2c" d="M 750 794 
L 1409 794 
L 1409 256 
L 897 -744 
L 494 -744 
L 750 256 
L 750 794 
z
" transform="scale(0.015625)"/>
      <path id="DejaVuSans-6c" d="M 603 4863 
L 1178 4863 
L 1178 0 
L 603 0 
L 603 4863 
z
" transform="scale(0.015625)"/>
      <path id="DejaVuSans-6d" d="M 3328 2828 
Q 3544 3216 3844 3400 
Q 4144 3584 4550 3584 
Q 5097 3584 5394 3201 
Q 5691 2819 5691 2113 
L 5691 0 
L 5113 0 
L 5113 2094 
Q 5113 2597 4934 2840 
Q 4756 3084 4391 3084 
Q 3944 3084 3684 2787 
Q 3425 2491 3425 1978 
L 3425 0 
L 2847 0 
L 2847 2094 
Q 2847 2600 2669 2842 
Q 2491 3084 2119 3084 
Q 1678 3084 1418 2786 
Q 1159 2488 1159 1978 
L 1159 0 
L 581 0 
L 581 3500 
L 1159 3500 
L 1159 2956 
Q 1356 3278 1631 3431 
Q 1906 3584 2284 3584 
Q 2666 3584 2933 3390 
Q 3200 3197 3328 2828 
z
" transform="scale(0.015625)"/>
      <path id="DejaVuSans-3d" d="M 678 2906 
L 4684 2906 
L 4684 2381 
L 678 2381 
L 678 2906 
z
M 678 1631 
L 4684 1631 
L 4684 1100 
L 678 1100 
L 678 1631 
z
" transform="scale(0.015625)"/>
      <path id="DejaVuSans-3b" d="M 750 3309 
L 1409 3309 
L 1409 2516 
L 750 2516 
L 750 3309 
z
M 750 794 
L 1409 794 
L 1409 256 
L 897 -744 
L 494 -744 
L 750 256 
L 750 794 
z
" transform="scale(0.015625)"/>
      <path id="DejaVuSans-20" transform="scale(0.015625)"/>
      <path id="DejaVuSans-65" d="M 3597 1894 
L 3597 1613 
L 953 1613 
Q 991 1019 1311 708 
Q 1631 397 2203 397 
Q 2534 397 2845 478 
Q 3156 559 3463 722 
L 3463 178 
Q 3153 47 2828 -22 
Q 2503 -91 2169 -91 
Q 1331 -91 842 396 
Q 353 884 353 1716 
Q 353 2575 817 3079 
Q 1281 3584 2069 3584 
Q 2775 3584 3186 3129 
Q 3597 2675 3597 1894 
z
M 3022 2063 
Q 3016 2534 2758 2815 
Q 2500 3097 2075 3097 
Q 1594 3097 1305 2825 
Q 1016 2553 972 2059 
L 3022 2063 
z
" transform="scale(0.015625)"/>
      <path id="DejaVuSans-72" d="M 2631 2963 
Q 2534 3019 2420 3045 
Q 2306 3072 2169 3072 
Q 1681 3072 1420 2755 
Q 1159 2438 1159 1844 
L 1159 0 
L 581 0 
L 581 3500 
L 1159 3500 
L 1159 2956 
Q 1341 3275 1631 3429 
Q 1922 3584 2338 3584 
Q 2397 3584 2469 3576 
Q 2541 3569 2628 3553 
L 2631 2963 
z
" transform="scale(0.015625)"/>
      <path id="DejaVuSans-67" d="M 2906 1791 
Q 2906 2416 2648 2759 
Q 2391 3103 1925 3103 
Q 1463 3103 1205 2759 
Q 947 2416 947 1791 
Q 947 1169 1205 825 
Q 1463 481 1925 481 
Q 2391 481 2648 825 
Q 2906 1169 2906 1791 
z
M 3481 434 
Q 3481 -459 3084 -895 
Q 2688 -1331 1869 -1331 
Q 1566 -1331 1297 -1286 
Q 1028 -1241 775 -1147 
L 775 -588 
Q 1028 -725 1275 -790 
Q 1522 -856 1778 -856 
Q 2344 -856 2625 -561 
Q 2906 -266 2906 331 
L 2906 616 
Q 2728 306 2450 153 
Q 2172 0 1784 0 
Q 1141 0 747 490 
Q 353 981 353 1791 
Q 353 2603 747 3093 
Q 1141 3584 1784 3584 
Q 2172 3584 2450 3431 
Q 2728 3278 2906 2969 
L 2906 3500 
L 3481 3500 
L 3481 434 
z
" transform="scale(0.015625)"/>
      <path id="DejaVuSans-79" d="M 2059 -325 
Q 1816 -950 1584 -1140 
Q 1353 -1331 966 -1331 
L 506 -1331 
L 506 -850 
L 844 -850 
Q 1081 -850 1212 -737 
Q 1344 -625 1503 -206 
L 1606 56 
L 191 3500 
L 800 3500 
L 1894 763 
L 2988 3500 
L 3597 3500 
L 2059 -325 
z
" transform="scale(0.015625)"/>
      <path id="DejaVuSans-2d" d="M 313 2009 
L 1997 2009 
L 1997 1497 
L 313 1497 
L 313 2009 
z
" transform="scale(0.015625)"/>
      <path id="DejaVuSans-68" d="M 3513 2113 
L 3513 0 
L 2938 0 
L 2938 2094 
Q 2938 2591 2744 2837 
Q 2550 3084 2163 3084 
Q 1697 3084 1428 2787 
Q 1159 2491 1159 1978 
L 1159 0 
L 581 0 
L 581 4863 
L 1159 4863 
L 1159 2956 
Q 1366 3272 1645 3428 
Q 1925 3584 2291 3584 
Q 2894 3584 3203 3211 
Q 3513 2838 3513 2113 
z
" transform="scale(0.015625)"/>
      <path id="DejaVuSans-61" d="M 2194 1759 
Q 1497 1759 1228 1600 
Q 959 1441 959 1056 
Q 959 750 1161 570 
Q 1363 391 1709 391 
Q 2188 391 2477 730 
Q 2766 1069 2766 1631 
L 2766 1759 
L 2194 1759 
z
M 3341 1997 
L 3341 0 
L 2766 0 
L 2766 531 
Q 2569 213 2275 61 
Q 1981 -91 1556 -91 
Q 1019 -91 701 211 
Q 384 513 384 1019 
Q 384 1609 779 1909 
Q 1175 2209 1959 2209 
L 2766 2209 
L 2766 2266 
Q 2766 2663 2505 2880 
Q 2244 3097 1772 3097 
Q 1472 3097 1187 3025 
Q 903 2953 641 2809 
L 641 3341 
Q 956 3463 1253 3523 
Q 1550 3584 1831 3584 
Q 2591 3584 2966 3190 
Q 3341 2797 3341 1997 
z
" transform="scale(0.015625)"/>
      <path id="DejaVuSans-74" d="M 1172 4494 
L 1172 3500 
L 2356 3500 
L 2356 3053 
L 1172 3053 
L 1172 1153 
Q 1172 725 1289 603 
Q 1406 481 1766 481 
L 2356 481 
L 2356 0 
L 1766 0 
Q 1100 0 847 248 
Q 594 497 594 1153 
L 594 3053 
L 172 3053 
L 172 3500 
L 594 3500 
L 594 4494 
L 1172 4494 
z
" transform="scale(0.015625)"/>
      <path id="DejaVuSans-73" d="M 2834 3397 
L 2834 2853 
Q 2591 2978 2328 3040 
Q 2066 3103 1784 3103 
Q 1356 3103 1142 2972 
Q 928 2841 928 2578 
Q 928 2378 1081 2264 
Q 1234 2150 1697 2047 
L 1894 2003 
Q 2506 1872 2764 1633 
Q 3022 1394 3022 966 
Q 3022 478 2636 193 
Q 2250 -91 1575 -91 
Q 1294 -91 989 -36 
Q 684 19 347 128 
L 347 722 
Q 666 556 975 473 
Q 1284 391 1588 391 
Q 1994 391 2212 530 
Q 2431 669 2431 922 
Q 2431 1156 2273 1281 
Q 2116 1406 1581 1522 
L 1381 1569 
Q 847 1681 609 1914 
Q 372 2147 372 2553 
Q 372 3047 722 3315 
Q 1072 3584 1716 3584 
Q 2034 3584 2315 3537 
Q 2597 3491 2834 3397 
z
" transform="scale(0.015625)"/>
     </defs>
     <use xlink:href="#DejaVuSans-6e"/>
     <use xlink:href="#DejaVuSans-2c" x="63.378906"/>
     <use xlink:href="#DejaVuSans-6c" x="95.166016"/>
     <use xlink:href="#DejaVuSans-2c" x="122.949219"/>
     <use xlink:href="#DejaVuSans-6d" x="154.736328"/>
     <use xlink:href="#DejaVuSans-3d" x="252.148438"/>
     <use xlink:href="#DejaVuSans-34" x="335.9375"/>
     <use xlink:href="#DejaVuSans-2c" x="399.560547"/>
     <use xlink:href="#DejaVuSans-30" x="431.347656"/>
     <use xlink:href="#DejaVuSans-2c" x="494.970703"/>
     <use xlink:href="#DejaVuSans-30" x="526.757812"/>
     <use xlink:href="#DejaVuSans-3b" x="590.380859"/>
     <use xlink:href="#DejaVuSans-20" x="624.072266"/>
     <use xlink:href="#DejaVuSans-65" x="655.859375"/>
     <use xlink:href="#DejaVuSans-6e" x="717.382812"/>
     <use xlink:href="#DejaVuSans-65" x="780.761719"/>
     <use xlink:href="#DejaVuSans-72" x="842.285156"/>
     <use xlink:href="#DejaVuSans-67" x="881.648438"/>
     <use xlink:href="#DejaVuSans-79" x="945.125"/>
     <use xlink:href="#DejaVuSans-3d" x="1004.304688"/>
     <use xlink:href="#DejaVuSans-2d" x="1088.09375"/>
     <use xlink:href="#DejaVuSans-30" x="1124.177734"/>
     <use xlink:href="#DejaVuSans-2e" x="1187.800781"/>
     <use xlink:href="#DejaVuSans-30" x="1219.587891"/>
     <use xlink:href="#DejaVuSans-32" x="1283.210938"/>
     <use xlink:href="#DejaVuSans-33" x="1346.833984"/>
     <use xlink:href="#DejaVuSans-30" x="1410.457031"/>
     <use xlink:href="#DejaVuSans-33" x="1474.080078"/>
     <use xlink:href="#DejaVuSans-31" x="1537.703125"/>
     <use xlink:href="#DejaVuSans-32" x="1601.326172"/>
     <use xlink:href="#DejaVuSans-35" x="1664.949219"/>
     <use xlink:href="#DejaVuSans-20" x="1728.572266"/>
     <use xlink:href="#DejaVuSans-68" x="1760.359375"/>
     <use xlink:href="#DejaVuSans-61" x="1823.738281"/>
     <use xlink:href="#DejaVuSans-72" x="1885.017578"/>
     <use xlink:href="#DejaVuSans-74" x="1926.130859"/>
     <use xlink:href="#DejaVuSans-72" x="1965.339844"/>
     <use xlink:href="#DejaVuSans-65" x="2004.203125"/>
     <use xlink:href="#DejaVuSans-65" x="2065.726562"/>
     <use xlink:href="#DejaVuSans-73" x="2127.25"/>
    </g>
   </g>
  </g>
 </g>
 <defs>
  <clipPath id="pe76ab3b7e6">
   <rect x="54" y="34.56" width="334.8" height="217.44"/>
  </clipPath>
 </defs>
</svg>
